<svg width="14" height="14" viewBox="0 0 14 14" fill="none" xmlns="http://www.w3.org/2000/svg"><path d="M13.883 6.696a9.003 9.003 0 00-2.195-3.15l1.762-1.761L12.214.548l-1.968 1.969A6.758 6.758 0 007 1.716c-4.958 0-6.81 4.776-6.883 4.98L0 7l.117.305a9.004 9.004 0 002.195 3.15l-1.764 1.76 1.238 1.237 1.968-1.968c.998.534 2.114.81 3.246.8 4.958 0 6.81-4.776 6.883-4.98L14 7l-.117-.304zM1.873 7C2.314 6.093 3.862 3.451 7 3.451a5.1 5.1 0 011.938.374L7.91 4.852a2.333 2.333 0 00-3.06 3.06L3.539 9.223A7.17 7.17 0 011.874 7zM7 10.55a5.1 5.1 0 01-1.938-.375L6.09 9.15a2.333 2.333 0 003.06-3.06l1.313-1.313A7.165 7.165 0 0112.126 7c-.439.907-1.987 3.55-5.126 3.55z" fill="#fff"/></svg>