<svg width="19" height="19" viewBox="0 0 19 19" fill="none" xmlns="http://www.w3.org/2000/svg"><path d="M0 0v2.375A2.399 2.399 0 012.375 0H0zm18.304.696c.446.445.696 1.05.696 1.679V0h-2.375c.63 0 1.234.25 1.68.696z" fill="#fff"/><path fill-rule="evenodd" clip-rule="evenodd" d="M16.625 0H2.375A2.399 2.399 0 000 2.375V19h19V2.375A2.375 2.375 0 0016.625 0zM1.583 13.786l4.982-4.982a.792.792 0 011.12 0l8.612 8.613H1.583v-3.63zm.792-12.203h15.042v14.714L8.804 7.685a2.375 2.375 0 00-3.358 0l-3.863 3.862V1.583h.792z" fill="#fff"/><path d="M12.667 7.917a2.375 2.375 0 100-4.75 2.375 2.375 0 000 4.75zm0-3.167a.792.792 0 110 1.583.792.792 0 010-1.583z" fill="#fff"/></svg>