<svg width="42" height="42" viewBox="0 0 42 42" fill="none" xmlns="http://www.w3.org/2000/svg"><path d="M40.77 32.977H30.26v-.329c0-.68-.552-1.23-1.231-1.23h-3.445v-4.825c5.297-1.892 9.1-6.96 9.1-12.9C34.683 6.144 28.54 0 20.99 0 13.44 0 7.296 6.143 7.296 13.694c0 5.94 3.802 11.007 9.1 12.9v4.824h-3.445c-.68 0-1.23.55-1.23 1.23v.329H1.23c-.68 0-1.231.55-1.231 1.23v5.004c0 .68.55 1.23 1.23 1.23h10.49v.328c0 .68.551 1.231 1.23 1.231H29.03c.68 0 1.23-.55 1.23-1.23v-.329h10.51c.68 0 1.231-.55 1.231-1.23v-5.004c0-.68-.55-1.23-1.23-1.23zM9.825 14.924h.372a1.23 1.23 0 100-2.46h-.372a11.18 11.18 0 012.404-5.791l.26.26a1.227 1.227 0 001.74 0c.48-.481.48-1.26 0-1.741l-.26-.26a11.18 11.18 0 015.79-2.403V2.9a1.23 1.23 0 102.461 0v-.372a11.18 11.18 0 015.79 2.404l-.259.259a1.23 1.23 0 001.74 1.74l.26-.26a11.18 11.18 0 012.404 5.791h-.373a1.23 1.23 0 000 2.461h.373a11.18 11.18 0 01-2.404 5.79l-.26-.259a1.23 1.23 0 00-1.74 1.74l.26.26a11.18 11.18 0 01-5.79 2.403v-.372a1.23 1.23 0 00-2.462 0v.372a11.18 11.18 0 01-5.79-2.403l.26-.26a1.23 1.23 0 00-1.741-1.74l-.26.26a11.182 11.182 0 01-2.403-5.791zm9.032 12.297a13.736 13.736 0 004.266 0v4.197h-4.266v-4.197zM2.461 37.98v-2.544h9.26v2.544H2.46zm11.72 1.558v-5.66h13.591c-.029.105.026 5.66.026 5.66H14.181zM39.54 37.98h-9.28v-2.542h9.28v2.542z" fill="#0A3782"/><path d="M22.5 16.943l-.14 1.19a1.23 1.23 0 002.445.285l.095-.814.814-.096a1.23 1.23 0 10-.286-2.444l-1.189.139-5.966-5.967a1.23 1.23 0 00-1.74 1.74l5.966 5.967z" fill="#0A3782"/></svg>