<svg width="42" height="42" viewBox="0 0 42 42" fill="none" xmlns="http://www.w3.org/2000/svg"><path d="M40.137 18.34l-1.5.751V1.231A1.23 1.23 0 0037.407 0H4.593c-.68 0-1.23.55-1.23 1.23v12.06H1.312c-.68 0-1.231.55-1.231 1.23v26.25c0 .68.551 1.23 1.23 1.23h39.376c.679 0 1.23-.55 1.23-1.23V19.44a1.23 1.23 0 00-1.78-1.1zm-.68 8.894h-7.383v-2.11l7.383-3.692v5.802zM16.488 16.39a15.2 15.2 0 00-4.101-2.219V2.461h4.101v13.93zM18.95 2.46h4.102v17.195a12.765 12.765 0 01-4.102-1.487V2.46zm6.563 0h4.101v17.392h-4.101V2.46zm10.664 17.862l-4.102 2.05V2.461h4.102v17.86zM5.824 2.46h4.102v11.06a15.156 15.156 0 00-2.633-.23H5.824V2.46zm1.469 13.29a12.75 12.75 0 018.198 2.992 15.21 15.21 0 009.783 3.57h4.34v5.743h-4.34a12.745 12.745 0 01-8.198-2.992 15.189 15.189 0 00-4.69-2.689v-2.112a1.23 1.23 0 00-2.46 0v1.461a15.156 15.156 0 00-2.461-.229v-2.053a1.23 1.23 0 00-2.461 0v2.051H2.543V15.75h4.75zm-4.75 8.203h4.75a12.75 12.75 0 018.198 2.992 15.21 15.21 0 009.783 3.57h4.34v2.462H21c-.68 0-1.23.55-1.23 1.23v5.332h-2.461v-5.332c0-.68-.551-1.23-1.23-1.23H6.233c-.68 0-1.23.55-1.23 1.23v5.332h-2.46V23.953zm4.922 11.485h2.46v4.101h-2.46v-4.102zm4.922 4.101v-4.102h2.46v4.102h-2.46zm17.226 0H22.23v-4.102h7.383v4.102zm7.383 0v-3.691a1.23 1.23 0 10-2.46 0v3.691h-2.462v-9.844h7.383v9.844h-2.46z" fill="#0A3782"/></svg>