<svg width="42" height="42" viewBox="0 0 42 42" fill="none" xmlns="http://www.w3.org/2000/svg"><g clip-path="url(#clip0_206_1017)" fill="#0A3782"><path d="M24.898 14.175a1.23 1.23 0 00-1.835.89l-.668 4.622h-2.79l-.668-4.623a1.23 1.23 0 00-1.835-.889 7.819 7.819 0 00-3.895 6.743 7.73 7.73 0 003.691 6.62v13.231c0 .68.551 1.23 1.23 1.23h5.743c.68 0 1.23-.55 1.23-1.23V27.538a7.73 7.73 0 003.692-6.62 7.819 7.819 0 00-3.895-6.742zm-1.567 11.531a1.23 1.23 0 00-.69 1.106v12.727h-3.282V26.812c0-.47-.268-.9-.69-1.106a5.297 5.297 0 01-3.001-4.788c0-1.211.419-2.371 1.151-3.299l.502 3.474a1.23 1.23 0 001.218 1.055h4.922c.612 0 1.13-.45 1.218-1.055l.502-3.474a5.33 5.33 0 011.151 3.299c0 2.05-1.15 3.885-3 4.788z"/><path d="M40.929 16.43l-3.062-.612a17.509 17.509 0 00-1.334-3.22L38.265 10a1.23 1.23 0 00-.154-1.553l-4.64-4.64a1.23 1.23 0 00-1.553-.154L29.32 5.385A17.515 17.515 0 0026.1 4.05L25.488.99A1.23 1.23 0 0024.28 0h-6.56a1.23 1.23 0 00-1.207.99L15.9 4.05a17.521 17.521 0 00-3.22 1.334l-2.598-1.732a1.23 1.23 0 00-1.553.154l-4.64 4.64A1.23 1.23 0 003.735 10l1.732 2.598a17.513 17.513 0 00-1.334 3.22l-3.062.612a1.23 1.23 0 00-.989 1.207v6.562c0 .587.414 1.092.99 1.207l3.061.612a17.512 17.512 0 001.334 3.22l-1.732 2.598a1.23 1.23 0 00.154 1.553l4.64 4.64a1.23 1.23 0 001.553.154l3.227-2.151a1.23 1.23 0 00.548-1.024v-6.246c0-.313-.12-.614-.334-.842a10.19 10.19 0 01-2.777-7.002c0-5.654 4.6-10.254 10.254-10.254s10.254 4.6 10.254 10.254a10.19 10.19 0 01-2.777 7.002 1.23 1.23 0 00-.334.842v6.246c0 .411.206.795.548 1.024l3.228 2.151a1.227 1.227 0 001.552-.154l4.64-4.64a1.23 1.23 0 00.154-1.553l-1.732-2.598a17.52 17.52 0 001.334-3.22l3.062-.612a1.23 1.23 0 00.989-1.207v-6.562a1.23 1.23 0 00-.99-1.207zm-1.472 6.76l-2.815.563a1.23 1.23 0 00-.95.904 15.06 15.06 0 01-1.66 4.005 1.23 1.23 0 00.034 1.312l1.592 2.388-3.214 3.214-1.84-1.227v-5.113a12.637 12.637 0 003.11-8.318c0-7.011-5.703-12.715-12.714-12.715S8.285 13.907 8.285 20.918c0 3.072 1.101 6.006 3.11 8.317v5.114l-1.84 1.227-3.213-3.214 1.592-2.388a1.23 1.23 0 00.033-1.312 15.06 15.06 0 01-1.658-4.005 1.23 1.23 0 00-.952-.904l-2.814-.563v-4.545l2.815-.562a1.23 1.23 0 00.95-.904 15.059 15.059 0 011.66-4.005 1.23 1.23 0 00-.034-1.312L6.342 9.474 9.556 6.26l2.388 1.592a1.23 1.23 0 001.312.033 15.064 15.064 0 014.005-1.658c.46-.117.81-.487.904-.951l.563-2.815h4.544l.563 2.815c.093.464.445.834.904.95 1.412.36 2.76.917 4.005 1.66.407.242.918.229 1.312-.034l2.388-1.592 3.214 3.214-1.592 2.388a1.23 1.23 0 00-.033 1.312 15.057 15.057 0 011.658 4.005c.117.46.487.81.951.904l2.815.563v4.544z"/></g><defs><clipPath id="clip0_206_1017"><path fill="#fff" d="M0 0h42v42H0z"/></clipPath></defs></svg>