<svg width="42" height="42" viewBox="0 0 42 42" fill="none" xmlns="http://www.w3.org/2000/svg"><path d="M40.77 29.695H12.305V1.23c0-.68-.551-1.23-1.23-1.23H1.23C.55 0 0 .55 0 1.23v39.54C0 41.45.55 42 1.23 42h39.54c.68 0 1.23-.55 1.23-1.23v-9.844c0-.68-.55-1.23-1.23-1.23zm-1.23 9.844H2.46V2.461h7.384v2.625H7.793a1.23 1.23 0 100 2.46h2.05v2.462h-1.23a1.23 1.23 0 100 2.46h1.23v2.462h-2.05a1.23 1.23 0 100 2.46h2.05v2.462h-1.23a1.23 1.23 0 100 2.46h1.23v2.461h-2.05a1.23 1.23 0 100 2.461h2.05v2.461h-1.23a1.23 1.23 0 100 2.461h1.23v1.23a1.23 1.23 0 102.462 0v-1.23h2.46v2.051a1.23 1.23 0 102.462 0v-2.05h2.46v1.23a1.23 1.23 0 102.461 0v-1.23h2.461v2.05a1.23 1.23 0 102.461 0v-2.05h2.461v1.23a1.23 1.23 0 102.461 0v-1.23h2.461v2.05a1.23 1.23 0 102.461 0v-2.05h2.625v7.382z" fill="#0A3782"/><path d="M36.53 10.05l-7.383-4.92a1.23 1.23 0 00-1.365 0L20.4 10.05a1.23 1.23 0 00-.547 1.024v9.844c0 .68.55 1.23 1.23 1.23h14.766c.679 0 1.23-.55 1.23-1.23v-9.844a1.23 1.23 0 00-.548-1.024zm-6.835 9.637h-2.46v-4.101h2.46v4.101zm4.922 0h-2.46v-5.332c0-.68-.552-1.23-1.231-1.23h-4.922c-.68 0-1.23.55-1.23 1.23v5.332h-2.462v-7.954l6.153-4.102 6.152 4.102v7.954z" fill="#0A3782"/><path d="M40.77 0H16.16c-.68 0-1.23.55-1.23 1.23v24.61c0 .68.55 1.23 1.23 1.23h24.61c.68 0 1.23-.55 1.23-1.23V1.23C42 .55 41.45 0 40.77 0zm-1.23 24.61H17.39V2.46h22.15v22.15z" fill="#0A3782"/></svg>