<svg width="42" height="42" viewBox="0 0 42 42" fill="none" xmlns="http://www.w3.org/2000/svg"><path d="M28.383 14.766a1.23 1.23 0 100-2.461 1.23 1.23 0 000 2.46z" fill="#0A3782"/><path d="M35.766 12.305H34.41a6.12 6.12 0 00-.898-2.16l.96-.96a1.23 1.23 0 00-1.74-1.74l-.96.96a6.115 6.115 0 00-2.16-.898V6.152a1.23 1.23 0 00-2.46 0v1.355c-.785.16-1.515.47-2.16.898l-.96-.96a1.23 1.23 0 00-1.74 1.74l.96.96a6.116 6.116 0 00-.899 2.16H21a1.23 1.23 0 000 2.46h1.354c.16.785.47 1.515.898 2.16l-.96.96a1.23 1.23 0 101.74 1.74l.96-.96a6.115 6.115 0 002.16.899v1.354a1.23 1.23 0 002.461 0v-1.354a6.116 6.116 0 002.16-.898l.96.96a1.227 1.227 0 001.74 0c.48-.48.48-1.26 0-1.74l-.96-.96a6.114 6.114 0 00.898-2.16h1.355a1.23 1.23 0 100-2.461zm-7.383 4.922a3.696 3.696 0 01-3.692-3.692 3.696 3.696 0 013.692-3.691 3.696 3.696 0 013.691 3.691 3.696 3.696 0 01-3.691 3.692z" fill="#0A3782"/><path d="M37.488 0H4.512A4.517 4.517 0 000 4.512V27.48a4.517 4.517 0 004.512 4.512h9.947l-.993 3.576a3.697 3.697 0 00-2.72 3.56v1.642c0 .68.551 1.23 1.23 1.23h18.047c.68 0 1.23-.55 1.23-1.23v-1.641c0-1.7-1.154-3.133-2.719-3.56l-.993-3.577h9.947A4.517 4.517 0 0042 27.48V4.512A4.517 4.517 0 0037.488 0zm-9.925 37.898c.678 0 1.23.552 1.23 1.23v.411H13.207v-.41c0-.679.552-1.23 1.23-1.23h13.126zm-11.507-2.46l.957-3.446h7.974l.957 3.445h-9.888zM39.54 27.48c0 1.131-.92 2.051-2.05 2.051H4.511a2.053 2.053 0 01-2.051-2.05v-.41h37.078v.41zm0-2.87H19.77v-3.692a1.23 1.23 0 10-2.46 0v3.691h-2.461V14.355a1.23 1.23 0 00-2.461 0V24.61H9.926V10.764l.36.36a1.227 1.227 0 001.74 0c.48-.48.48-1.26 0-1.74l-2.46-2.461a1.23 1.23 0 00-1.74 0l-2.462 2.46a1.23 1.23 0 101.74 1.74l.36-.36V24.61H2.462V4.512c0-1.131.92-2.051 2.05-2.051h32.977c1.131 0 2.051.92 2.051 2.05V24.61z" fill="#0A3782"/></svg>