<svg width="42" height="42" viewBox="0 0 42 42" fill="none" xmlns="http://www.w3.org/2000/svg"><path d="M35.848 5.086c-.68 0-1.23.55-1.23 1.23v3.692h-5.825V2.87A2.874 2.874 0 0025.922 0h-1.64a2.874 2.874 0 00-2.872 2.871v7.137H7.383V6.316c0-.68-.551-1.23-1.23-1.23A6.16 6.16 0 000 11.238v24.61A6.16 6.16 0 006.152 42h29.696A6.16 6.16 0 0042 35.848v-24.61a6.16 6.16 0 00-6.152-6.152zM23.87 2.87a.41.41 0 01.41-.41h1.64a.41.41 0 01.411.41v18.457h-2.46V2.871zm0 20.918h2.461v1.76l-1.23 2.461-1.23-2.46v-1.76zm-2.33 2.602l2.331 4.662v1.104h-9.023V19.852h6.562v5.988c0 .19.045.38.13.55zM2.46 11.238a3.698 3.698 0 012.462-3.48v22.06a6.132 6.132 0 00-2.461 1.11v-19.69zM35.849 39.54H6.152a3.696 3.696 0 01-3.691-3.691 3.696 3.696 0 013.691-3.692c.68 0 1.23-.55 1.23-1.23V12.469H21.41v4.922h-6.562v-1.23a1.23 1.23 0 00-2.461 0v1.23h-1.23a1.23 1.23 0 000 2.46h1.23v12.305h-1.23a1.23 1.23 0 000 2.461h1.23v1.23a1.23 1.23 0 002.46 0v-1.23h10.255c.68 0 1.23-.55 1.23-1.23v-2.335l2.331-4.662c.086-.17.13-.36.13-.55v-5.988h2.05a1.23 1.23 0 000-2.461h-2.05v-4.922h5.824v18.457c0 .68.551 1.23 1.23 1.23a3.696 3.696 0 013.692 3.692 3.696 3.696 0 01-3.691 3.691zm3.691-8.61a6.131 6.131 0 00-2.46-1.11V7.758a3.698 3.698 0 012.46 3.48v19.69z" fill="#0A3782"/></svg>