<svg width="271" height="311" viewBox="0 0 271 311" fill="none" xmlns="http://www.w3.org/2000/svg"><path opacity=".2" shape-rendering="crispEdges" fill="#fff" d="M61.76 236.557l73.74-73.577 73.74 73.577-73.74 73.577z"/><path shape-rendering="crispEdges" fill="#fff" d="M0 135.332L135.5.133 271 135.332 135.5 270.531z"/><path fill-rule="evenodd" clip-rule="evenodd" d="M158.044 87.527l22.544 14.059v18.745l-22.39 14.893-.002.192-.152-.089-22.545 14.996-22.544-14.996 45.089-28.118V87.527zm-45.089 95.6l22.544 14.059 45.089-28.118v-20.62l-22.392-13.032-.152 20.531-45.089 27.18z" fill="#0A3782"/><path fill-rule="evenodd" clip-rule="evenodd" d="M90.41 169.068v-67.482l45.09-28.118 22.545 14.059-45.089 29.055v66.545l-22.544-14.059z" fill="#0A3782"/></svg>