<?xml version="1.0" encoding="utf-8"?><svg viewBox="0 0 303 42" xmlns="http://www.w3.org/2000/svg" xmlns:xlink="http://www.w3.org/1999/xlink"><style>:root>svg{display:none}:root>svg:target{display:block}</style><svg viewBox="0 0 24 24" id="arrow-rtl" xmlns="http://www.w3.org/2000/svg"><path d="M9.6 2.4l1.68 1.68-6.72 6.72H24v2.4H4.56l6.72 6.72L9.6 21.6 0 12l9.6-9.6z"/></svg><svg viewBox="0 0 42 42" id="construction" xmlns="http://www.w3.org/2000/svg"><path d="M40.137 18.34l-1.5.751V1.231c0-.68-.551-1.231-1.23-1.231H4.593c-.68 0-1.23.55-1.23 1.23v12.06H1.312c-.68 0-1.231.55-1.231 1.23v26.25c0 .68.551 1.23 1.23 1.23h39.376c.679 0 1.23-.55 1.23-1.23V19.44a1.23 1.23 0 00-1.78-1.1zm-.68 8.894h-7.383v-2.11l7.383-3.692v5.802zM16.488 16.39a15.2 15.2 0 00-4.101-2.219V2.461h4.101v13.93zM18.95 2.46h4.102v17.195a12.765 12.765 0 01-4.102-1.487V2.46zm6.563 0h4.101v17.392h-4.101V2.46zm10.664 17.862l-4.102 2.05V2.461h4.102v17.86zM5.824 2.46h4.102V13.52a15.156 15.156 0 00-2.633-.23H5.824V2.46zM7.293 15.75c2.995 0 5.906 1.063 8.198 2.992a15.21 15.21 0 009.783 3.57h4.34v5.743h-4.34a12.745 12.745 0 01-8.198-2.992 15.189 15.189 0 00-4.69-2.689v-2.112a1.23 1.23 0 00-2.46 0v1.461a15.156 15.156 0 00-2.461-.229v-2.053a1.23 1.23 0 00-2.461 0v2.051H2.543V15.75h4.75zm-4.75 8.203h4.75c2.995 0 5.906 1.063 8.198 2.992a15.21 15.21 0 009.783 3.57h4.34v2.462H21c-.68 0-1.23.55-1.23 1.23v5.332h-2.461v-5.332c0-.68-.551-1.23-1.23-1.23H6.233c-.68 0-1.23.55-1.23 1.23v5.332H2.543V23.953zm4.922 11.485h2.46v4.101h-2.46v-4.102zm4.922 4.101v-4.102h2.46v4.102h-2.46zm17.226 0H22.23v-4.102h7.383v4.102zm7.383 0v-3.691a1.23 1.23 0 10-2.46 0v3.691h-2.462v-9.844h7.383v9.844h-2.46z"/></svg><svg viewBox="0 0 42 42" id="digital-engineering" xmlns="http://www.w3.org/2000/svg"><path d="M28.383 14.766a1.23 1.23 0 100-2.461 1.23 1.23 0 000 2.46z"/><path d="M35.766 12.305H34.41a6.12 6.12 0 00-.898-2.16l.96-.96a1.23 1.23 0 00-1.74-1.74l-.96.96a6.115 6.115 0 00-2.16-.898V6.152a1.23 1.23 0 00-2.46 0v1.355c-.785.16-1.515.47-2.16.898l-.96-.96a1.23 1.23 0 00-1.74 1.74l.96.96a6.116 6.116 0 00-.899 2.16H21a1.23 1.23 0 000 2.46h1.354c.16.785.47 1.515.898 2.16l-.96.96a1.23 1.23 0 101.74 1.74l.96-.96a6.115 6.115 0 002.16.899v1.354a1.23 1.23 0 002.461 0v-1.354a6.116 6.116 0 002.16-.898l.96.96a1.227 1.227 0 001.74 0c.48-.48.48-1.26 0-1.74l-.96-.96a6.114 6.114 0 00.898-2.16h1.355a1.23 1.23 0 100-2.461zm-7.383 4.922a3.696 3.696 0 01-3.692-3.692 3.696 3.696 0 013.692-3.691 3.696 3.696 0 013.691 3.691 3.696 3.696 0 01-3.691 3.692z"/><path d="M37.488 0H4.512A4.517 4.517 0 000 4.512V27.48a4.517 4.517 0 004.512 4.512h9.947l-.993 3.576a3.697 3.697 0 00-2.72 3.56v1.642c0 .68.551 1.23 1.23 1.23h18.047c.68 0 1.23-.55 1.23-1.23v-1.641c0-1.7-1.154-3.133-2.719-3.56l-.993-3.577h9.947A4.517 4.517 0 0042 27.48V4.512A4.517 4.517 0 0037.488 0zm-9.925 37.898c.678 0 1.23.552 1.23 1.23v.411H13.207v-.41c0-.679.552-1.23 1.23-1.23h13.126zm-11.507-2.46l.957-3.446h7.974l.957 3.445h-9.888zM39.54 27.48c0 1.131-.92 2.051-2.05 2.051H4.511c-1.131 0-2.051-.92-2.051-2.05v-.41h37.078v.41zm0-2.87H19.77v-3.692a1.23 1.23 0 10-2.46 0v3.691h-2.461V14.355a1.23 1.23 0 00-2.461 0V24.61H9.926V10.764l.36.36a1.227 1.227 0 001.74 0c.48-.48.48-1.26 0-1.74l-2.46-2.461a1.23 1.23 0 00-1.74 0l-2.462 2.46a1.23 1.23 0 101.74 1.74l.36-.36V24.61H2.462V4.512c0-1.131.92-2.051 2.05-2.051h32.977c1.131 0 2.051.92 2.051 2.05V24.61z"/></svg><svg viewBox="0 0 42 42" id="gas-facilities" xmlns="http://www.w3.org/2000/svg"><path d="M40.77 32.977H30.26v-.329c0-.68-.552-1.23-1.231-1.23h-3.445v-4.825c5.297-1.892 9.1-6.96 9.1-12.9C34.683 6.144 28.54 0 20.99 0 13.44 0 7.296 6.143 7.296 13.694c0 5.94 3.802 11.007 9.1 12.9v4.824h-3.445c-.68 0-1.23.55-1.23 1.23v.329H1.23c-.68 0-1.231.55-1.231 1.23v5.004c0 .68.55 1.23 1.23 1.23h10.49v.328c0 .68.551 1.231 1.23 1.231H29.03c.68 0 1.23-.55 1.23-1.23v-.329h10.51c.68 0 1.231-.55 1.231-1.23v-5.004c0-.68-.55-1.23-1.23-1.23zM9.825 14.924h.372a1.23 1.23 0 100-2.46h-.372a11.18 11.18 0 012.404-5.791l.26.26a1.227 1.227 0 001.74 0c.48-.481.48-1.26 0-1.741l-.26-.26a11.18 11.18 0 015.79-2.403V2.9a1.23 1.23 0 102.461 0v-.372a11.18 11.18 0 015.79 2.404l-.259.259a1.23 1.23 0 001.74 1.74l.26-.26a11.18 11.18 0 012.404 5.791h-.373a1.23 1.23 0 000 2.461h.373a11.18 11.18 0 01-2.404 5.79l-.26-.259a1.23 1.23 0 00-1.74 1.74l.26.26a11.18 11.18 0 01-5.79 2.403v-.372a1.23 1.23 0 00-2.462 0v.372a11.18 11.18 0 01-5.79-2.403l.26-.26a1.23 1.23 0 00-1.741-1.74l-.26.26a11.182 11.182 0 01-2.403-5.791zm9.032 12.297a13.736 13.736 0 004.266 0v4.197h-4.266v-4.197zM2.461 37.98v-2.544h9.26v2.544H2.46zm11.72 1.558v-5.66h13.591c-.029.105.026 5.66.026 5.66H14.181zM39.54 37.98h-9.28v-2.542h9.28v2.542z"/><path d="M22.5 16.943l-.14 1.19a1.23 1.23 0 002.445.285l.095-.814.814-.096a1.23 1.23 0 10-.286-2.444l-1.189.139-5.966-5.967a1.23 1.23 0 00-1.74 1.74l5.966 5.967z"/></svg><svg viewBox="0 0 31 41" id="logo" xmlns="http://www.w3.org/2000/svg"><path fill-rule="evenodd" clip-rule="evenodd" d="M23.37 4.88L8.146 14.22l.02 21.82-7.595-4.52.02-21.78L15.835.38l7.536 4.5zm0 15.58v6.56L8.165 36.06l7.594 4.52 15.149-9.04v-6.58l-7.536-4.5zm0-15.58v6.56L8.165 20.48 15.758 25l15.149-9.04V9.38l-7.536-4.5z"/></svg><svg fill="none" viewBox="0 0 303 24" id="logo-text" xmlns="http://www.w3.org/2000/svg"><path d="M.992 1.3h11.236v3.72H4.344v18.46H.992V1.3zm26.481 22.18h-3.642l-1.452-5.04h-6.626l-1.375 5.04h-3.545l6.47-22.18h3.545l6.645 22.18h-.02zm-6.16-8.78l-2.286-8.22-2.247 8.22h4.533zM31.62 7.34l-3.255-1.02C29.063 2.7 31.058.9 34.35.9c1.957 0 3.41.58 4.417 1.72.988 1.14 1.492 2.48 1.492 4.04 0 1.06-.233 2.02-.678 2.86-.446.86-1.124 1.6-2.034 2.24 1.104.5 1.937 1.22 2.48 2.14.542.92.832 2.06.832 3.42 0 1.94-.542 3.52-1.608 4.72-1.065 1.2-2.673 1.8-4.784 1.8-1.744 0-3.1-.38-4.107-1.16-1.008-.76-1.763-2.22-2.267-4.34L31.154 17c.31 1.34.736 2.2 1.26 2.58.522.4 1.161.58 1.936.58 1.047 0 1.821-.3 2.306-.92.484-.6.716-1.3.716-2.1 0-.9-.27-1.64-.813-2.2-.543-.56-1.376-.84-2.48-.84h-.755v-3.34h.387c1.027 0 1.821-.3 2.344-.92.542-.62.814-1.44.814-2.44 0-.82-.213-1.5-.659-2.04-.445-.56-1.065-.84-1.898-.84-1.395 0-2.306.92-2.693 2.78v.04zm12.204-6.06h13.192v22.18h-3.35V5h-6.49v18.46h-3.352V1.28zm16.621 22.18V1.28h5.366c2.034 0 3.37.12 3.99.34.95.34 1.744 1.06 2.383 2.16.64 1.12.97 2.56.97 4.32 0 1.36-.195 2.5-.563 3.44-.368.92-.833 1.66-1.414 2.18-.562.52-1.143.88-1.743 1.04-.795.22-1.957.32-3.468.32h-2.189v8.36h-3.351l.02.02zm3.351-18.42v6.28h1.84c1.318 0 2.21-.12 2.655-.34.445-.24.794-.6 1.046-1.08.252-.5.387-1.06.387-1.72 0-.8-.174-1.48-.542-2-.349-.52-.794-.86-1.337-.98-.407-.1-1.2-.14-2.402-.14h-1.627l-.02-.02zm11.12 7.48c0-2.26.252-4.16.755-5.68.388-1.12.892-2.14 1.55-3.04.659-.9 1.376-1.56 2.15-2 1.027-.58 2.228-.88 3.584-.88 2.441 0 4.398 1.02 5.87 3.04 1.472 2.02 2.208 4.84 2.208 8.46 0 3.58-.736 6.38-2.189 8.4-1.453 2.02-3.41 3.04-5.83 3.04-2.46 0-4.437-1-5.89-3.02-1.453-2.02-2.189-4.78-2.189-8.32h-.019zm3.448-.14c0 2.5.446 4.42 1.298 5.7.872 1.3 1.976 1.94 3.313 1.94 1.336 0 2.421-.64 3.293-1.94.852-1.28 1.278-3.22 1.278-5.78 0-2.54-.426-4.44-1.24-5.68-.832-1.24-1.937-1.88-3.331-1.88-1.376 0-2.5.64-3.332 1.9-.833 1.26-1.26 3.16-1.26 5.72l-.019.02zm15.265 11.1V1.3h12.301v3.76h-8.95v4.92h8.33v3.74h-8.33v6.04h9.26v3.74h-12.61v-.02zM109.145 1.3h3.351v9.44c.756-.1 1.259-.36 1.511-.76.271-.42.678-1.56 1.221-3.44.697-2.4 1.394-3.9 2.092-4.48.697-.58 1.821-.88 3.351-.88.078 0 .233 0 .484-.02v3.3l-.484-.02c-.678 0-1.182.12-1.511.34-.31.22-.581.58-.775 1.04-.193.46-.484 1.42-.871 2.86-.214.76-.427 1.4-.659 1.92-.233.52-.659 1-1.259 1.46.755.28 1.356.86 1.859 1.7.485.86 1.027 2.08 1.608 3.62l2.267 6.08h-3.933l-1.976-5.74c-.038-.08-.096-.24-.193-.48-.039-.08-.175-.42-.427-1.04-.426-1.08-.774-1.78-1.065-2.04-.271-.28-.697-.42-1.259-.42v9.72h-3.351V1.28l.019.02zm18.403 22.18V5.06h-4.92V1.3h13.192v3.76h-4.901v18.42h-3.371zM138.009 1.3h3.138v14.76l6.722-14.76h3.332v22.18h-3.138V9l-6.722 14.48h-3.351V1.3h.019zm16.621 22.18V1.3h3.351v8.72h6.567V1.3h3.352v22.18h-3.352v-9.7h-6.567v9.7h-3.351zM181.789 1.3v9.44c.562-.06.988-.34 1.259-.84.291-.5.678-1.62 1.182-3.38.659-2.3 1.337-3.78 2.034-4.42.697-.62 1.821-.94 3.429-.94.077 0 .232 0 .484-.02v3.3l-.484-.02c-.678 0-1.182.12-1.492.34-.31.22-.581.58-.775 1.04-.193.46-.484 1.42-.871 2.86-.213.76-.427 1.4-.659 1.92-.233.52-.659 1-1.259 1.46.755.3 1.356.86 1.859 1.72.485.86 1.027 2.06 1.608 3.62l2.267 6.08h-3.933l-1.995-5.74a2.69 2.69 0 00-.194-.48c-.058-.14-.193-.5-.406-1.04-.427-1.06-.775-1.74-1.047-2.02-.271-.3-.619-.44-1.007-.44v9.72h-3.274v-9.72c-.387 0-.716.14-.988.42-.271.28-.62.96-1.046 2.04-.232.6-.368.94-.426 1.04-.058.14-.136.3-.194.48l-1.995 5.74h-3.932l2.266-6.08c.562-1.5 1.085-2.7 1.589-3.58.503-.88 1.123-1.46 1.879-1.76-.601-.46-1.027-.94-1.26-1.44-.232-.5-.464-1.16-.678-1.92-.387-1.42-.658-2.36-.852-2.82-.194-.48-.445-.82-.775-1.06-.329-.24-.833-.36-1.569-.36-.097 0-.232 0-.426.02v-3.3c.252.02.407.02.484.02 1.627 0 2.77.32 3.468.94.678.64 1.336 2.12 1.995 4.4.523 1.78.911 2.9 1.201 3.4.291.48.698.76 1.259.82V1.3h3.274zm10.577 0h3.138v14.76l6.722-14.76h3.332v22.18h-3.138V9l-6.722 14.48h-3.351V1.3h.019zm16.621 22.18V1.3h3.351v8.72h6.568V1.3h3.351v22.18h-3.351v-9.7h-6.568v9.7h-3.351zM225.763 1.3h3.138v14.76l6.722-14.76h3.332v22.18h-3.138V9l-6.722 14.48h-3.351V1.3h.019zm16.621 22.18V1.3h5.366c2.034 0 3.371.12 3.991.34.949.34 1.743 1.06 2.382 2.16.64 1.12.969 2.56.969 4.32 0 1.36-.194 2.5-.562 3.44-.368.92-.833 1.66-1.414 2.18-.562.52-1.143.88-1.743 1.04-.795.22-1.957.32-3.468.32h-2.189v8.36h-3.351l.019.02zm3.351-18.42v6.28h1.841c1.317 0 2.208-.12 2.654-.34.445-.24.794-.6 1.046-1.08.252-.5.387-1.06.387-1.72 0-.8-.174-1.48-.542-2-.349-.52-.794-.86-1.337-.98-.407-.1-1.201-.14-2.402-.14h-1.627l-.02-.02zm12.147-3.76h3.138v14.76l6.722-14.76h3.332v22.18h-3.138V9l-6.722 14.48h-3.352V1.3h.02zm16.621 22.18V1.3h3.351v8.72h6.567V1.3h3.351v22.18h-3.351v-9.7h-6.567v9.7h-3.351zM291.395 1.3h11.235v3.72h-7.884v18.46h-3.351V1.3z" fill="#06416A" stroke="#06416A" stroke-width=".076"/></svg><svg fill="none" viewBox="0 0 36 26" id="quotes" xmlns="http://www.w3.org/2000/svg"><path d="M36 10.429h-7.714L33.429.143h-7.715L20.571 10.43v15.428H36V10.43zM15.428 25.857V10.43H7.713L12.856.143H5.142L0 10.43v15.428h15.429z" fill="#fff"/></svg><svg viewBox="0 0 16 17" id="search" xmlns="http://www.w3.org/2000/svg"><path d="M15.848 15.82l-4.13-4.064a6.534 6.534 0 001.746-4.44c0-3.659-3.014-6.625-6.732-6.625C3.014.691 0 3.657 0 7.316s3.014 6.625 6.732 6.625a6.77 6.77 0 004.237-1.48l4.147 4.081c.202.2.53.2.732 0a.504.504 0 000-.721zm-9.116-2.899c-3.146 0-5.696-2.51-5.696-5.605 0-3.096 2.55-5.605 5.696-5.605 3.145 0 5.695 2.51 5.695 5.605 0 3.096-2.55 5.605-5.695 5.605z"/></svg><svg viewBox="0 0 42 42" id="security-systems" xmlns="http://www.w3.org/2000/svg"><path d="M40.77 29.695H12.305V1.23c0-.68-.551-1.23-1.23-1.23H1.23C.55 0 0 .55 0 1.23v39.54C0 41.45.55 42 1.23 42h39.54c.68 0 1.23-.55 1.23-1.23v-9.844c0-.68-.55-1.23-1.23-1.23zm-1.23 9.844H2.46V2.461h7.384v2.625H7.793a1.23 1.23 0 100 2.46h2.05v2.462h-1.23a1.23 1.23 0 100 2.46h1.23v2.462h-2.05a1.23 1.23 0 100 2.46h2.05v2.462h-1.23a1.23 1.23 0 100 2.46h1.23v2.461h-2.05a1.23 1.23 0 100 2.461h2.05v2.461h-1.23a1.23 1.23 0 100 2.461h1.23v1.23a1.23 1.23 0 102.462 0v-1.23h2.46v2.051a1.23 1.23 0 102.462 0v-2.05h2.46v1.23a1.23 1.23 0 102.461 0v-1.23h2.461v2.05a1.23 1.23 0 102.461 0v-2.05h2.461v1.23a1.23 1.23 0 102.461 0v-1.23h2.461v2.05a1.23 1.23 0 102.461 0v-2.05h2.625v7.382z"/><path d="M36.53 10.05L29.147 5.13a1.23 1.23 0 00-1.365 0L20.4 10.05a1.23 1.23 0 00-.547 1.024v9.844c0 .68.55 1.23 1.23 1.23h14.766c.679 0 1.23-.55 1.23-1.23v-9.844a1.23 1.23 0 00-.548-1.024zm-6.835 9.637h-2.46v-4.101h2.46v4.101zm4.922 0h-2.46v-5.332c0-.68-.552-1.23-1.231-1.23h-4.922c-.68 0-1.23.55-1.23 1.23v5.332h-2.462v-7.954l6.153-4.102 6.152 4.102v7.954z"/><path d="M40.77 0H16.16c-.68 0-1.23.55-1.23 1.23v24.61c0 .68.55 1.23 1.23 1.23h24.61c.68 0 1.23-.55 1.23-1.23V1.23C42 .55 41.45 0 40.77 0zm-1.23 24.61H17.39V2.46h22.15v22.15z"/></svg><svg viewBox="0 0 42 42" id="tech-objects" xmlns="http://www.w3.org/2000/svg"><path d="M35.848 5.086c-.68 0-1.23.55-1.23 1.23v3.692h-5.825V2.87A2.874 2.874 0 0025.922 0h-1.64a2.874 2.874 0 00-2.872 2.871v7.137H7.383V6.316c0-.68-.551-1.23-1.23-1.23A6.16 6.16 0 000 11.238v24.61A6.16 6.16 0 006.152 42h29.696A6.16 6.16 0 0042 35.848v-24.61a6.16 6.16 0 00-6.152-6.152zM23.87 2.87a.41.41 0 01.41-.41h1.64a.41.41 0 01.411.41v18.457h-2.46V2.871zm0 20.918h2.461v1.76l-1.23 2.461-1.23-2.46v-1.76zM21.54 26.39l2.331 4.662v1.104h-9.023V19.852h6.562v5.988c0 .19.045.38.13.55zM2.46 11.238a3.698 3.698 0 012.462-3.48v22.06a6.132 6.132 0 00-2.461 1.11v-19.69zM35.849 39.54H6.152a3.696 3.696 0 01-3.691-3.691 3.696 3.696 0 013.691-3.692c.68 0 1.23-.55 1.23-1.23V12.469H21.41v4.922h-6.562v-1.23a1.23 1.23 0 00-2.461 0v1.23h-1.23a1.23 1.23 0 000 2.46h1.23v12.305h-1.23a1.23 1.23 0 000 2.461h1.23v1.23a1.23 1.23 0 002.46 0v-1.23h10.255c.68 0 1.23-.55 1.23-1.23v-2.335l2.331-4.662c.086-.17.13-.36.13-.55v-5.988h2.05a1.23 1.23 0 000-2.461h-2.05v-4.922h5.824v18.457c0 .68.551 1.23 1.23 1.23a3.696 3.696 0 013.692 3.692 3.696 3.696 0 01-3.691 3.691zm3.691-8.61a6.131 6.131 0 00-2.46-1.11V7.758a3.698 3.698 0 012.46 3.48v19.69z"/></svg><svg viewBox="0 0 42 42" id="technical-support" xmlns="http://www.w3.org/2000/svg"><g clip-path="url(#kclip0_206_1017)"><path d="M24.898 14.175a1.23 1.23 0 00-1.835.89l-.668 4.622h-2.79l-.668-4.623a1.23 1.23 0 00-1.835-.889 7.819 7.819 0 00-3.895 6.743 7.73 7.73 0 003.691 6.62v13.231c0 .68.551 1.23 1.23 1.23h5.743c.68 0 1.23-.55 1.23-1.23V27.538a7.73 7.73 0 003.692-6.62 7.819 7.819 0 00-3.895-6.742zm-1.567 11.531a1.23 1.23 0 00-.69 1.106v12.727h-3.282V26.812c0-.47-.268-.9-.69-1.106a5.297 5.297 0 01-3.001-4.788c0-1.211.419-2.371 1.151-3.299l.502 3.474a1.23 1.23 0 001.218 1.055h4.922c.612 0 1.13-.45 1.218-1.055l.502-3.474a5.33 5.33 0 011.151 3.299c0 2.05-1.15 3.885-3 4.788z"/><path d="M40.929 16.43l-3.062-.612a17.509 17.509 0 00-1.334-3.22L38.265 10a1.23 1.23 0 00-.154-1.553l-4.64-4.64a1.23 1.23 0 00-1.553-.154L29.32 5.385A17.515 17.515 0 0026.1 4.05L25.488.99A1.23 1.23 0 0024.28 0H17.72a1.23 1.23 0 00-1.207.99L15.9 4.05a17.521 17.521 0 00-3.22 1.334l-2.598-1.732a1.23 1.23 0 00-1.553.154l-4.64 4.64A1.23 1.23 0 003.735 10l1.732 2.598a17.513 17.513 0 00-1.334 3.22l-3.062.612a1.23 1.23 0 00-.989 1.207v6.562c0 .587.414 1.092.99 1.207l3.061.612a17.512 17.512 0 001.334 3.22l-1.732 2.598a1.23 1.23 0 00.154 1.553l4.64 4.64a1.23 1.23 0 001.553.154l3.227-2.151a1.23 1.23 0 00.548-1.024v-6.246c0-.313-.12-.614-.334-.842a10.19 10.19 0 01-2.777-7.002c0-5.654 4.6-10.254 10.254-10.254s10.254 4.6 10.254 10.254c0 2.609-.986 5.096-2.777 7.002a1.23 1.23 0 00-.334.842v6.246c0 .411.206.795.548 1.024l3.228 2.151a1.227 1.227 0 001.552-.154l4.64-4.64a1.23 1.23 0 00.154-1.553l-1.732-2.598a17.52 17.52 0 001.334-3.22l3.062-.612c.575-.115.989-.62.989-1.207v-6.562a1.23 1.23 0 00-.99-1.207zm-1.472 6.76l-2.815.563a1.23 1.23 0 00-.95.904 15.06 15.06 0 01-1.66 4.005 1.23 1.23 0 00.034 1.312l1.592 2.388-3.214 3.214-1.84-1.227v-5.113a12.637 12.637 0 003.11-8.318c0-7.011-5.703-12.715-12.714-12.715S8.285 13.907 8.285 20.918c0 3.072 1.101 6.006 3.11 8.317v5.114l-1.84 1.227-3.213-3.214 1.592-2.388a1.23 1.23 0 00.033-1.312 15.06 15.06 0 01-1.658-4.005 1.23 1.23 0 00-.952-.904l-2.814-.563v-4.545l2.815-.562a1.23 1.23 0 00.95-.904 15.059 15.059 0 011.66-4.005 1.23 1.23 0 00-.034-1.312L6.342 9.474 9.556 6.26l2.388 1.592a1.23 1.23 0 001.312.033 15.064 15.064 0 014.005-1.658c.46-.117.81-.487.904-.951l.563-2.815h4.544l.563 2.815c.093.464.445.834.904.95 1.412.36 2.76.917 4.005 1.66.407.242.918.229 1.312-.034l2.388-1.592 3.214 3.214-1.592 2.388a1.23 1.23 0 00-.033 1.312 15.057 15.057 0 011.658 4.005c.117.46.487.81.951.904l2.815.563v4.544z"/></g><defs><clipPath id="kclip0_206_1017"><path fill="#fff" d="M0 0h42v42H0z"/></clipPath></defs></svg><svg viewBox="0 0 20 20" id="zoom-in" xmlns="http://www.w3.org/2000/svg"><g clip-path="url(#lclip0_685_2782)"><path d="M19.755 18.578l-4.974-4.974a8.346 8.346 0 10-1.178 1.178l4.974 4.974a.833.833 0 001.178-1.178zM8.333 15a6.667 6.667 0 116.666-6.666A6.674 6.674 0 018.333 15z"/><path d="M10.833 7.5H9.167V5.833a.833.833 0 00-1.667 0V7.5H5.833a.833.833 0 000 1.667H7.5v1.666a.833.833 0 001.667 0V9.167h1.666a.833.833 0 000-1.667z"/></g><defs><clipPath id="lclip0_685_2782"><path d="M0 0h20v20H0z"/></clipPath></defs></svg></svg>