<?xml version="1.0" encoding="utf-8"?><svg viewBox="0 0 303 50" xmlns="http://www.w3.org/2000/svg" xmlns:xlink="http://www.w3.org/1999/xlink"><style>:root>svg{display:none}:root>svg:target{display:block}</style><svg viewBox="0 0 24 24" id="arrow-rtl" xmlns="http://www.w3.org/2000/svg"><path d="M9.6 2.4l1.68 1.68-6.72 6.72H24v2.4H4.56l6.72 6.72L9.6 21.6 0 12l9.6-9.6z"/></svg><svg viewBox="0 0 42 42" id="construction" xmlns="http://www.w3.org/2000/svg"><path d="M40.77 29.695H12.305V1.23c0-.68-.551-1.23-1.23-1.23H1.23C.55 0 0 .55 0 1.23v39.54C0 41.45.55 42 1.23 42h39.54c.68 0 1.23-.55 1.23-1.23v-9.844c0-.68-.55-1.23-1.23-1.23zm-1.23 9.844H2.46V2.461h7.384v2.625H7.793a1.23 1.23 0 100 2.46h2.05v2.462h-1.23a1.23 1.23 0 100 2.46h1.23v2.462h-2.05a1.23 1.23 0 100 2.46h2.05v2.462h-1.23a1.23 1.23 0 100 2.46h1.23v2.461h-2.05a1.23 1.23 0 100 2.461h2.05v2.461h-1.23a1.23 1.23 0 100 2.461h1.23v1.23a1.23 1.23 0 102.462 0v-1.23h2.46v2.051a1.23 1.23 0 102.462 0v-2.05h2.46v1.23a1.23 1.23 0 102.461 0v-1.23h2.461v2.05a1.23 1.23 0 102.461 0v-2.05h2.461v1.23a1.23 1.23 0 102.461 0v-1.23h2.461v2.05a1.23 1.23 0 102.461 0v-2.05h2.625v7.382z"/><path d="M36.53 10.05L29.147 5.13a1.23 1.23 0 00-1.365 0L20.4 10.05a1.23 1.23 0 00-.547 1.024v9.844c0 .68.55 1.23 1.23 1.23h14.766c.679 0 1.23-.55 1.23-1.23v-9.844a1.23 1.23 0 00-.548-1.024zm-6.835 9.637h-2.46v-4.101h2.46v4.101zm4.922 0h-2.46v-5.332c0-.68-.552-1.23-1.231-1.23h-4.922c-.68 0-1.23.55-1.23 1.23v5.332h-2.462v-7.954l6.153-4.102 6.152 4.102v7.954z"/><path d="M40.77 0H16.16c-.68 0-1.23.55-1.23 1.23v24.61c0 .68.55 1.23 1.23 1.23h24.61c.68 0 1.23-.55 1.23-1.23V1.23C42 .55 41.45 0 40.77 0zm-1.23 24.61H17.39V2.46h22.15v22.15z"/></svg><svg viewBox="0 0 42 42" id="digital-engineering" xmlns="http://www.w3.org/2000/svg"><path d="M28.383 14.766a1.23 1.23 0 100-2.461 1.23 1.23 0 000 2.46z"/><path d="M35.766 12.305H34.41a6.12 6.12 0 00-.898-2.16l.96-.96a1.23 1.23 0 00-1.74-1.74l-.96.96a6.115 6.115 0 00-2.16-.898V6.152a1.23 1.23 0 00-2.46 0v1.355c-.785.16-1.515.47-2.16.898l-.96-.96a1.23 1.23 0 00-1.74 1.74l.96.96a6.116 6.116 0 00-.899 2.16H21a1.23 1.23 0 000 2.46h1.354c.16.785.47 1.515.898 2.16l-.96.96a1.23 1.23 0 101.74 1.74l.96-.96a6.115 6.115 0 002.16.899v1.354a1.23 1.23 0 002.461 0v-1.354a6.116 6.116 0 002.16-.898l.96.96a1.227 1.227 0 001.74 0c.48-.48.48-1.26 0-1.74l-.96-.96a6.114 6.114 0 00.898-2.16h1.355a1.23 1.23 0 100-2.461zm-7.383 4.922a3.696 3.696 0 01-3.692-3.692 3.696 3.696 0 013.692-3.691 3.696 3.696 0 013.691 3.691 3.696 3.696 0 01-3.691 3.692z"/><path d="M37.488 0H4.512A4.517 4.517 0 000 4.512V27.48a4.517 4.517 0 004.512 4.512h9.947l-.993 3.576a3.697 3.697 0 00-2.72 3.56v1.642c0 .68.551 1.23 1.23 1.23h18.047c.68 0 1.23-.55 1.23-1.23v-1.641c0-1.7-1.154-3.133-2.719-3.56l-.993-3.577h9.947A4.517 4.517 0 0042 27.48V4.512A4.517 4.517 0 0037.488 0zm-9.925 37.898c.678 0 1.23.552 1.23 1.23v.411H13.207v-.41c0-.679.552-1.23 1.23-1.23h13.126zm-11.507-2.46l.957-3.446h7.974l.957 3.445h-9.888zM39.54 27.48c0 1.131-.92 2.051-2.05 2.051H4.511c-1.131 0-2.051-.92-2.051-2.05v-.41h37.078v.41zm0-2.87H19.77v-3.692a1.23 1.23 0 10-2.46 0v3.691h-2.461V14.355a1.23 1.23 0 00-2.461 0V24.61H9.926V10.764l.36.36a1.227 1.227 0 001.74 0c.48-.48.48-1.26 0-1.74l-2.46-2.461a1.23 1.23 0 00-1.74 0l-2.462 2.46a1.23 1.23 0 101.74 1.74l.36-.36V24.61H2.462V4.512c0-1.131.92-2.051 2.05-2.051h32.977c1.131 0 2.051.92 2.051 2.05V24.61z"/></svg><svg viewBox="0 0 42 42" id="gas-facilities" xmlns="http://www.w3.org/2000/svg"><path d="M40.77 32.977H30.26v-.329c0-.68-.552-1.23-1.231-1.23h-3.445v-4.825c5.297-1.892 9.1-6.96 9.1-12.9C34.683 6.144 28.54 0 20.99 0 13.44 0 7.296 6.143 7.296 13.694c0 5.94 3.802 11.007 9.1 12.9v4.824h-3.445c-.68 0-1.23.55-1.23 1.23v.329H1.23c-.68 0-1.231.55-1.231 1.23v5.004c0 .68.55 1.23 1.23 1.23h10.49v.328c0 .68.551 1.231 1.23 1.231H29.03c.68 0 1.23-.55 1.23-1.23v-.329h10.51c.68 0 1.231-.55 1.231-1.23v-5.004c0-.68-.55-1.23-1.23-1.23zM9.825 14.924h.372a1.23 1.23 0 100-2.46h-.372a11.18 11.18 0 012.404-5.791l.26.26a1.227 1.227 0 001.74 0c.48-.481.48-1.26 0-1.741l-.26-.26a11.18 11.18 0 015.79-2.403V2.9a1.23 1.23 0 102.461 0v-.372a11.18 11.18 0 015.79 2.404l-.259.259a1.23 1.23 0 001.74 1.74l.26-.26a11.18 11.18 0 012.404 5.791h-.373a1.23 1.23 0 000 2.461h.373a11.18 11.18 0 01-2.404 5.79l-.26-.259a1.23 1.23 0 00-1.74 1.74l.26.26a11.18 11.18 0 01-5.79 2.403v-.372a1.23 1.23 0 00-2.462 0v.372a11.18 11.18 0 01-5.79-2.403l.26-.26a1.23 1.23 0 00-1.741-1.74l-.26.26a11.182 11.182 0 01-2.403-5.791zm9.032 12.297a13.736 13.736 0 004.266 0v4.197h-4.266v-4.197zM2.461 37.98v-2.544h9.26v2.544H2.46zm11.72 1.558v-5.66h13.591c-.029.105.026 5.66.026 5.66H14.181zM39.54 37.98h-9.28v-2.542h9.28v2.542z"/><path d="M22.5 16.943l-.14 1.19a1.23 1.23 0 002.445.285l.095-.814.814-.096a1.23 1.23 0 10-.286-2.444l-1.189.139-5.966-5.967a1.23 1.23 0 00-1.74 1.74l5.966 5.967z"/></svg><svg viewBox="0 0 31 41" id="logo" xmlns="http://www.w3.org/2000/svg"><path fill-rule="evenodd" clip-rule="evenodd" d="M23.37 4.88L8.146 14.22l.02 21.82-7.595-4.52.02-21.78L15.835.38l7.536 4.5zm0 15.58v6.56L8.165 36.06l7.594 4.52 15.149-9.04v-6.58l-7.536-4.5zm0-15.58v6.56L8.165 20.48 15.758 25l15.149-9.04V9.38l-7.536-4.5z"/></svg><svg viewBox="0 0 303 24" id="logo-text" xmlns="http://www.w3.org/2000/svg"><path d="M.992 1.3h11.236v3.72H4.344v18.46H.992V1.3zm26.481 22.18h-3.642l-1.452-5.04h-6.626l-1.375 5.04h-3.545l6.47-22.18h3.545l6.645 22.18h-.02zm-6.16-8.78l-2.286-8.22-2.247 8.22h4.533zM31.62 7.34l-3.255-1.02C29.063 2.7 31.058.9 34.35.9c1.957 0 3.41.58 4.417 1.72.988 1.14 1.492 2.48 1.492 4.04 0 1.06-.233 2.02-.678 2.86-.446.86-1.124 1.6-2.034 2.24 1.104.5 1.937 1.22 2.48 2.14.542.92.832 2.06.832 3.42 0 1.94-.542 3.52-1.608 4.72-1.065 1.2-2.673 1.8-4.784 1.8-1.744 0-3.1-.38-4.107-1.16-1.008-.76-1.763-2.22-2.267-4.34L31.154 17c.31 1.34.736 2.2 1.26 2.58.522.4 1.161.58 1.936.58 1.047 0 1.821-.3 2.306-.92.484-.6.716-1.3.716-2.1 0-.9-.27-1.64-.813-2.2-.543-.56-1.376-.84-2.48-.84h-.755v-3.34h.387c1.027 0 1.821-.3 2.344-.92.542-.62.814-1.44.814-2.44 0-.82-.213-1.5-.659-2.04-.445-.56-1.065-.84-1.898-.84-1.395 0-2.306.92-2.693 2.78v.04zm12.204-6.06h13.192v22.18h-3.35V5h-6.49v18.46h-3.352V1.28zm16.621 22.18V1.28h5.366c2.034 0 3.37.12 3.99.34.95.34 1.744 1.06 2.383 2.16.64 1.12.97 2.56.97 4.32 0 1.36-.195 2.5-.563 3.44-.368.92-.833 1.66-1.414 2.18-.562.52-1.143.88-1.743 1.04-.795.22-1.957.32-3.468.32h-2.189v8.36h-3.351l.02.02zm3.351-18.42v6.28h1.84c1.318 0 2.21-.12 2.655-.34.445-.24.794-.6 1.046-1.08.252-.5.387-1.06.387-1.72 0-.8-.174-1.48-.542-2-.349-.52-.794-.86-1.337-.98-.407-.1-1.2-.14-2.402-.14h-1.627l-.02-.02zm11.12 7.48c0-2.26.252-4.16.755-5.68.388-1.12.892-2.14 1.55-3.04.659-.9 1.376-1.56 2.15-2 1.027-.58 2.228-.88 3.584-.88 2.441 0 4.398 1.02 5.87 3.04 1.472 2.02 2.208 4.84 2.208 8.46 0 3.58-.736 6.38-2.189 8.4-1.453 2.02-3.41 3.04-5.83 3.04-2.46 0-4.437-1-5.89-3.02-1.453-2.02-2.189-4.78-2.189-8.32h-.019zm3.448-.14c0 2.5.446 4.42 1.298 5.7.872 1.3 1.976 1.94 3.313 1.94 1.336 0 2.421-.64 3.293-1.94.852-1.28 1.278-3.22 1.278-5.78 0-2.54-.426-4.44-1.24-5.68-.832-1.24-1.937-1.88-3.331-1.88-1.376 0-2.5.64-3.332 1.9-.833 1.26-1.26 3.16-1.26 5.72l-.019.02zm15.265 11.1V1.3h12.301v3.76h-8.95v4.92h8.33v3.74h-8.33v6.04h9.26v3.74h-12.61v-.02zM109.145 1.3h3.351v9.44c.756-.1 1.259-.36 1.511-.76.271-.42.678-1.56 1.221-3.44.697-2.4 1.394-3.9 2.092-4.48.697-.58 1.821-.88 3.351-.88.078 0 .233 0 .484-.02v3.3l-.484-.02c-.678 0-1.182.12-1.511.34-.31.22-.581.58-.775 1.04-.193.46-.484 1.42-.871 2.86-.214.76-.427 1.4-.659 1.92-.233.52-.659 1-1.259 1.46.755.28 1.356.86 1.859 1.7.485.86 1.027 2.08 1.608 3.62l2.267 6.08h-3.933l-1.976-5.74c-.038-.08-.096-.24-.193-.48-.039-.08-.175-.42-.427-1.04-.426-1.08-.774-1.78-1.065-2.04-.271-.28-.697-.42-1.259-.42v9.72h-3.351V1.28l.019.02zm18.403 22.18V5.06h-4.92V1.3h13.192v3.76h-4.901v18.42h-3.371zM138.009 1.3h3.138v14.76l6.722-14.76h3.332v22.18h-3.138V9l-6.722 14.48h-3.351V1.3h.019zm16.621 22.18V1.3h3.351v8.72h6.567V1.3h3.352v22.18h-3.352v-9.7h-6.567v9.7h-3.351zM181.789 1.3v9.44c.562-.06.988-.34 1.259-.84.291-.5.678-1.62 1.182-3.38.659-2.3 1.337-3.78 2.034-4.42.697-.62 1.821-.94 3.429-.94.077 0 .232 0 .484-.02v3.3l-.484-.02c-.678 0-1.182.12-1.492.34-.31.22-.581.58-.775 1.04-.193.46-.484 1.42-.871 2.86-.213.76-.427 1.4-.659 1.92-.233.52-.659 1-1.259 1.46.755.3 1.356.86 1.859 1.72.485.86 1.027 2.06 1.608 3.62l2.267 6.08h-3.933l-1.995-5.74a2.69 2.69 0 00-.194-.48c-.058-.14-.193-.5-.406-1.04-.427-1.06-.775-1.74-1.047-2.02-.271-.3-.619-.44-1.007-.44v9.72h-3.274v-9.72c-.387 0-.716.14-.988.42-.271.28-.62.96-1.046 2.04-.232.6-.368.94-.426 1.04-.058.14-.136.3-.194.48l-1.995 5.74h-3.932l2.266-6.08c.562-1.5 1.085-2.7 1.589-3.58.503-.88 1.123-1.46 1.879-1.76-.601-.46-1.027-.94-1.26-1.44-.232-.5-.464-1.16-.678-1.92-.387-1.42-.658-2.36-.852-2.82-.194-.48-.445-.82-.775-1.06-.329-.24-.833-.36-1.569-.36-.097 0-.232 0-.426.02v-3.3c.252.02.407.02.484.02 1.627 0 2.77.32 3.468.94.678.64 1.336 2.12 1.995 4.4.523 1.78.911 2.9 1.201 3.4.291.48.698.76 1.259.82V1.3h3.274zm10.577 0h3.138v14.76l6.722-14.76h3.332v22.18h-3.138V9l-6.722 14.48h-3.351V1.3h.019zm16.621 22.18V1.3h3.351v8.72h6.568V1.3h3.351v22.18h-3.351v-9.7h-6.568v9.7h-3.351zM225.763 1.3h3.138v14.76l6.722-14.76h3.332v22.18h-3.138V9l-6.722 14.48h-3.351V1.3h.019zm16.621 22.18V1.3h5.366c2.034 0 3.371.12 3.991.34.949.34 1.743 1.06 2.382 2.16.64 1.12.969 2.56.969 4.32 0 1.36-.194 2.5-.562 3.44-.368.92-.833 1.66-1.414 2.18-.562.52-1.143.88-1.743 1.04-.795.22-1.957.32-3.468.32h-2.189v8.36h-3.351l.019.02zm3.351-18.42v6.28h1.841c1.317 0 2.208-.12 2.654-.34.445-.24.794-.6 1.046-1.08.252-.5.387-1.06.387-1.72 0-.8-.174-1.48-.542-2-.349-.52-.794-.86-1.337-.98-.407-.1-1.201-.14-2.402-.14h-1.627l-.02-.02zm12.147-3.76h3.138v14.76l6.722-14.76h3.332v22.18h-3.138V9l-6.722 14.48h-3.352V1.3h.02zm16.621 22.18V1.3h3.351v8.72h6.567V1.3h3.351v22.18h-3.351v-9.7h-6.567v9.7h-3.351zM291.395 1.3h11.235v3.72h-7.884v18.46h-3.351V1.3z"/></svg><svg fill="none" viewBox="0 0 12 22" id="project-nav-arrow" xmlns="http://www.w3.org/2000/svg"><path d="M11 1L2.414 9.586a2 2 0 000 2.828L11 21" stroke="#06416A" stroke-width="2"/></svg><svg fill="none" viewBox="0 0 36 26" id="quotes" xmlns="http://www.w3.org/2000/svg"><path d="M36 10.429h-7.714L33.429.143h-7.715L20.571 10.43v15.428H36V10.43zM15.428 25.857V10.43H7.713L12.856.143H5.142L0 10.43v15.428h15.429z" fill="#fff"/></svg><svg viewBox="0 0 16 17" id="search" xmlns="http://www.w3.org/2000/svg"><path d="M15.848 15.82l-4.13-4.064a6.534 6.534 0 001.746-4.44c0-3.659-3.014-6.625-6.732-6.625C3.014.691 0 3.657 0 7.316s3.014 6.625 6.732 6.625a6.77 6.77 0 004.237-1.48l4.147 4.081c.202.2.53.2.732 0a.504.504 0 000-.721zm-9.116-2.899c-3.146 0-5.696-2.51-5.696-5.605 0-3.096 2.55-5.605 5.696-5.605 3.145 0 5.695 2.51 5.695 5.605 0 3.096-2.55 5.605-5.695 5.605z"/></svg><svg fill="none" viewBox="0 0 42 42" id="security-systems" xmlns="http://www.w3.org/2000/svg"><g clip-path="url(#ajclip0_2_167)" fill="#06416A"><path d="M41.574 28.438L38.4 25.7l2.03-1.042c.787-.405.9-1.483.221-2.043L15.387 1.752a3.673 3.673 0 00-4.96.24l-8.957 8.98a3.704 3.704 0 00.283 5.484l8.173 6.65v7.412H2.46v-2.05a1.23 1.23 0 00-2.461 0v11.564a1.23 1.23 0 002.46 0V37.9h9.927a4.927 4.927 0 004.922-4.922v-3.866l4.965 4.04c.38.31.905.364 1.339.14l2.25-1.155 6.74 5.563a1.23 1.23 0 001.654-.078l7.383-7.383a1.23 1.23 0 00-.066-1.8zM12.17 3.73a1.222 1.222 0 011.65-.08l23.823 19.674-7.766 3.988c-.172-.32 1.254.904-22.644-18.631l4.937-4.95zm2.678 29.25a2.464 2.464 0 01-2.461 2.46H2.46v-2.46h8.695c.68 0 1.23-.551 1.23-1.23v-6.641l2.462 2.002v5.869zm8.356-2.242L3.307 14.547a1.24 1.24 0 01-.095-1.837l2.274-2.28L27.58 28.49l-4.375 2.247zm10.104 4.354l-5.061-4.178 7.791-4 2.925 2.523-5.655 5.655z"/><path d="M32.074 21.906a1.23 1.23 0 11-2.461 0 1.23 1.23 0 012.46 0z"/></g><defs><clipPath id="ajclip0_2_167"><path fill="#fff" d="M0 0h42v42H0z"/></clipPath></defs></svg><svg fill="none" viewBox="0 0 42 42" id="srvc-admin-building" xmlns="http://www.w3.org/2000/svg"><g clip-path="url(#akclip0_39_9939)" stroke="#06416A" stroke-width="2.461" stroke-miterlimit="10"><path d="M38.811 30.492H9.327a.042.042 0 00-.042.042v10.202c0 .023.019.042.042.042h29.484a.042.042 0 00.042-.042V30.534a.042.042 0 00-.042-.042z"/><path d="M9.25 25.885H3.187a.042.042 0 00-.042.042v14.809c0 .023.02.042.042.042H9.25a.042.042 0 00.042-.042v-14.81a.042.042 0 00-.042-.041zM13.855 6.12v24.33c0 .023.02.042.043.042H33.72a.042.042 0 00.043-.042V6.12a.042.042 0 00-.043-.043H13.898a.042.042 0 00-.043.042z"/><path d="M35.851 1.26v29.19a.05.05 0 01-.05.046H18.48a.045.045 0 01-.036-.012.047.047 0 01-.015-.034V14.007a.037.037 0 010-.034L35.767 1.231a.05.05 0 01.084.029z" fill="#fff"/><path d="M31.055 13.184v12.562" stroke-linecap="round"/></g><defs><clipPath id="akclip0_39_9939"><path fill="#fff" d="M0 0h42v42H0z"/></clipPath></defs></svg><svg fill="none" viewBox="0 0 42 42" id="srvc-author-supervision" xmlns="http://www.w3.org/2000/svg"><g clip-path="url(#alclip0_73_14877)" stroke="#06416A" stroke-width="2.461" stroke-linecap="round" stroke-linejoin="round"><path d="M15.09 17.972H1.257v6.065H15.09v-6.065zM31.202 17.972H17.367v6.065h13.835v-6.065zM15.111 1.23H1.276v6.066h13.835V1.23zM31.223 1.23H17.387v6.066h13.834V1.23zM15.09 34.717H1.257v6.065H15.09v-6.065zM31.202 34.717H17.367v6.065h13.835v-6.065zM-1.024 26.347h6.917v6.064h-6.917M31.202 26.347h-6.918v6.064h6.918v-6.064zM31.202 9.601h-6.918v6.065h6.918V9.6zM22.009 26.347H8.174v6.064h13.835v-6.064zM-1.024 9.601h6.917v6.065h-6.917M22.009 9.601H8.174v6.065h13.835V9.6z"/><path d="M27.12 13.062a15.724 15.724 0 00-13.617 7.867 15.708 15.708 0 0027.228 0 15.713 15.713 0 00-13.612-7.867z" fill="#fff"/><path d="M27.12 24.49a3.457 3.457 0 100-6.913 3.457 3.457 0 000 6.913z"/></g><defs><clipPath id="alclip0_73_14877"><path fill="#fff" d="M0 0h42v42H0z"/></clipPath></defs></svg><svg fill="none" viewBox="0 0 42 42" id="srvc-auxiliary-production-facilities" xmlns="http://www.w3.org/2000/svg"><path d="M21 3.053l19.77 10.95v24.944h-5.356V17.53H6.585v21.416H1.23V14.003L21 3.053zM6.585 21h28.829M6.585 24.444h28.829" stroke="#06416A" stroke-width="2.461" stroke-linecap="round" stroke-linejoin="round"/><path d="M31.912 28.66H21.71a.042.042 0 00-.042.043v10.202c0 .023.019.042.042.042h10.202a.042.042 0 00.042-.042V28.703a.042.042 0 00-.042-.042z" stroke="#06416A" stroke-width="2.461" stroke-miterlimit="10"/><path d="M27.944 28.66H25.68a.042.042 0 00-.042.043v2.264c0 .023.018.042.042.042h2.264a.042.042 0 00.041-.042v-2.264a.042.042 0 00-.041-.042z" stroke="#06416A" stroke-width="2.461" stroke-miterlimit="10"/></svg><svg fill="none" viewBox="0 0 42 42" id="srvc-branch-pipelines" xmlns="http://www.w3.org/2000/svg"><path d="M14.41 18.144H1.23v5.708h13.18v-5.708zM27.59 18.144H14.41v5.708h13.18v-5.708z" stroke="#06416A" stroke-width="2.461" stroke-linecap="round" stroke-linejoin="round"/><path d="M40.769 18.144h-13.18v5.708h13.18v-5.708zM14.41 25.141V16.86M1.23 25.141V16.86M27.589 25.141V16.86M40.77 25.141V16.86M14.41 4.137H1.23v5.708h13.18V4.137zM27.59 4.137H14.41v5.708h13.18V4.137z" stroke="#06416A" stroke-width="2.461" stroke-linecap="round" stroke-linejoin="round"/><path d="M40.769 4.137h-13.18v5.708h13.18V4.137zM14.41 11.134V2.852M1.23 11.134V2.852M27.589 11.134V2.852M40.77 11.134V2.852M14.41 32.155H1.23v5.708h13.18v-5.708zM27.59 32.155H14.41v5.708h13.18v-5.708z" stroke="#06416A" stroke-width="2.461" stroke-linecap="round" stroke-linejoin="round"/><path d="M40.769 32.155h-13.18v5.708h13.18v-5.708zM14.41 39.148v-8.282M1.23 39.148v-8.282M27.589 39.148v-8.282M40.77 39.148v-8.282" stroke="#06416A" stroke-width="2.461" stroke-linecap="round" stroke-linejoin="round"/></svg><svg fill="none" viewBox="0 0 50 50" id="srvc-civil-defense" xmlns="http://www.w3.org/2000/svg"><g clip-path="url(#aoclip0_39_9955)" filter="url(#aofilter0_d_39_9955)" stroke="#06416A" stroke-width="2.461" stroke-miterlimit="10"><path d="M44.727 16.296H5.272a.042.042 0 00-.042.042v24.373c0 .023.02.042.042.042h39.455a.042.042 0 00.042-.042V16.338a.042.042 0 00-.042-.042zM25 16.296H5.26c-.033 0-.059 0-.042-.03l9.883-7.513 9.861-7.493a.08.08 0 01.076 0L34.9 8.753l9.865 7.514s0 .029-.042.029H25z"/><path d="M15.084 30.908h-4.62a.042.042 0 00-.042.042v4.62c0 .023.019.042.042.042h4.62a.042.042 0 00.042-.042v-4.62a.042.042 0 00-.042-.042zM15.084 21.668h-4.62a.042.042 0 00-.042.042v4.62c0 .023.019.042.042.042h4.62a.042.042 0 00.042-.042v-4.62a.042.042 0 00-.042-.042zM39.607 30.794h-4.62a.042.042 0 00-.042.042v4.62c0 .024.02.042.042.042h4.62a.042.042 0 00.042-.042v-4.62a.042.042 0 00-.042-.042zM39.607 21.554h-4.62a.042.042 0 00-.042.042v4.62c0 .023.02.042.042.042h4.62a.042.042 0 00.042-.042v-4.62a.042.042 0 00-.042-.042zM24.999 34.28c-4.793-1.037-4.813-5.943-4.813-5.943v-3.78l4.813-1.785 4.813 1.781v3.78s-.021 4.91-4.813 5.947z"/></g><defs><clipPath id="aoclip0_39_9955"><path fill="#fff" transform="translate(4)" d="M0 0h42v42H0z"/></clipPath><filter id="aofilter0_d_39_9955" x="0" y="0" width="50" height="50" filterUnits="userSpaceOnUse" color-interpolation-filters="sRGB"><feFlood flood-opacity="0" result="BackgroundImageFix"/><feColorMatrix in="SourceAlpha" values="0 0 0 0 0 0 0 0 0 0 0 0 0 0 0 0 0 0 127 0" result="hardAlpha"/><feOffset dy="4"/><feGaussianBlur stdDeviation="2"/><feComposite in2="hardAlpha" operator="out"/><feColorMatrix values="0 0 0 0 0 0 0 0 0 0 0 0 0 0 0 0 0 0 0.25 0"/><feBlend in2="BackgroundImageFix" result="effect1_dropShadow_39_9955"/><feBlend in="SourceGraphic" in2="effect1_dropShadow_39_9955" result="shape"/></filter></defs></svg><svg fill="none" viewBox="0 0 42 42" id="srvc-collection-initial-data" xmlns="http://www.w3.org/2000/svg"><path d="M40.77 12.63H1.23v28.14h39.54V12.63zM22.524 12.63H1.23V5.156h17.095l4.2 7.472z" stroke="#06416A" stroke-width="2.461" stroke-linejoin="round"/><path d="M21 34.55a7.85 7.85 0 100-15.7 7.85 7.85 0 000 15.7z" stroke="#06416A" stroke-width="2.461" stroke-linejoin="round"/><path d="M21 31.206v-4.985h-.785M21 23.432a.617.617 0 100-1.235.617.617 0 000 1.235z" stroke="#06416A" stroke-width="2.461" stroke-linecap="round" stroke-linejoin="round"/></svg><svg fill="none" viewBox="0 0 42 42" id="srvc-compressor-stations" xmlns="http://www.w3.org/2000/svg"><path d="M27.59 11.11H14.41v26.753h13.18V11.11z" stroke="#06416A" stroke-width="2.461" stroke-linecap="round" stroke-linejoin="round"/><path d="M21 21.937c5.717 0 10.352-4.636 10.352-10.353C31.352 5.866 26.718 1.23 21 1.23c-5.718 0-10.354 4.635-10.354 10.353S15.282 21.937 21 21.937z" fill="#fff" stroke="#06416A" stroke-width="2.461" stroke-linecap="round" stroke-linejoin="round"/><path d="M14.41 32.155H1.23v5.708h13.18v-5.708zM40.77 32.155H27.59v5.708h13.18v-5.708zM14.41 39.148v-8.282M1.23 39.148v-8.282M27.59 39.148v-8.282M40.77 39.148v-8.282M22.504 10.71l-2.163 2.579M15.38 12.025a5.62 5.62 0 1111.24 0" stroke="#06416A" stroke-width="2.461" stroke-linecap="round" stroke-linejoin="round"/></svg><svg fill="none" viewBox="0 0 42 42" id="srvc-consulting" xmlns="http://www.w3.org/2000/svg"><path d="M40.753 15.502v13.562h-5.964v6.838l-6.838-6.838H17.94" stroke="#06416A" stroke-width="2.461" stroke-linecap="round" stroke-linejoin="round"/><path d="M1.23 1.23v22.105h5.964v6.834l6.838-6.834H34.65V1.231H1.23z" fill="#fff" stroke="#06416A" stroke-width="2.461" stroke-linecap="round" stroke-linejoin="round"/><path d="M10.575 13.448a1.163 1.163 0 100-2.326 1.163 1.163 0 000 2.326zM17.938 13.448a1.163 1.163 0 100-2.326 1.163 1.163 0 000 2.326zM25.301 13.448a1.163 1.163 0 100-2.326 1.163 1.163 0 000 2.326z" stroke="#06416A" stroke-width="2.461" stroke-linecap="round" stroke-linejoin="round"/></svg><svg fill="none" viewBox="0 0 42 42" id="srvc-design-it-security" xmlns="http://www.w3.org/2000/svg"><path d="M21 30.992c-8.315-1.798-8.357-10.315-8.357-10.315v-6.578L21 11.01l8.358 3.09v6.578S29.317 29.194 21 30.992z" stroke="#06416A" stroke-width="2.461" stroke-miterlimit="10"/><path d="M21 11.008v-5.49h19.77M21 11.008v-5.49H1.23M21 30.992v5.49h19.77M21 30.992v5.49H1.23M40.77 12.386h-5.414V21h-4.884M40.77 29.614h-5.414V21h-4.884M1.23 12.386h5.414V21h4.885M1.23 29.614h5.414V21h4.885" stroke="#06416A" stroke-width="2.461" stroke-linecap="round" stroke-linejoin="round"/></svg><svg fill="none" viewBox="0 0 42 42" id="srvc-designtech-facilities" xmlns="http://www.w3.org/2000/svg"><g clip-path="url(#atclip0_73_15091)" fill="#fff" stroke="#06416A" stroke-width="2.461" stroke-miterlimit="10"><path d="M20.807 40.656c10.137 0 18.354-3.896 18.354-8.703 0-4.806-8.217-8.702-18.354-8.702-10.136 0-18.354 3.896-18.354 8.702 0 4.807 8.218 8.703 18.354 8.703z"/><path d="M20.807 33.49c8.912 0 16.137-7.224 16.137-16.136 0-8.911-7.225-16.136-16.137-16.136S4.671 8.443 4.671 17.354c0 8.912 7.224 16.137 16.136 16.137z"/><path d="M20.808 24.642a7.287 7.287 0 100-14.574 7.287 7.287 0 000 14.574z"/><path d="M20.806 20.21a2.856 2.856 0 100-5.712 2.856 2.856 0 000 5.712z"/></g><defs><clipPath id="atclip0_73_15091"><path fill="#fff" d="M0 0h42v42H0z"/></clipPath></defs></svg><svg fill="none" viewBox="0 0 42 42" id="srvc-dev-doc-tech-re-equipment" xmlns="http://www.w3.org/2000/svg"><g clip-path="url(#auclip0_73_14788)"><path d="M3.036 1.23a.038.038 0 00-.042.043V40.74a.038.038 0 00.011.031.037.037 0 00.031.01H30.84a.043.043 0 00.033-.01.044.044 0 00.01-.014.044.044 0 00.004-.017V8.858L23.255 1.23H3.036z" stroke="#06416A" stroke-width="2.461" stroke-linejoin="round"/><path d="M23.297 8.858h7.59L23.254 1.23V8.82a.042.042 0 00.042.038v0z" stroke="#06416A" stroke-width="2.461" stroke-linejoin="round"/><path d="M7.636 7.64h10.071M7.636 12.81h10.071M7.636 23.15h10.071M7.636 28.32h10.071M7.636 33.49h10.071M7.636 23.15h10.071M7.636 28.32h10.071" stroke="#06416A" stroke-width="2.461" stroke-miterlimit="10" stroke-linecap="round"/><path d="M40.765 32.038a1.768 1.768 0 01-1.764-1.769 7.16 7.16 0 00-13.381-3.561 1.765 1.765 0 11-3.058-1.756 10.69 10.69 0 0119.959 5.317 1.768 1.768 0 01-1.756 1.769z" fill="#06416A"/><path d="M31.84 20.198a10.08 10.08 0 0110.08 10.08 1.15 1.15 0 01-1.604 1.126 1.152 1.152 0 01-.693-1.126 7.774 7.774 0 00-14.519-3.868 1.142 1.142 0 01-1.583.415 1.14 1.14 0 01-.42-1.566 10.105 10.105 0 018.736-5.04m0-1.23a11.34 11.34 0 00-9.799 5.657 2.38 2.38 0 003.254 3.244c.362-.21.663-.512.87-.876a6.543 6.543 0 0112.223 3.255 2.383 2.383 0 104.758 0 11.315 11.315 0 00-11.302-11.302l-.004.021z" fill="#fff"/><path d="M32.202 40.963a10.697 10.697 0 01-10.684-10.685 1.764 1.764 0 113.528 0 7.14 7.14 0 0013.368 3.557 1.772 1.772 0 012.414-.646 1.764 1.764 0 01.648 2.406 10.718 10.718 0 01-9.274 5.368z" fill="#06416A"/><path d="M23.28 29.127a1.15 1.15 0 011.15 1.15 7.779 7.779 0 0014.52 3.869 1.14 1.14 0 011.903-.125 1.148 1.148 0 01.084 1.272 10.08 10.08 0 01-18.808-5.015 1.151 1.151 0 011.15-1.151zm0-1.23a2.385 2.385 0 00-2.382 2.38A11.303 11.303 0 0042 35.903a2.372 2.372 0 00-.878-3.247 2.35 2.35 0 00-1.176-.315 2.389 2.389 0 00-2.066 1.197 6.543 6.543 0 01-12.218-3.26 2.385 2.385 0 00-2.381-2.38z" fill="#fff"/><path d="M36.099 35.011l3.94-.453.453 3.935M27.943 25.536l-3.936.454-.453-3.936" stroke="#06416A" stroke-width="2.461" stroke-linecap="round" stroke-linejoin="round"/></g><defs><clipPath id="auclip0_73_14788"><path fill="#fff" d="M0 0h42v42H0z"/></clipPath></defs></svg><svg fill="none" viewBox="0 0 42 42" id="srvc-dev-feasibility-studies" xmlns="http://www.w3.org/2000/svg"><g clip-path="url(#avclip0_73_14756)" stroke="#06416A" stroke-width="2.461"><path d="M19.639 14.931H6.526v7.253H19.64v-7.253z" fill="#fff" stroke-linecap="round" stroke-linejoin="round"/><path d="M1.23 30.883a2.646 2.646 0 012.646-2.646v0a2.646 2.646 0 012.65 2.646" stroke-miterlimit="10" stroke-linecap="round"/><path d="M38.123 5.355a2.646 2.646 0 012.646 2.65v25.99a2.648 2.648 0 01-2.646 2.65H3.876a2.647 2.647 0 01-2.646-2.65V8.005a2.646 2.646 0 012.646-2.65" stroke-miterlimit="10"/><path d="M1.23 33.995V8.005a2.646 2.646 0 012.646-2.65v0a2.646 2.646 0 012.65 2.65v23.037M40.769 30.883a2.646 2.646 0 00-2.646-2.646v0a2.645 2.645 0 00-2.65 2.646" stroke-miterlimit="10" stroke-linecap="round"/><path d="M40.769 33.995V8.005a2.648 2.648 0 00-2.646-2.65v0a2.646 2.646 0 00-2.65 2.65v23.037" stroke-miterlimit="10" stroke-linecap="round"/><path d="M6.526 9.883h28.947" stroke-miterlimit="10"/><path d="M24.453 24.524l2.529 5.892 2.528-5.892" stroke-linecap="round" stroke-linejoin="round"/><path d="M29.514 1.092h-5.06v23.432h5.06V1.092z" fill="#fff" stroke-linecap="round" stroke-linejoin="round"/><path d="M10.593 24.67l4.981-4.976M15.574 24.67l-4.981-4.976M13.083 25.704v-7.04M16.603 22.184h-7.04" stroke-linecap="round" stroke-linejoin="round"/></g><defs><clipPath id="avclip0_73_14756"><path fill="#fff" d="M0 0h42v42H0z"/></clipPath></defs></svg><svg fill="none" viewBox="0 0 42 42" id="srvc-dev-project-doc" xmlns="http://www.w3.org/2000/svg"><path d="M10.277 24.977c-1.037-.819-1.541-1.306-2.94-1.306a6.09 6.09 0 000 12.18H40.77V10.03H11.084" stroke="#06416A" stroke-width="2.461" stroke-linecap="round" stroke-linejoin="round"/><path d="M6.82 23.671c1.273.005 2.5.469 3.457 1.306V6.632A4.94 4.94 0 006.3 4.557c-2.793 0-5.07 2.478-5.07 5.523v19.677c0-3.364 2.504-6.086 5.59-6.086zM33.986 7.224l-2.528-5.893-2.528 5.893" stroke="#06416A" stroke-width="2.461" stroke-linecap="round" stroke-linejoin="round"/><path d="M28.925 30.656h5.061V7.224h-5.06v23.432z" fill="#fff" stroke="#06416A" stroke-width="2.461" stroke-linecap="round" stroke-linejoin="round"/><path d="M37.49 30.98L14.948 8.437v22.541H37.49z" fill="#fff" stroke="#06416A" stroke-width="2.461" stroke-linecap="round" stroke-linejoin="round"/><path d="M25.65 26.074l-5.667-5.662v5.662h5.666z" fill="#fff" stroke="#06416A" stroke-width="2.461" stroke-linecap="round" stroke-linejoin="round"/></svg><svg fill="none" viewBox="0 0 42 42" id="srvc-dev-security" xmlns="http://www.w3.org/2000/svg"><path d="M1.23 30.626a2.646 2.646 0 012.646-2.646v0a2.644 2.644 0 012.65 2.646" stroke="#06416A" stroke-width="2.461" stroke-miterlimit="10" stroke-linecap="round"/><path d="M38.123 5.099a2.65 2.65 0 012.646 2.65v25.994a2.646 2.646 0 01-2.646 2.646H3.876a2.646 2.646 0 01-2.646-2.646V7.749a2.65 2.65 0 012.646-2.65" stroke="#06416A" stroke-width="2.461" stroke-miterlimit="10"/><path d="M1.23 33.743V7.749a2.65 2.65 0 012.646-2.65v0a2.65 2.65 0 012.65 2.65v23.037M40.77 30.626a2.646 2.646 0 00-2.646-2.646v0a2.643 2.643 0 00-2.65 2.646" stroke="#06416A" stroke-width="2.461" stroke-miterlimit="10" stroke-linecap="round"/><path d="M40.77 33.743V7.749a2.65 2.65 0 00-2.646-2.65v0a2.65 2.65 0 00-2.65 2.65v23.037" stroke="#06416A" stroke-width="2.461" stroke-miterlimit="10" stroke-linecap="round"/><path d="M6.526 9.626h28.947M21 30.022c-5.788-1.26-5.817-7.178-5.817-7.178v-4.578L21 16.116l5.817 2.15v4.578s-.03 5.926-5.817 7.178z" stroke="#06416A" stroke-width="2.461" stroke-miterlimit="10"/></svg><svg fill="none" viewBox="0 0 42 42" id="srvc-dev-targeted-programs" xmlns="http://www.w3.org/2000/svg"><g clip-path="url(#ayclip0_73_15116)" stroke="#06416A" stroke-width="2.461"><path d="M40.72 6.128H1.276a.042.042 0 00-.042.042v29.66c0 .023.02.042.042.042H40.72a.042.042 0 00.043-.042V6.17a.042.042 0 00-.043-.042z" stroke-miterlimit="10"/><path d="M28.14 22.68a2.046 2.046 0 013.557 1.474 2.045 2.045 0 002.146 2.146 2.041 2.041 0 011.47 3.558 2.042 2.042 0 000 3.032 2.04 2.04 0 01-1.47 3.558 2.043 2.043 0 00-2.146 2.146 2.045 2.045 0 01-3.557 1.47 2.042 2.042 0 00-3.033 0 2.045 2.045 0 01-3.561-1.474 2.041 2.041 0 00-2.142-2.147 2.041 2.041 0 01-1.47-3.557 2.042 2.042 0 000-3.032 2.041 2.041 0 011.474-3.558 2.041 2.041 0 002.142-2.146 2.045 2.045 0 013.562-1.47 2.041 2.041 0 003.028 0z" fill="#fff" stroke-linecap="round" stroke-linejoin="round"/><path d="M26.629 35.276a3.906 3.906 0 100-7.812 3.906 3.906 0 000 7.812z" stroke-linecap="round" stroke-linejoin="round"/><path d="M1.235 13.146h39.53" stroke-miterlimit="10"/><path d="M4.813 16.98H21M4.813 20.811h7.325" stroke-miterlimit="10" stroke-linecap="round"/></g><defs><clipPath id="ayclip0_73_15116"><path fill="#fff" d="M0 0h42v42H0z"/></clipPath></defs></svg><svg fill="none" viewBox="0 0 42 42" id="srvc-distribution-networks" xmlns="http://www.w3.org/2000/svg"><g clip-path="url(#azclip0_73_15147)" stroke="#06416A" stroke-width="2.461"><path d="M22.512 1.252h-7.909v15.783h7.91V9.16h18.256V1.252H22.512zM22.512 40.727h-7.909V24.944h7.91v7.879h18.256v7.904H22.512zM1.23 24.944h39.54v-7.909H1.23v7.909z" stroke-linecap="round" stroke-linejoin="round"/><path d="M25.334 15.49H10.798a.042.042 0 00-.042.041v10.941c0 .024.019.043.042.043h14.536a.042.042 0 00.042-.043v-10.94a.042.042 0 00-.042-.043z" fill="#fff" stroke-miterlimit="10"/></g><defs><clipPath id="azclip0_73_15147"><path fill="#fff" d="M0 0h42v42H0z"/></clipPath></defs></svg><svg fill="none" viewBox="0 0 42 42" id="srvc-gas-measuring-station" xmlns="http://www.w3.org/2000/svg"><g clip-path="url(#baclip0_73_14967)" stroke="#06416A" stroke-width="2.461" stroke-linecap="round" stroke-linejoin="round"><path d="M14.41 18.144H1.23v5.708h13.18v-5.708zM27.59 14.41H14.41v13.18h13.18V14.41zM40.77 18.144H27.59v5.708h13.18v-5.708zM14.41 25.141V16.86M1.23 25.141V16.86M27.59 25.141V16.86M40.77 25.141V16.86M18.144 27.59v13.18h5.707V27.59h-5.707zM18.144 1.23v13.18h5.707V1.23h-5.707zM25.14 27.59h-8.282M25.14 40.77h-8.282M25.14 14.41h-8.282M25.14 1.23h-8.282"/></g><defs><clipPath id="baclip0_73_14967"><path fill="#fff" d="M0 0h42v42H0z"/></clipPath></defs></svg><svg fill="none" viewBox="0 0 42 42" id="srvc-gas-pipeline" xmlns="http://www.w3.org/2000/svg"><path d="M33.744 19.627h-8.178v6.258h6.015a2.167 2.167 0 012.163 2.163v6.014h6.262v-8.177a6.262 6.262 0 00-6.262-6.258zM8.252 19.627h8.182v6.258h-6.015a2.167 2.167 0 00-2.167 2.163v6.014H1.994v-8.177a6.258 6.258 0 016.258-6.258v0z" stroke="#06416A" stroke-width="2.461" stroke-linecap="round" stroke-linejoin="round"/><path d="M25.523 18.17H16.44a.042.042 0 00-.043.041v9.085c0 .023.02.042.043.042h9.084a.042.042 0 00.042-.042V18.21a.042.042 0 00-.042-.042zM9.17 31.496H1.278a.042.042 0 00-.042.042v3.368c0 .023.02.042.042.042H9.17a.042.042 0 00.042-.042v-3.368a.042.042 0 00-.042-.042zM8.416 34.948h-6.38a.042.042 0 00-.042.042v5.578c0 .023.019.042.042.042h6.38a.042.042 0 00.042-.042V34.99a.042.042 0 00-.042-.042zM39.963 34.948h-6.38a.042.042 0 00-.042.042v5.578c0 .023.019.042.042.042h6.38a.042.042 0 00.042-.042V34.99a.042.042 0 00-.042-.042zM40.719 31.496h-7.892a.042.042 0 00-.042.042v3.368c0 .023.019.042.042.042h7.892a.042.042 0 00.042-.042v-3.368a.042.042 0 00-.042-.042z" fill="#fff" stroke="#06416A" stroke-width="2.461" stroke-miterlimit="10"/><path d="M23.84 14.906h-5.716a.042.042 0 00-.042.042v3.18c0 .023.019.041.042.041h5.716a.042.042 0 00.042-.042v-3.18a.042.042 0 00-.042-.041zM29.408 7.035H12.554a.042.042 0 00-.042.042v3.368c0 .024.018.042.042.042h16.854a.042.042 0 00.042-.042V7.077a.042.042 0 00-.042-.042zM19.252 10.53v4.145c0 .023.019.042.042.042h3.368a.042.042 0 00.042-.042v-4.146a.042.042 0 00-.042-.042h-3.368a.042.042 0 00-.042.042z" fill="#fff" stroke="#06416A" stroke-width="2.461" stroke-miterlimit="10"/></svg><svg fill="none" viewBox="0 0 42 42" id="srvc-gas-storage-facility" xmlns="http://www.w3.org/2000/svg"><path d="M40.66 16.023H1.34a.042.042 0 00-.042.042v24.662c0 .024.019.042.042.042h39.32a.042.042 0 00.042-.042V16.065a.042.042 0 00-.042-.042zM1.298 16.023c0-6.615 8.82-11.978 19.702-11.978 10.882 0 19.702 5.363 19.702 11.978" stroke="#06416A" stroke-width="2.461" stroke-miterlimit="10"/><path d="M21 22.26s5.367 3.856 5.367 8.106a4.254 4.254 0 01-1.68 3.444 5.964 5.964 0 01-7.342 0 4.255 4.255 0 01-1.68-3.444C15.632 26.116 21 22.26 21 22.26z" stroke="#06416A" stroke-width="2.461" stroke-miterlimit="10"/><path d="M21 28.069s2.94 2.1 2.94 4.435a2.318 2.318 0 01-.928 1.881 3.255 3.255 0 01-4.006 0 2.318 2.318 0 01-.945-1.881c0-2.323 2.94-4.435 2.94-4.435z" stroke="#06416A" stroke-width="2.461" stroke-miterlimit="10"/></svg><svg fill="none" viewBox="0 0 42 42" id="srvc-industrial-building" xmlns="http://www.w3.org/2000/svg"><path d="M40.727 30.467H1.272a.042.042 0 00-.042.042V40.71c0 .023.02.042.042.042h39.455a.042.042 0 00.042-.042V30.509a.042.042 0 00-.042-.042zM12.063 2.898l2.1 27.027a.042.042 0 01-.042.042H3.919a.042.042 0 01-.042-.042l2.1-27.027a.042.042 0 01.042-.042h6.002a.042.042 0 01.042.042v0z" stroke="#06416A" stroke-width="2.461" stroke-miterlimit="10"/><path d="M18.791 30.425v-10.5a3.637 3.637 0 013.637-3.637v0a3.637 3.637 0 013.637 3.637v10.5a.042.042 0 01-.042.042h-7.186a.04.04 0 01-.017-.002.04.04 0 01-.015-.009.042.042 0 01-.014-.031zM30.613 30.42v-10.5a3.637 3.637 0 013.638-3.637v0a3.637 3.637 0 013.637 3.638v10.5a.042.042 0 01-.042.042H30.66a.042.042 0 01-.043-.042h-.004z" stroke="#06416A" stroke-width="2.461" stroke-miterlimit="10"/><path d="M22.432 16.296v-3.91c0-.006 0-.012.002-.017a.038.038 0 01.04-.025h11.739c.006 0 .011 0 .017.002a.037.037 0 01.023.023.037.037 0 01.002.017v3.91M18.795 25.746h7.274M30.617 25.746h7.275M5.553 8.765h6.934M5.242 13.184h7.556M1.23 36.842h39.54" stroke="#06416A" stroke-width="2.461" stroke-miterlimit="10"/></svg><svg fill="none" viewBox="0 0 42 42" id="srvc-inspection" xmlns="http://www.w3.org/2000/svg"><g clip-path="url(#beclip0_73_15030)" stroke="#06416A" stroke-width="2.461" stroke-miterlimit="10"><path d="M27.745 14.087H1.276a.042.042 0 00-.042.042v20.844c0 .024.02.042.042.042h26.469a.042.042 0 00.042-.042V14.13a.042.042 0 00-.042-.042z"/><path d="M18.804 20.744h-8.585a.042.042 0 00-.042.042v14.183c0 .023.019.042.042.042h8.585a.042.042 0 00.042-.042V20.786a.042.042 0 00-.042-.042zM14.51 14.087H1.26s-.039 0-.026-.025l6.628-6.43 6.623-6.43a.046.046 0 01.055 0l6.619 6.43 6.623 6.43s0 .025-.025.025H14.51z"/><path d="M24.321 26.267c6.1 0 11.046-4.946 11.046-11.046S30.422 4.175 24.321 4.175c-6.1 0-11.046 4.945-11.046 11.046 0 6.1 4.946 11.046 11.046 11.046z" fill="#fff"/><path d="M30.472 24.956l2.423 4.196M34.62 28.154l-3.452 1.993a.042.042 0 00-.015.057L37.24 40.75c.011.02.037.027.057.015l3.452-1.993a.042.042 0 00.015-.057l-6.088-10.545a.042.042 0 00-.057-.015z"/></g><defs><clipPath id="beclip0_73_15030"><path fill="#fff" d="M0 0h42v42H0z"/></clipPath></defs></svg><svg fill="none" viewBox="0 0 42 42" id="srvc-inter-settlement" xmlns="http://www.w3.org/2000/svg"><g clip-path="url(#bfclip0_73_15134)" stroke="#06416A" stroke-width="2.461" stroke-miterlimit="10"><path d="M24.13 30.475h-6.296v4.99h6.296v-4.99z"/><path d="M1.23 40.77h39.54" stroke-linecap="round"/><path d="M21 1.525s12.096 8.727 12.096 18.32a9.605 9.605 0 01-3.835 7.783 13.47 13.47 0 01-16.565 0 9.607 9.607 0 01-3.83-7.783C8.866 10.252 21 1.525 21 1.525z"/><path d="M21.001 12.806s7.375 5.325 7.375 11.18a5.879 5.879 0 01-2.335 4.75 8.215 8.215 0 01-10.11 0 5.855 5.855 0 01-2.339-4.75c-.004-5.855 7.409-11.18 7.409-11.18zM12.024 35.465h17.951A4.935 4.935 0 0134.91 40.4v.34a.042.042 0 01-.042.042H7.14a.042.042 0 01-.042-.042v-.328a4.935 4.935 0 014.926-4.947v0z"/><path d="M3.94 40.77v-5.981l4.254-4.255M38.061 40.77v-5.981l-4.254-4.255" stroke-linecap="round"/></g><defs><clipPath id="bfclip0_73_15134"><path fill="#fff" d="M0 0h42v42H0z"/></clipPath></defs></svg><svg fill="none" viewBox="0 0 42 42" id="srvc-passing-exam" xmlns="http://www.w3.org/2000/svg"><g clip-path="url(#bgclip0_73_14840)"><path d="M21.194 5.06a3.747 3.747 0 016.527 2.706 3.75 3.75 0 003.935 3.93 3.747 3.747 0 012.7 6.524 3.748 3.748 0 000 5.56 3.747 3.747 0 01-2.7 6.523 3.75 3.75 0 00-3.935 3.931 3.746 3.746 0 01-6.527 2.726 3.742 3.742 0 00-5.561 0 3.746 3.746 0 01-6.523-2.705 3.747 3.747 0 00-3.93-3.931 3.746 3.746 0 01-2.706-6.544 3.742 3.742 0 000-5.56 3.746 3.746 0 012.705-6.523A3.745 3.745 0 009.11 7.766a3.746 3.746 0 016.523-2.705 3.743 3.743 0 005.56 0z" fill="#fff" stroke="#06416A" stroke-width="2.461" stroke-linecap="round" stroke-linejoin="round"/><path d="M18.413 28.161a7.161 7.161 0 100-14.322 7.161 7.161 0 000 14.322z" stroke="#06416A" stroke-width="2.461" stroke-linecap="round" stroke-linejoin="round"/><path d="M31.374 40.63c-9.29-1.99-9.337-11.524-9.337-11.524V21.76l9.337-3.456 9.34 3.456v7.346s-.046 9.534-9.34 11.525z" fill="#fff" stroke="#06416A" stroke-width="2.461" stroke-miterlimit="10"/><path d="M27.917 29.404l2.642 2.642 5.695-5.695" fill="#fff"/><path d="M27.917 29.404l2.642 2.642 5.695-5.695" stroke="#06416A" stroke-width="2.461" stroke-linecap="round" stroke-linejoin="round"/></g><defs><clipPath id="bgclip0_73_14840"><path fill="#fff" d="M0 0h42v42H0z"/></clipPath></defs></svg><svg fill="none" viewBox="0 0 42 42" id="srvc-passing-main-exam" xmlns="http://www.w3.org/2000/svg"><g clip-path="url(#bhclip0_73_14868)"><path d="M21 40.63C4.62 37.087 4.52 20.295 4.52 20.295V7.324L21 1.232l16.481 6.094v12.97s-.08 16.791-16.48 20.336z" fill="#fff" stroke="#06416A" stroke-width="2.461" stroke-miterlimit="10"/><path d="M14.898 25.015l4.662 4.666 10.05-10.05" fill="#fff"/><path d="M14.898 25.015l4.662 4.666 10.05-10.05" stroke="#06416A" stroke-width="2.461" stroke-linecap="round" stroke-linejoin="round"/><path d="M14.898 16.615l4.662 4.666 10.05-10.05" fill="#fff"/><path d="M14.898 16.615l4.662 4.666 10.05-10.05" stroke="#06416A" stroke-width="2.461" stroke-linecap="round" stroke-linejoin="round"/></g><defs><clipPath id="bhclip0_73_14868"><path fill="#fff" d="M0 0h42v42H0z"/></clipPath></defs></svg><svg fill="none" viewBox="0 0 42 42" id="srvc-passing-non-state-exam" xmlns="http://www.w3.org/2000/svg"><g clip-path="url(#biclip0_73_14850)"><path d="M2.428 1.23a.038.038 0 00-.042.042V40.74a.037.037 0 00.01.031.038.038 0 00.031.01h27.813a.042.042 0 00.042-.041V8.858L22.647 1.23H2.428z" stroke="#06416A" stroke-width="2.461" stroke-linejoin="round"/><path d="M22.68 8.858h7.598L22.647 1.23v7.59a.042.042 0 00.033.038v0z" stroke="#06416A" stroke-width="2.461" stroke-linejoin="round"/><path d="M7.027 7.64H17.1M7.027 12.81H17.1M7.027 23.15H17.1M7.027 28.32H17.1M7.027 33.49H17.1M7.027 23.15H17.1M7.027 28.32H17.1" stroke="#06416A" stroke-width="2.461" stroke-miterlimit="10" stroke-linecap="round"/><path d="M30.278 40.63c-9.277-1.99-9.34-11.524-9.34-11.524V21.76l9.34-3.456 9.337 3.456v7.346s-.046 9.534-9.337 11.525z" fill="#fff" stroke="#06416A" stroke-width="2.461" stroke-miterlimit="10"/><path d="M26.816 29.404l2.642 2.642 5.695-5.695" fill="#fff"/><path d="M26.816 29.404l2.642 2.642 5.695-5.695" stroke="#06416A" stroke-width="2.461" stroke-linecap="round" stroke-linejoin="round"/></g><defs><clipPath id="biclip0_73_14850"><path fill="#fff" d="M0 0h42v42H0z"/></clipPath></defs></svg><svg fill="none" viewBox="0 0 42 42" id="srvc-preparation-tech-requirements" xmlns="http://www.w3.org/2000/svg"><g clip-path="url(#bjclip0_73_15055)" stroke="#06416A" stroke-width="2.461"><path d="M3.036 1.23a.038.038 0 00-.042.043V40.74a.038.038 0 00.011.031.037.037 0 00.031.01H30.84a.043.043 0 00.033-.01.044.044 0 00.01-.014.044.044 0 00.004-.017V8.858L23.255 1.23H3.036z" stroke-linejoin="round"/><path d="M23.297 8.858h7.59L23.254 1.23V8.82a.042.042 0 00.042.038v0z" stroke-linejoin="round"/><path d="M30.882 35.39c-7.59-1.643-7.627-9.417-7.627-9.417V19.97l7.627-2.818 7.631 2.818v6.002s-.037 7.774-7.63 9.416z" fill="#fff" stroke-miterlimit="10"/><path d="M7.636 7.64h10.071M7.636 12.81h10.071M7.636 23.15h10.071M7.636 28.32h10.071M7.636 33.49h10.071M7.636 23.15h10.071M7.636 28.32h10.071" stroke-miterlimit="10" stroke-linecap="round"/></g><defs><clipPath id="bjclip0_73_15055"><path fill="#fff" d="M0 0h42v42H0z"/></clipPath></defs></svg><svg fill="none" viewBox="0 0 42 42" id="srvc-residential-building" xmlns="http://www.w3.org/2000/svg"><g clip-path="url(#bkclip0_39_9945)" stroke="#06416A" stroke-width="2.461" stroke-miterlimit="10"><path d="M34.256 16.296h-4.62a.042.042 0 00-.042.042v4.62c0 .023.019.042.042.042h4.62a.042.042 0 00.042-.042v-4.62a.042.042 0 00-.042-.042zM34.256 6.699h-4.62a.042.042 0 00-.042.042v4.62c0 .023.019.042.042.042h4.62a.042.042 0 00.042-.042v-4.62a.042.042 0 00-.042-.042zM23.31 16.296h-4.62a.042.042 0 00-.042.042v4.62c0 .023.02.042.042.042h4.62a.042.042 0 00.042-.042v-4.62a.042.042 0 00-.042-.042zM23.31 6.699h-4.62a.042.042 0 00-.042.042v4.62c0 .023.02.042.042.042h4.62a.042.042 0 00.042-.042v-4.62a.042.042 0 00-.042-.042zM12.365 16.296h-4.62a.042.042 0 00-.042.042v4.62c0 .023.019.042.042.042h4.62a.042.042 0 00.042-.042v-4.62a.042.042 0 00-.042-.042zM12.365 6.699h-4.62a.042.042 0 00-.042.042v4.62c0 .023.019.042.042.042h4.62a.042.042 0 00.042-.042v-4.62a.042.042 0 00-.042-.042z"/><path d="M40.727 1.247H1.272a.042.042 0 00-.042.042v39.422c0 .023.02.042.042.042h39.455a.042.042 0 00.042-.042V1.289a.042.042 0 00-.042-.042z"/><path d="M29.274 27.426H12.722a.042.042 0 00-.042.042v13.243c0 .023.018.042.042.042h16.552a.042.042 0 00.042-.042V27.468a.042.042 0 00-.042-.042zM21 27.426v13.327"/></g><defs><clipPath id="bkclip0_39_9945"><path fill="#fff" d="M0 0h42v42H0z"/></clipPath></defs></svg><svg fill="none" viewBox="0 0 42 42" id="srvc-security-design" xmlns="http://www.w3.org/2000/svg"><g clip-path="url(#blclip0_73_15073)" stroke="#06416A" stroke-width="2.461"><path d="M23.428 18.577H8.682a.042.042 0 00-.042.042v22.108c0 .024.018.043.042.043h14.746a.042.042 0 00.042-.043V18.62a.042.042 0 00-.042-.042z" stroke-miterlimit="10"/><path d="M16.38 18.577h-10s-.03 0 0 0l4.96-4.864 5.002-4.847a.038.038 0 01.042 0l4.99 4.847 4.993 4.843h-.02l-9.968.02z" stroke-linecap="round" stroke-linejoin="round"/><path d="M22.755 25.22h19.244M0 25.22h8.64M28.413 25.662V42M33.356 25.662V42M23.47 25.662V42M38.3 5.876V42M3.696 25.662V42M8.64 25.662V42M38.3 6.161a2.457 2.457 0 100-4.914 2.457 2.457 0 000 4.914z" stroke-miterlimit="10"/></g><defs><clipPath id="blclip0_73_15073"><path fill="#fff" d="M0 0h42v42H0z"/></clipPath></defs></svg><svg fill="none" viewBox="0 0 42 42" id="srvc-simulation-execution" xmlns="http://www.w3.org/2000/svg"><path d="M37.485 8.803H4.61v21.744h32.874V8.803z" stroke="#06416A" stroke-width="2.461" stroke-linecap="round" stroke-linejoin="round"/><path d="M15.074 16.225v6.9l5.977 3.453 5.976-3.453v-6.9l-5.976-3.449-5.977 3.449z" fill="#fff" stroke="#06416A" stroke-width="2.461" stroke-linecap="round" stroke-linejoin="round"/><path d="M21.05 12.776v6.901l-5.976 3.448M27.026 23.125l-5.976-3.448" stroke="#06416A" stroke-width="2.461" stroke-linecap="round" stroke-linejoin="round"/><path d="M18.757 18.354V21l2.293 1.323L23.343 21v-2.646l-2.293-1.327-2.293 1.327z" fill="#fff" stroke="#06416A" stroke-width="2.461" stroke-linecap="round" stroke-linejoin="round"/><path d="M1.29 33.814h39.47" stroke="#06416A" stroke-width="2.461" stroke-linecap="round" stroke-linejoin="round"/></svg><svg fill="none" viewBox="0 0 42 42" id="srvc-sports" xmlns="http://www.w3.org/2000/svg"><g clip-path="url(#bnclip0_39_9963)" stroke="#06416A" stroke-width="2.461" stroke-miterlimit="10"><path d="M37.287 34.091H4.712a.042.042 0 00-.042.042v6.594c0 .024.019.042.042.042h32.575a.042.042 0 00.042-.042v-6.594a.042.042 0 00-.042-.042zM37.287 11.399H4.712a.042.042 0 00-.042.042v6.594c0 .023.019.042.042.042h32.575a.042.042 0 00.042-.042V11.44a.042.042 0 00-.042-.042z"/><path d="M7.867 18.081v15.964c0 .023.019.042.042.042h8.018a.042.042 0 00.042-.042V18.081a.042.042 0 00-.042-.042H7.909a.042.042 0 00-.042.042zM26.035 18.081v15.964c0 .023.019.042.042.042h8.018a.042.042 0 00.042-.042V18.081a.042.042 0 00-.042-.042h-8.018a.042.042 0 00-.042.042zM21 11.399H1.26c-.033 0-.059 0-.042-.021L11.101 6.3l9.861-5.04a.118.118 0 01.076 0L30.9 6.3l9.865 5.078s0 .02-.042.02H21z"/></g><defs><clipPath id="bnclip0_39_9963"><path fill="#fff" d="M0 0h42v42H0z"/></clipPath></defs></svg><svg fill="none" viewBox="0 0 42 42" id="srvc-survey-performance" xmlns="http://www.w3.org/2000/svg"><path d="M25.583 20.093h-9.169v3.78h9.169v-3.78zM22.978 16.204H19.02v3.885h3.957v-3.885zM34.612 1.268H7.833v14.936h26.78V1.268z" stroke="#06416A" stroke-width="2.461" stroke-linejoin="round"/><path d="M11.487 5.157H7.833v7.162h3.654V5.157z" stroke="#06416A" stroke-width="2.461" stroke-linejoin="round"/><path d="M5.759 40.77L21 23.869l15.241 16.9M21 40.77V23.869" stroke="#06416A" stroke-width="2.461" stroke-linecap="round" stroke-linejoin="round"/><path d="M21.223 12.663a3.914 3.914 0 100-7.829 3.914 3.914 0 000 7.829z" stroke="#06416A" stroke-width="2.461" stroke-linejoin="round"/><path d="M21.223 8.761a.013.013 0 00.012-.012.013.013 0 10-.013.013z" stroke="#06416A" stroke-width="2.461" stroke-linejoin="round"/></svg><svg fill="none" viewBox="0 0 42 42" id="srvc-tank-farm" xmlns="http://www.w3.org/2000/svg"><g clip-path="url(#bpclip0_73_14986)" stroke="#06416A" stroke-width="2.461"><path d="M17.363 21.223H1.193a.042.042 0 00-.042.042v16.17c0 .023.02.042.042.042h16.17a.042.042 0 00.042-.042v-16.17a.042.042 0 00-.042-.042z" stroke-miterlimit="10"/><path d="M11.092 21.223H7.468a.042.042 0 00-.042.042v3.624c0 .024.019.042.042.042h3.624a.042.042 0 00.042-.042v-3.624a.042.042 0 00-.042-.042zM40.807 21.223h-16.17a.042.042 0 00-.042.042v16.17c0 .023.018.042.042.042h16.17a.042.042 0 00.042-.042v-16.17a.042.042 0 00-.042-.042z" stroke-miterlimit="10"/><path d="M34.532 21.223h-3.625a.042.042 0 00-.042.042v3.624c0 .024.019.042.042.042h3.625a.042.042 0 00.042-.042v-3.624a.042.042 0 00-.042-.042z" stroke-miterlimit="10"/><path d="M6.745 4.675v10.5M11.521 4.675v10.5M16.3 4.675v10.5M21.08 4.675v10.5M25.855 4.675v10.5M30.635 4.675v10.5M35.415 4.675v10.5M1.31 4.528h39.54M1.31 15.175h39.54" stroke-linecap="round" stroke-linejoin="round"/></g><defs><clipPath id="bpclip0_73_14986"><path fill="#fff" d="M0 0h42v42H0z"/></clipPath></defs></svg><svg fill="none" viewBox="0 0 42 42" id="srvc-underground-gas-storage" xmlns="http://www.w3.org/2000/svg"><path d="M23.634 12.617h-5.267a.042.042 0 00-.042.042v5.267c0 .023.019.042.042.042h5.267a.042.042 0 00.042-.042v-5.267a.042.042 0 00-.042-.042zM25.982 10.454H15.675a.042.042 0 00-.042.042v2.079c0 .023.019.042.042.042h10.307a.042.042 0 00.042-.042v-2.08a.042.042 0 00-.042-.041z" stroke="#06416A" stroke-width="2.461" stroke-miterlimit="10"/><path d="M32.823 17.968H9.177a7.946 7.946 0 00-7.947 7.946v6.91a7.946 7.946 0 007.947 7.946h23.646a7.946 7.946 0 007.946-7.947v-6.909a7.946 7.946 0 00-7.946-7.946zM1.23 12.617h39.54" stroke="#06416A" stroke-width="2.461" stroke-linecap="round" stroke-linejoin="round"/><path d="M21 22.953s5.367 3.868 5.367 8.127a4.258 4.258 0 01-1.68 3.448 5.964 5.964 0 01-7.342 0 4.258 4.258 0 01-1.68-3.448C15.632 26.821 21 22.953 21 22.953z" stroke="#06416A" stroke-width="2.461" stroke-miterlimit="10"/><path d="M21 28.778s2.94 2.1 2.94 4.431a2.314 2.314 0 01-.929 1.882 3.255 3.255 0 01-4.006 0 2.314 2.314 0 01-.945-1.882c0-2.318 2.94-4.43 2.94-4.43z" stroke="#06416A" stroke-width="2.461" stroke-miterlimit="10"/></svg><svg fill="none" viewBox="0 0 42 42" id="srvc-working-doc" xmlns="http://www.w3.org/2000/svg"><g clip-path="url(#brclip0_73_14822)" stroke="#06416A" stroke-width="2.461"><path d="M1.26 1.23a.038.038 0 00-.042.042V40.74a.037.037 0 00.01.031.039.039 0 00.015.01c.006 0 .011.002.017 0h27.82a.042.042 0 00.043-.041V8.858L21.49 1.23H1.26z" stroke-linejoin="round"/><path d="M21.534 8.858h7.59L21.492 1.23v7.59a.042.042 0 00.042.037v0z" stroke-linejoin="round"/><path d="M5.871 7.64h10.072M5.871 12.81h10.072M5.871 23.15h10.072M5.871 28.32h10.072M5.871 33.49h10.072M5.871 23.15h10.072M5.871 28.32h10.072" stroke-miterlimit="10" stroke-linecap="round"/><path d="M32.34 21.37a2.196 2.196 0 013.823 1.583 2.19 2.19 0 002.306 2.302 2.193 2.193 0 011.579 3.822 2.197 2.197 0 000 3.254 2.192 2.192 0 01-1.58 3.822 2.193 2.193 0 00-2.305 2.306 2.192 2.192 0 01-3.822 1.58 2.197 2.197 0 00-3.255 0 2.192 2.192 0 01-3.822-1.58 2.193 2.193 0 00-2.302-2.306 2.197 2.197 0 01-1.591-3.813 2.189 2.189 0 000-3.255 2.196 2.196 0 011.583-3.822 2.192 2.192 0 002.302-2.302 2.196 2.196 0 013.822-1.583 2.187 2.187 0 003.263-.009z" fill="#fff" stroke-linecap="round" stroke-linejoin="round"/><path d="M30.706 34.902a4.196 4.196 0 100-8.391 4.196 4.196 0 000 8.391z" stroke-linecap="round" stroke-linejoin="round"/></g><defs><clipPath id="brclip0_73_14822"><path fill="#fff" d="M0 0h42v42H0z"/></clipPath></defs></svg><svg viewBox="0 0 42 42" id="tech-objects" xmlns="http://www.w3.org/2000/svg"><path d="M35.848 5.086c-.68 0-1.23.55-1.23 1.23v3.692h-5.825V2.87A2.874 2.874 0 0025.922 0h-1.64a2.874 2.874 0 00-2.872 2.871v7.137H7.383V6.316c0-.68-.551-1.23-1.23-1.23A6.16 6.16 0 000 11.238v24.61A6.16 6.16 0 006.152 42h29.696A6.16 6.16 0 0042 35.848v-24.61a6.16 6.16 0 00-6.152-6.152zM23.87 2.87a.41.41 0 01.41-.41h1.64a.41.41 0 01.411.41v18.457h-2.46V2.871zm0 20.918h2.461v1.76l-1.23 2.461-1.23-2.46v-1.76zM21.54 26.39l2.331 4.662v1.104h-9.023V19.852h6.562v5.988c0 .19.045.38.13.55zM2.46 11.238a3.698 3.698 0 012.462-3.48v22.06a6.132 6.132 0 00-2.461 1.11v-19.69zM35.849 39.54H6.152a3.696 3.696 0 01-3.691-3.691 3.696 3.696 0 013.691-3.692c.68 0 1.23-.55 1.23-1.23V12.469H21.41v4.922h-6.562v-1.23a1.23 1.23 0 00-2.461 0v1.23h-1.23a1.23 1.23 0 000 2.46h1.23v12.305h-1.23a1.23 1.23 0 000 2.461h1.23v1.23a1.23 1.23 0 002.46 0v-1.23h10.255c.68 0 1.23-.55 1.23-1.23v-2.335l2.331-4.662c.086-.17.13-.36.13-.55v-5.988h2.05a1.23 1.23 0 000-2.461h-2.05v-4.922h5.824v18.457c0 .68.551 1.23 1.23 1.23a3.696 3.696 0 013.692 3.692 3.696 3.696 0 01-3.691 3.691zm3.691-8.61a6.131 6.131 0 00-2.46-1.11V7.758a3.698 3.698 0 012.46 3.48v19.69z"/></svg><svg viewBox="0 0 42 42" id="technical-support" xmlns="http://www.w3.org/2000/svg"><g clip-path="url(#btclip0_206_1017)"><path d="M24.898 14.175a1.23 1.23 0 00-1.835.89l-.668 4.622h-2.79l-.668-4.623a1.23 1.23 0 00-1.835-.889 7.819 7.819 0 00-3.895 6.743 7.73 7.73 0 003.691 6.62v13.231c0 .68.551 1.23 1.23 1.23h5.743c.68 0 1.23-.55 1.23-1.23V27.538a7.73 7.73 0 003.692-6.62 7.819 7.819 0 00-3.895-6.742zm-1.567 11.531a1.23 1.23 0 00-.69 1.106v12.727h-3.282V26.812c0-.47-.268-.9-.69-1.106a5.297 5.297 0 01-3.001-4.788c0-1.211.419-2.371 1.151-3.299l.502 3.474a1.23 1.23 0 001.218 1.055h4.922c.612 0 1.13-.45 1.218-1.055l.502-3.474a5.33 5.33 0 011.151 3.299c0 2.05-1.15 3.885-3 4.788z"/><path d="M40.929 16.43l-3.062-.612a17.509 17.509 0 00-1.334-3.22L38.265 10a1.23 1.23 0 00-.154-1.553l-4.64-4.64a1.23 1.23 0 00-1.553-.154L29.32 5.385A17.515 17.515 0 0026.1 4.05L25.488.99A1.23 1.23 0 0024.28 0H17.72a1.23 1.23 0 00-1.207.99L15.9 4.05a17.521 17.521 0 00-3.22 1.334l-2.598-1.732a1.23 1.23 0 00-1.553.154l-4.64 4.64A1.23 1.23 0 003.735 10l1.732 2.598a17.513 17.513 0 00-1.334 3.22l-3.062.612a1.23 1.23 0 00-.989 1.207v6.562c0 .587.414 1.092.99 1.207l3.061.612a17.512 17.512 0 001.334 3.22l-1.732 2.598a1.23 1.23 0 00.154 1.553l4.64 4.64a1.23 1.23 0 001.553.154l3.227-2.151a1.23 1.23 0 00.548-1.024v-6.246c0-.313-.12-.614-.334-.842a10.19 10.19 0 01-2.777-7.002c0-5.654 4.6-10.254 10.254-10.254s10.254 4.6 10.254 10.254c0 2.609-.986 5.096-2.777 7.002a1.23 1.23 0 00-.334.842v6.246c0 .411.206.795.548 1.024l3.228 2.151a1.227 1.227 0 001.552-.154l4.64-4.64a1.23 1.23 0 00.154-1.553l-1.732-2.598a17.52 17.52 0 001.334-3.22l3.062-.612c.575-.115.989-.62.989-1.207v-6.562a1.23 1.23 0 00-.99-1.207zm-1.472 6.76l-2.815.563a1.23 1.23 0 00-.95.904 15.06 15.06 0 01-1.66 4.005 1.23 1.23 0 00.034 1.312l1.592 2.388-3.214 3.214-1.84-1.227v-5.113a12.637 12.637 0 003.11-8.318c0-7.011-5.703-12.715-12.714-12.715S8.285 13.907 8.285 20.918c0 3.072 1.101 6.006 3.11 8.317v5.114l-1.84 1.227-3.213-3.214 1.592-2.388a1.23 1.23 0 00.033-1.312 15.06 15.06 0 01-1.658-4.005 1.23 1.23 0 00-.952-.904l-2.814-.563v-4.545l2.815-.562a1.23 1.23 0 00.95-.904 15.059 15.059 0 011.66-4.005 1.23 1.23 0 00-.034-1.312L6.342 9.474 9.556 6.26l2.388 1.592a1.23 1.23 0 001.312.033 15.064 15.064 0 014.005-1.658c.46-.117.81-.487.904-.951l.563-2.815h4.544l.563 2.815c.093.464.445.834.904.95 1.412.36 2.76.917 4.005 1.66.407.242.918.229 1.312-.034l2.388-1.592 3.214 3.214-1.592 2.388a1.23 1.23 0 00-.033 1.312 15.057 15.057 0 011.658 4.005c.117.46.487.81.951.904l2.815.563v4.544z"/></g><defs><clipPath id="btclip0_206_1017"><path fill="#fff" d="M0 0h42v42H0z"/></clipPath></defs></svg><svg viewBox="0 0 20 20" id="zoom-in" xmlns="http://www.w3.org/2000/svg"><g clip-path="url(#buclip0_685_2782)"><path d="M19.755 18.578l-4.974-4.974a8.346 8.346 0 10-1.178 1.178l4.974 4.974a.833.833 0 001.178-1.178zM8.333 15a6.667 6.667 0 116.666-6.666A6.674 6.674 0 018.333 15z"/><path d="M10.833 7.5H9.167V5.833a.833.833 0 00-1.667 0V7.5H5.833a.833.833 0 000 1.667H7.5v1.666a.833.833 0 001.667 0V9.167h1.666a.833.833 0 000-1.667z"/></g><defs><clipPath id="buclip0_685_2782"><path d="M0 0h20v20H0z"/></clipPath></defs></svg></svg>