<svg width="16" height="16" viewBox="0 0 16 16" fill="none" xmlns="http://www.w3.org/2000/svg"><g clip-path="url(#clip0_208_375)" fill="#fff"><path d="M15.805 14.862l-3.98-3.98a6.677 6.677 0 10-.942.943l3.979 3.98a.666.666 0 00.943-.943zM6.667 12a5.333 5.333 0 110-10.666 5.333 5.333 0 010 10.666z"/><path d="M8.667 6H7.333V4.667a.667.667 0 10-1.333 0V6H4.667a.667.667 0 000 1.333H6v1.334a.667.667 0 001.333 0V7.333h1.334a.667.667 0 100-1.333z"/></g><defs><clipPath id="clip0_208_375"><path fill="#fff" d="M0 0h16v16H0z"/></clipPath></defs></svg>