<svg width="10" height="6" viewBox="0 0 10 6" fill="none" xmlns="http://www.w3.org/2000/svg">
<path d="M9.47112 0.471558C9.3461 0.346577 9.17656 0.276367 8.99978 0.276367C8.82301 0.276367 8.65347 0.346577 8.52845 0.471558L5.47112 3.52889C5.34436 3.65055 5.17547 3.71849 4.99978 3.71849C4.82409 3.71849 4.6552 3.65055 4.52845 3.52889L1.47112 0.471558C1.34538 0.350119 1.17698 0.282923 1.00218 0.284442C0.827385 0.285961 0.660176 0.356073 0.536571 0.479679C0.412966 0.603284 0.342853 0.770493 0.341334 0.945291C0.339815 1.12009 0.407011 1.28849 0.52845 1.41423L3.58512 4.47156C3.77084 4.65731 3.99133 4.80466 4.234 4.90519C4.47668 5.00572 4.73678 5.05747 4.99945 5.05747C5.26212 5.05747 5.52222 5.00572 5.76489 4.90519C6.00757 4.80466 6.22806 4.65731 6.41378 4.47156L9.47112 1.41423C9.5961 1.28921 9.66631 1.11967 9.66631 0.942891C9.66631 0.766115 9.5961 0.596576 9.47112 0.471558Z" fill="#2E2E2E"/>
</svg>
