<svg width="14" height="14" viewBox="0 0 14 14" fill="none" xmlns="http://www.w3.org/2000/svg">
<path d="M13.8833 6.69534C13.8075 6.49176 11.9583 1.71484 7 1.71484C2.04167 1.71484 0.190167 6.49176 0.116667 6.69534L0 6.99984L0.116667 7.30434C0.1925 7.50793 2.04167 12.2848 7 12.2848C11.9583 12.2848 13.8098 7.50793 13.8833 7.30434L14 6.99984L13.8833 6.69534ZM7 10.5494C3.8395 10.5494 2.30942 7.91626 1.8725 6.99984C2.31058 6.08109 3.84125 3.45026 7 3.45026C10.1587 3.45026 11.6888 6.08051 12.1275 6.99984C11.6888 7.91918 10.1587 10.5494 7 10.5494Z" fill="#2E2E2E"/>
<path d="M7.00033 9.33317C8.28899 9.33317 9.33366 8.2885 9.33366 6.99984C9.33366 5.71117 8.28899 4.6665 7.00033 4.6665C5.71166 4.6665 4.66699 5.71117 4.66699 6.99984C4.66699 8.2885 5.71166 9.33317 7.00033 9.33317Z" fill="#2E2E2E"/>
</svg>
