<svg width="14" height="14" viewBox="0 0 14 14" fill="none" xmlns="http://www.w3.org/2000/svg">
<path d="M13.8833 6.6956C13.3866 5.5 12.6379 4.42558 11.6882 3.5456L13.4499 1.78452L12.2144 0.547852L10.2463 2.5166C9.24834 1.98193 8.13209 1.70653 7 1.71568C2.04167 1.71568 0.19075 6.49202 0.116667 6.6956L0 7.0001L0.116667 7.3046C0.613393 8.5002 1.3621 9.57462 2.31175 10.4546L0.54775 12.2145L1.78558 13.4524L3.75375 11.4836C4.75166 12.0183 5.86791 12.2937 7 12.2845C11.9583 12.2845 13.8092 7.50818 13.8833 7.3046L14 7.0001L13.8833 6.6956ZM1.87367 7.0001C2.31292 6.09302 3.86108 3.4511 7 3.4511C7.66413 3.44838 8.3224 3.5754 8.93783 3.82502L7.91117 4.85169C7.48316 4.67 7.01064 4.62032 6.55421 4.70904C6.09779 4.79775 5.67827 5.02081 5.34949 5.34959C5.02071 5.67837 4.79765 6.09789 4.70893 6.55431C4.62022 7.01074 4.66989 7.48327 4.85158 7.91127L3.53792 9.22435C2.84349 8.5985 2.27813 7.84291 1.87367 7.0001ZM7 10.5491C6.33587 10.5518 5.6776 10.4248 5.06217 10.1752L6.08883 9.14852C6.51683 9.33021 6.98936 9.37988 7.44579 9.29117C7.90221 9.20245 8.32173 8.9794 8.65051 8.65061C8.97929 8.32183 9.20235 7.90232 9.29107 7.44589C9.37978 6.98946 9.33011 6.51694 9.14842 6.08893L10.4621 4.77585C11.1566 5.40158 11.722 6.1572 12.1263 7.0001C11.6871 7.90718 10.1389 10.5491 7 10.5491Z" fill="white"/>
</svg>
