<svg width="42" height="42" viewBox="0 0 42 42" fill="none" xmlns="http://www.w3.org/2000/svg">
<path d="M40.1372 18.3409L38.6367 19.0911V1.23047C38.6367 0.550922 38.0858 0 37.4062 0H4.59375C3.9142 0 3.36328 0.550922 3.36328 1.23047V13.2891H1.3125C0.632953 13.2891 0.0820312 13.84 0.0820312 14.5195V40.7695C0.0820312 41.4491 0.632953 42 1.3125 42H40.6875C41.367 42 41.918 41.4491 41.918 40.7695V19.4414C41.918 18.5267 40.9553 17.9318 40.1372 18.3409ZM39.457 27.2344H32.0742V25.1237L39.457 21.4323V27.2344ZM16.4883 16.3902C15.238 15.4393 13.8525 14.6931 12.3867 14.1711V2.46094H16.4883V16.3902ZM18.9492 2.46094H23.0508V19.6553C21.6088 19.3988 20.2202 18.8948 18.9492 18.1676V2.46094ZM25.5117 2.46094H29.6133V19.8516H25.5117V2.46094ZM36.1758 20.3216L32.0742 22.3724V2.46094H36.1758V20.3216ZM5.82422 2.46094H9.92578V13.52C9.06076 13.3674 8.17983 13.2891 7.29266 13.2891H5.82422V2.46094ZM7.29266 15.75C10.2879 15.75 13.1994 16.8126 15.4906 18.742C18.2249 21.0445 21.6992 22.3125 25.2737 22.3125H29.6133V28.0547H25.2737C22.2785 28.0547 19.367 26.9921 17.0758 25.0627C15.6778 23.8854 14.0861 22.9794 12.3867 22.3743V20.2617C12.3867 19.5822 11.8358 19.0312 11.1562 19.0312C10.4767 19.0312 9.92578 19.5822 9.92578 20.2617V21.7231C9.11679 21.5804 8.29377 21.5035 7.46484 21.4941V19.4414C7.46484 18.7619 6.91392 18.2109 6.23438 18.2109C5.55483 18.2109 5.00391 18.7619 5.00391 19.4414V21.4922H2.54297V15.75H7.29266ZM2.54297 23.9531H7.29266C10.2879 23.9531 13.1994 25.0157 15.4906 26.9451C18.2249 29.2476 21.6992 30.5156 25.2737 30.5156H29.6133V32.9766H21C20.3205 32.9766 19.7695 33.5275 19.7695 34.207V39.5391H17.3086V34.207C17.3086 33.5275 16.7577 32.9766 16.0781 32.9766H6.23438C5.55483 32.9766 5.00391 33.5275 5.00391 34.207V39.5391H2.54297V23.9531ZM7.46484 35.4375H9.92578V39.5391H7.46484V35.4375ZM12.3867 39.5391V35.4375H14.8477V39.5391H12.3867ZM29.6133 39.5391H22.2305V35.4375H29.6133V39.5391ZM36.9961 39.5391V35.8477C36.9961 35.1681 36.4452 34.6172 35.7656 34.6172C35.0861 34.6172 34.5352 35.1681 34.5352 35.8477V39.5391H32.0742V29.6953H39.457V39.5391H36.9961Z" fill="#0A3782"/>
</svg>
