<svg width="42" height="42" viewBox="0 0 42 42" fill="none" xmlns="http://www.w3.org/2000/svg">
<path d="M28.3828 14.7656C29.0624 14.7656 29.6133 14.2147 29.6133 13.5352C29.6133 12.8556 29.0624 12.3047 28.3828 12.3047C27.7032 12.3047 27.1523 12.8556 27.1523 13.5352C27.1523 14.2147 27.7032 14.7656 28.3828 14.7656Z" fill="#0A3782"/>
<path d="M35.7656 12.3047H34.4114C34.2515 11.5203 33.9412 10.7904 33.5133 10.1448L34.4734 9.18471C34.9539 8.70425 34.9539 7.92512 34.4734 7.44458C33.9928 6.96404 33.2138 6.96404 32.7333 7.44458L31.7732 8.40468C31.1277 7.97664 30.3977 7.66639 29.6134 7.5066V6.15234C29.6134 5.4728 29.0624 4.92188 28.3829 4.92188C27.7033 4.92188 27.1524 5.4728 27.1524 6.15234V7.5066C26.3681 7.66639 25.6381 7.97672 24.9926 8.40468L24.0325 7.44458C23.5521 6.96412 22.7729 6.96412 22.2924 7.44458C21.8119 7.92504 21.8119 8.70417 22.2924 9.18471L23.2525 10.1448C22.8245 10.7903 22.5142 11.5203 22.3544 12.3047H21C20.3205 12.3047 19.7695 12.8556 19.7695 13.5352C19.7695 14.2147 20.3205 14.7656 21 14.7656H22.3543C22.5141 15.55 22.8244 16.2799 23.2523 16.9255L22.2922 17.8856C21.8117 18.3661 21.8117 19.1452 22.2922 19.6257C22.5326 19.8661 22.8474 19.9862 23.1623 19.9862C23.4772 19.9862 23.7922 19.866 24.0324 19.6257L24.9925 18.6656C25.638 19.0937 26.368 19.4039 27.1523 19.5637V20.918C27.1523 21.5975 27.7032 22.1484 28.3827 22.1484C29.0623 22.1484 29.6132 21.5975 29.6132 20.918V19.5637C30.3975 19.4039 31.1275 19.0936 31.773 18.6656L32.7331 19.6257C32.9734 19.866 33.2883 19.9862 33.6031 19.9862C33.918 19.9862 34.233 19.866 34.4732 19.6257C34.9537 19.1453 34.9537 18.3661 34.4732 17.8856L33.5131 16.9255C33.9412 16.28 34.2514 15.55 34.4112 14.7656H35.7656C36.4452 14.7656 36.9961 14.2147 36.9961 13.5352C36.9961 12.8556 36.4452 12.3047 35.7656 12.3047ZM28.3828 17.2266C26.3474 17.2266 24.6914 15.5706 24.6914 13.5352C24.6914 11.4997 26.3474 9.84375 28.3828 9.84375C30.4183 9.84375 32.0742 11.4997 32.0742 13.5352C32.0742 15.5706 30.4183 17.2266 28.3828 17.2266Z" fill="#0A3782"/>
<path d="M37.4883 0H4.51172C2.02396 0 0 2.02396 0 4.51172V27.4805C0 29.9682 2.02396 31.9922 4.51172 31.9922H14.4593L13.466 35.5682C11.9005 35.9958 10.7461 37.4297 10.7461 39.1289V40.7695C10.7461 41.4491 11.297 42 11.9766 42H30.0234C30.703 42 31.2539 41.4491 31.2539 40.7695V39.1289C31.2539 37.4297 30.0995 35.9958 28.5341 35.5682L27.5407 31.9922H37.4883C39.976 31.9922 42 29.9682 42 27.4805V4.51172C42 2.02396 39.976 0 37.4883 0ZM27.5625 37.8984C28.241 37.8984 28.793 38.4504 28.793 39.1289V39.5391H13.207V39.1289C13.207 38.4504 13.759 37.8984 14.4375 37.8984H27.5625ZM16.0563 35.4375L17.0134 31.9922H24.9866L25.9437 35.4375H16.0563ZM39.5391 27.4805C39.5391 28.6113 38.6191 29.5312 37.4883 29.5312H4.51172C3.38092 29.5312 2.46094 28.6113 2.46094 27.4805V27.0703H39.5391V27.4805ZM39.5391 24.6094H19.7695V20.918C19.7695 20.2384 19.2186 19.6875 18.5391 19.6875C17.8595 19.6875 17.3086 20.2384 17.3086 20.918V24.6094H14.8477V14.3555C14.8477 13.6759 14.2967 13.125 13.6172 13.125C12.9376 13.125 12.3867 13.6759 12.3867 14.3555V24.6094H9.92578V10.7636L10.2862 11.124C10.5264 11.3642 10.8413 11.4844 11.1562 11.4844C11.4712 11.4844 11.7861 11.3642 12.0263 11.1239C12.5068 10.6435 12.5068 9.86434 12.0263 9.3838L9.56534 6.92286C9.08488 6.44241 8.30575 6.44241 7.82521 6.92286L5.36427 9.3838C4.88373 9.86426 4.88373 10.6434 5.36427 11.1239C5.84473 11.6044 6.62386 11.6044 7.1044 11.1239L7.46484 10.7636V24.6094H2.46094V4.51172C2.46094 3.38092 3.38092 2.46094 4.51172 2.46094H37.4883C38.6191 2.46094 39.5391 3.38092 39.5391 4.51172V24.6094Z" fill="#0A3782"/>
</svg>
