<svg width="42" height="42" viewBox="0 0 42 42" fill="none" xmlns="http://www.w3.org/2000/svg">
<path d="M40.7695 32.9766H30.2594V32.6484C30.2594 31.9689 29.7084 31.418 29.0289 31.418H25.5836V26.5935C30.8814 24.7012 34.6834 19.6334 34.6834 13.6936C34.6834 6.14291 28.5405 0 20.9898 0C13.4392 0 7.29627 6.14291 7.29627 13.6936C7.29627 19.6334 11.0982 24.7013 16.3961 26.5935V31.418H12.9508C12.2712 31.418 11.7203 31.9689 11.7203 32.6484V32.9766H1.23047C0.550922 32.9766 0 33.5275 0 34.207V39.2109C0 39.8905 0.550922 40.4414 1.23047 40.4414H11.7203V40.7695C11.7203 41.4491 12.2712 42 12.9508 42H29.0289C29.7084 42 30.2594 41.4491 30.2594 40.7695V40.4414H40.7695C41.4491 40.4414 42 39.8905 42 39.2109V34.207C42 33.5275 41.4491 32.9766 40.7695 32.9766ZM9.82497 14.924H10.1971C10.8767 14.924 11.4276 14.3731 11.4276 13.6936C11.4276 13.014 10.8767 12.4631 10.1971 12.4631H9.82497C10.0632 10.2868 10.9255 8.29566 12.2288 6.67267L12.4882 6.93205C12.7285 7.17232 13.0434 7.2925 13.3582 7.2925C13.6731 7.2925 13.9881 7.1724 14.2282 6.93205C14.7088 6.45151 14.7088 5.67246 14.2282 5.19192L13.9689 4.93254C15.5919 3.62923 17.583 2.76691 19.7594 2.5287V2.90087C19.7594 3.58042 20.3103 4.13134 20.9898 4.13134C21.6694 4.13134 22.2203 3.58042 22.2203 2.90087V2.5287C24.3966 2.76691 26.3876 3.62923 28.0107 4.93254L27.7513 5.192C27.2709 5.67254 27.271 6.45159 27.7514 6.93213C27.9918 7.1724 28.3066 7.2925 28.6214 7.2925C28.9363 7.2925 29.2513 7.17232 29.4915 6.93205L29.7508 6.67275C31.0541 8.29582 31.9164 10.2869 32.1546 12.4632H31.7824C31.1029 12.4632 30.552 13.0141 30.552 13.6936C30.552 14.3732 31.1029 14.9241 31.7824 14.9241H32.1546C31.9164 17.1004 31.054 19.0915 29.7508 20.7145L29.4915 20.4551C29.011 19.9746 28.2319 19.9747 27.7513 20.4551C27.2709 20.9357 27.2708 21.7147 27.7513 22.1953L28.0106 22.4546C26.3876 23.7579 24.3965 24.6202 22.2202 24.8584V24.4863C22.2202 23.8068 21.6693 23.2559 20.9897 23.2559C20.3102 23.2559 19.7593 23.8068 19.7593 24.4863V24.8584C17.583 24.6202 15.5919 23.7579 13.9689 22.4546L14.2282 22.1953C14.7086 21.7147 14.7087 20.9357 14.2282 20.4551C13.7477 19.9746 12.9686 19.9747 12.488 20.4551L12.2286 20.7145C10.9255 19.0914 10.0632 17.1003 9.82497 14.924ZM18.857 27.2206C19.5522 27.3298 20.2644 27.387 20.9898 27.387C21.7152 27.387 22.4274 27.3298 23.1226 27.2206V31.418H18.857V27.2206ZM2.46094 37.9805V35.4375H11.7203V37.9805H2.46094ZM14.1812 39.5391V33.8789H27.7722C27.7432 33.9835 27.7984 39.5391 27.7984 39.5391H14.1812ZM39.5391 37.9805H30.2594V35.4375H39.5391V37.9805Z" fill="#0A3782"/>
<path d="M22.4992 16.943C22.4993 16.943 22.4993 16.943 22.4992 16.943L22.3603 18.1321C22.2814 18.807 22.7647 19.4181 23.4396 19.4971C23.4882 19.5027 23.5363 19.5055 23.584 19.5055C24.1997 19.5055 24.7314 19.0442 24.8046 18.4178L24.8998 17.6035L25.7141 17.5082C26.3891 17.4293 26.8723 16.8182 26.7934 16.1432C26.7146 15.4683 26.1042 14.9851 25.4283 15.0639L24.2393 15.2029L18.2729 9.23635C17.7925 8.75589 17.0134 8.75581 16.5328 9.23635C16.0522 9.71681 16.0522 10.4959 16.5328 10.9765L22.4992 16.943Z" fill="#0A3782"/>
</svg>
