<svg width="19" height="19" viewBox="0 0 19 19" fill="none" xmlns="http://www.w3.org/2000/svg">
<path d="M0 0V2.375C0 1.08142 1.08142 0 2.375 0H0Z" fill="white"/>
<path d="M18.3044 0.695621C18.7498 1.14102 19 1.74511 19 2.375V0H16.625C17.2549 0 17.859 0.250222 18.3044 0.695621Z" fill="white"/>
<path fill-rule="evenodd" clip-rule="evenodd" d="M16.625 0H2.375C1.08142 0 0 1.08142 0 2.375L0 19H19V2.375C19 1.74511 18.7498 1.14102 18.3044 0.695621C17.859 0.250222 17.2549 0 16.625 0ZM1.58333 13.7861L6.56529 8.80413C6.71375 8.65571 6.91508 8.57234 7.125 8.57234C7.33492 8.57234 7.53625 8.65571 7.68471 8.80413L16.2973 17.4167H1.58333V13.7861ZM2.375 1.58333H16.625H17.4167V2.375V16.2973L8.80413 7.68471C8.35875 7.23946 7.75477 6.98934 7.125 6.98934C6.49524 6.98934 5.89125 7.23946 5.44588 7.68471L1.58333 11.5473V2.375V1.58333H2.375Z" fill="white"/>
<path d="M12.667 7.9165C13.1367 7.9165 13.5959 7.77721 13.9865 7.51624C14.377 7.25528 14.6814 6.88435 14.8612 6.45038C15.041 6.0164 15.088 5.53887 14.9964 5.07817C14.9047 4.61746 14.6785 4.19428 14.3464 3.86213C14.0142 3.52998 13.591 3.30378 13.1303 3.21214C12.6696 3.1205 12.1921 3.16753 11.7581 3.34729C11.3241 3.52705 10.9532 3.83146 10.6923 4.22203C10.4313 4.61259 10.292 5.07177 10.292 5.5415C10.292 6.17139 10.5422 6.77548 10.9876 7.22088C11.433 7.66628 12.0371 7.9165 12.667 7.9165V7.9165ZM12.667 4.74984C12.8236 4.74984 12.9766 4.79627 13.1068 4.88326C13.237 4.97025 13.3385 5.09389 13.3984 5.23855C13.4583 5.38321 13.474 5.54238 13.4434 5.69595C13.4129 5.84952 13.3375 5.99058 13.2268 6.1013C13.1161 6.21201 12.975 6.28741 12.8214 6.31796C12.6679 6.34851 12.5087 6.33283 12.364 6.27291C12.2194 6.21299 12.0957 6.11152 12.0087 5.98133C11.9218 5.85114 11.8753 5.69808 11.8753 5.5415C11.8753 5.33154 11.9587 5.13018 12.1072 4.98171C12.2557 4.83325 12.457 4.74984 12.667 4.74984V4.74984Z" fill="white"/>
</svg>
