<svg width="271" height="311" viewBox="0 0 271 311"  fill="none" xmlns="http://www.w3.org/2000/svg">
<rect opacity="0.2" width="104.169" height="104.169" shape-rendering="crispEdges"    transform="matrix(0.707892 -0.706321 0.707892 0.706321 61.76 236.557)" fill="white"/>
<rect width="191.413" height="191.413" shape-rendering="crispEdges"  transform="matrix(0.707892 -0.706321 0.707892 0.706321 0 135.332)" fill="white"/>
<path fill-rule="evenodd" clip-rule="evenodd" d="M158.044 87.5267L180.588 101.586V120.331L158.198 135.224L158.196 135.416L158.044 135.327L135.499 150.323L112.955 135.327L158.044 107.209V87.5267ZM112.955 183.127L135.499 197.186L180.588 169.068V148.448L158.196 135.416L158.044 155.947L112.955 183.127Z" fill="#0A3782"/>
<path fill-rule="evenodd" clip-rule="evenodd" d="M90.4109 169.068V101.586L135.499 73.4678L158.044 87.5267L112.955 116.582V135.327V183.127L90.4109 169.068Z" fill="#0A3782"/>
</svg>
