<svg width="16" height="17" viewBox="0 0 16 17" fill="none" xmlns="http://www.w3.org/2000/svg">
<path d="M15.8482 15.8209L11.7173 11.756C12.799 10.5807 13.4637 9.02636 13.4637 7.31595C13.4632 3.65708 10.4495 0.691406 6.73158 0.691406C3.0137 0.691406 0 3.65708 0 7.31595C0 10.9748 3.0137 13.9405 6.73158 13.9405C8.33796 13.9405 9.8113 13.3849 10.9686 12.4612L15.1156 16.5421C15.3176 16.7412 15.6457 16.7412 15.8477 16.5421C16.0503 16.3431 16.0503 16.02 15.8482 15.8209ZM6.73158 12.9213C3.58585 12.9213 1.03575 10.4117 1.03575 7.31595C1.03575 4.22021 3.58585 1.71063 6.73158 1.71063C9.87733 1.71063 12.4274 4.22021 12.4274 7.31595C12.4274 10.4117 9.87733 12.9213 6.73158 12.9213Z" fill="#2E2E2E"/>
</svg>
