<svg width="16" height="16" viewBox="0 0 16 16" fill="none" xmlns="http://www.w3.org/2000/svg">
<g clip-path="url(#clip0_208_375)">
<path d="M15.8045 14.8619L11.8252 10.8825C12.9096 9.55625 13.4428 7.86391 13.3144 6.15556C13.1861 4.44721 12.406 2.85354 11.1356 1.7042C9.86516 0.554862 8.20158 -0.0622172 6.48895 -0.019396C4.77632 0.0234252 3.14566 0.72287 1.93426 1.93426C0.72287 3.14566 0.0234252 4.77632 -0.019396 6.48895C-0.0622172 8.20158 0.554862 9.86516 1.7042 11.1356C2.85354 12.406 4.44721 13.1861 6.15556 13.3144C7.86391 13.4428 9.55625 12.9096 10.8825 11.8252L14.8619 15.8045C14.9876 15.926 15.156 15.9932 15.3308 15.9916C15.5056 15.9901 15.6728 15.92 15.7964 15.7964C15.92 15.6728 15.9901 15.5056 15.9916 15.3308C15.9932 15.156 15.926 14.9876 15.8045 14.8619ZM6.66652 11.9999C5.61169 11.9999 4.58054 11.6871 3.70348 11.101C2.82642 10.515 2.14283 9.68204 1.73916 8.7075C1.3355 7.73296 1.22988 6.6606 1.43567 5.62604C1.64145 4.59147 2.1494 3.64116 2.89528 2.89528C3.64116 2.1494 4.59147 1.64145 5.62604 1.43567C6.6606 1.22988 7.73296 1.3355 8.7075 1.73916C9.68204 2.14283 10.515 2.82642 11.101 3.70348C11.6871 4.58054 11.9999 5.61169 11.9999 6.66652C11.9983 8.08052 11.4359 9.43615 10.436 10.436C9.43615 11.4359 8.08052 11.9983 6.66652 11.9999Z" fill="white"/>
<path d="M8.66667 6H7.33333V4.66667C7.33333 4.48986 7.2631 4.32029 7.13807 4.19526C7.01305 4.07024 6.84348 4 6.66667 4C6.48986 4 6.32029 4.07024 6.19526 4.19526C6.07024 4.32029 6 4.48986 6 4.66667V6H4.66667C4.48986 6 4.32029 6.07024 4.19526 6.19526C4.07024 6.32029 4 6.48986 4 6.66667C4 6.84348 4.07024 7.01305 4.19526 7.13807C4.32029 7.2631 4.48986 7.33333 4.66667 7.33333H6V8.66667C6 8.84348 6.07024 9.01305 6.19526 9.13807C6.32029 9.26309 6.48986 9.33333 6.66667 9.33333C6.84348 9.33333 7.01305 9.26309 7.13807 9.13807C7.2631 9.01305 7.33333 8.84348 7.33333 8.66667V7.33333H8.66667C8.84348 7.33333 9.01305 7.2631 9.13807 7.13807C9.26309 7.01305 9.33333 6.84348 9.33333 6.66667C9.33333 6.48986 9.26309 6.32029 9.13807 6.19526C9.01305 6.07024 8.84348 6 8.66667 6Z" fill="white"/>
</g>
<defs>
<clipPath id="clip0_208_375">
<rect width="16" height="16" fill="white"/>
</clipPath>
</defs>
</svg>
