<svg width="42" height="42" viewBox="0 0 42 42" xmlns="http://www.w3.org/2000/svg">
    <path d="M40.7695 29.6953H12.3047V1.23047C12.3047 0.550827 11.7539 0 11.0742 0H1.23047C0.550827 0 0 0.550827 0 1.23047V40.7695C0 41.4492 0.550827 42 1.23047 42H40.7695C41.4492 42 42 41.4492 42 40.7695V30.9258C42 30.2461 41.4492 29.6953 40.7695 29.6953ZM39.5391 39.5391H2.46094V2.46094H9.84375V5.08594H7.79297C7.11333 5.08594 6.5625 5.63676 6.5625 6.31641C6.5625 6.99605 7.11333 7.54688 7.79297 7.54688H9.84375V10.0078H8.61328C7.93364 10.0078 7.38281 10.5586 7.38281 11.2383C7.38281 11.9179 7.93364 12.4688 8.61328 12.4688H9.84375V14.9297H7.79297C7.11333 14.9297 6.5625 15.4805 6.5625 16.1602C6.5625 16.8398 7.11333 17.3906 7.79297 17.3906H9.84375V19.8516H8.61328C7.93364 19.8516 7.38281 20.4024 7.38281 21.082C7.38281 21.7617 7.93364 22.3125 8.61328 22.3125H9.84375V24.7734H7.79297C7.11333 24.7734 6.5625 25.3243 6.5625 26.0039C6.5625 26.6835 7.11333 27.2344 7.79297 27.2344H9.84375V29.6953H8.61328C7.93364 29.6953 7.38281 30.2461 7.38281 30.9258C7.38281 31.6054 7.93364 32.1562 8.61328 32.1562H9.84375V33.3867C9.84375 34.0664 10.3946 34.6172 11.0742 34.6172C11.7539 34.6172 12.3047 34.0664 12.3047 33.3867V32.1562H14.7656V34.207C14.7656 34.8867 15.3165 35.4375 15.9961 35.4375C16.6757 35.4375 17.2266 34.8867 17.2266 34.207V32.1562H19.6875V33.3867C19.6875 34.0664 20.2383 34.6172 20.918 34.6172C21.5976 34.6172 22.1484 34.0664 22.1484 33.3867V32.1562H24.6094V34.207C24.6094 34.8867 25.1602 35.4375 25.8398 35.4375C26.5195 35.4375 27.0703 34.8867 27.0703 34.207V32.1562H29.5312V33.3867C29.5312 34.0664 30.0821 34.6172 30.7617 34.6172C31.4414 34.6172 31.9922 34.0664 31.9922 33.3867V32.1562H34.4531V34.207C34.4531 34.8867 35.004 35.4375 35.6836 35.4375C36.3632 35.4375 36.9141 34.8867 36.9141 34.207V32.1562H39.5391V39.5391Z" fill=""/>
    <path d="M36.5302 10.0504L29.1474 5.12856C28.734 4.85298 28.1957 4.85298 27.7823 5.12856L20.3995 10.0504C20.0573 10.2786 19.8516 10.6628 19.8516 11.0742V20.918C19.8516 21.5976 20.4024 22.1484 21.082 22.1484H35.8477C36.527 22.1484 37.0781 21.5976 37.0781 20.918V11.0742C37.0781 10.6628 36.8724 10.2786 36.5302 10.0504ZM29.6953 19.6875H27.2344V15.5859H29.6953V19.6875ZM34.6172 19.6875H32.1562V14.3555C32.1562 13.6758 31.6054 13.125 30.9258 13.125H26.0039C25.3243 13.125 24.7734 13.6758 24.7734 14.3555V19.6875H22.3125V11.7327L28.4648 7.63115L34.6172 11.7327V19.6875Z" fill=""/>
    <path d="M40.7695 0H16.1602C15.4805 0 14.9297 0.550827 14.9297 1.23047V25.8398C14.9297 26.5195 15.4805 27.0703 16.1602 27.0703H40.7695C41.4492 27.0703 42 26.5195 42 25.8398V1.23047C42 0.550827 41.4492 0 40.7695 0ZM39.5391 24.6094H17.3906V2.46094H39.5391V24.6094Z" fill=""/>
</svg>