<svg id="logo-text" width="303" height="24" viewBox="0 0 303 24" fill="none" xmlns="http://www.w3.org/2000/svg">
<path d="M0.992188 1.29941H12.2278V5.01941H4.34351V23.4794H0.992188V1.29941ZM27.4734 23.4794H23.8315L22.3786 18.4394H15.7535L14.3781 23.4794H10.8331L17.3032 1.29941H20.8483L27.4928 23.4794H27.4734ZM21.3132 14.6994L19.0273 6.47941L16.7802 14.6994H21.3132ZM31.619 7.33941L28.3645 6.31941C29.0619 2.69941 31.0572 0.899414 34.3504 0.899414C36.307 0.899414 37.7599 1.47941 38.7672 2.61941C39.7551 3.75941 40.2588 5.09941 40.2588 6.65941C40.2588 7.71941 40.0264 8.67941 39.5808 9.51941C39.1353 10.3794 38.4572 11.1194 37.5468 11.7594C38.651 12.2594 39.4839 12.9794 40.0264 13.8994C40.5688 14.8194 40.8593 15.9594 40.8593 17.3194C40.8593 19.2594 40.3169 20.8394 39.2515 22.0394C38.186 23.2394 36.5782 23.8394 34.4666 23.8394C32.7232 23.8394 31.3672 23.4594 30.3598 22.6794C29.3525 21.9194 28.597 20.4594 28.0933 18.3394L31.1541 16.9994C31.464 18.3394 31.8902 19.1994 32.4132 19.5794C32.9363 19.9794 33.5755 20.1594 34.3504 20.1594C35.3965 20.1594 36.1714 19.8594 36.6557 19.2394C37.14 18.6394 37.3724 17.9394 37.3724 17.1394C37.3724 16.2394 37.1012 15.4994 36.5588 14.9394C36.0164 14.3794 35.1834 14.0994 34.0792 14.0994H33.3237V10.7594H33.7111C34.7379 10.7594 35.5321 10.4594 36.0551 9.83941C36.5975 9.21941 36.8688 8.39941 36.8688 7.39941C36.8688 6.57941 36.6557 5.89941 36.2101 5.35941C35.7646 4.79941 35.1447 4.51941 34.3117 4.51941C32.9169 4.51941 32.0064 5.43941 31.619 7.29941V7.33941ZM43.8232 1.27941H57.0154V23.4594H53.6641V4.99941H47.1745V23.4594H43.8232V1.27941ZM60.4442 23.4594V1.27941H65.8102C67.8443 1.27941 69.1809 1.39941 69.8008 1.61941C70.75 1.95941 71.5443 2.67941 72.1835 3.77941C72.8228 4.89941 73.1521 6.33941 73.1521 8.09941C73.1521 9.45941 72.9584 10.5994 72.5903 11.5394C72.2223 12.4594 71.7574 13.1994 71.1762 13.7194C70.6144 14.2394 70.0333 14.5994 69.4327 14.7594C68.6385 14.9794 67.4762 15.0794 65.9652 15.0794H63.7762V23.4394H60.4249L60.4442 23.4594ZM63.7955 5.03941V11.3194H65.6359C66.9531 11.3194 67.8443 11.1994 68.2898 10.9794C68.7354 10.7394 69.084 10.3794 69.3359 9.89941C69.5877 9.39941 69.7233 8.83941 69.7233 8.17941C69.7233 7.37941 69.549 6.69941 69.1809 6.17941C68.8322 5.65941 68.3867 5.31941 67.8443 5.19941C67.4374 5.09941 66.6432 5.05941 65.4421 5.05941H63.8149L63.7955 5.03941ZM74.915 12.5194C74.915 10.2594 75.1668 8.35941 75.6705 6.83941C76.0579 5.71941 76.5616 4.69941 77.2202 3.79941C77.8788 2.89941 78.5956 2.23941 79.3705 1.79941C80.3972 1.21941 81.5982 0.919414 82.9542 0.919414C85.3951 0.919414 87.3516 1.93941 88.8239 3.95941C90.2962 5.97941 91.0323 8.79941 91.0323 12.4194C91.0323 15.9994 90.2962 18.7994 88.8433 20.8194C87.3904 22.8394 85.4338 23.8594 83.0124 23.8594C80.5521 23.8594 78.5762 22.8594 77.1233 20.8394C75.6705 18.8194 74.9343 16.0594 74.9343 12.5194H74.915ZM78.3631 12.3794C78.3631 14.8794 78.8087 16.7994 79.661 18.0794C80.5328 19.3794 81.637 20.0194 82.9736 20.0194C84.3103 20.0194 85.3951 19.3794 86.2668 18.0794C87.1192 16.7994 87.5454 14.8594 87.5454 12.2994C87.5454 9.75941 87.1192 7.85941 86.3056 6.61941C85.4726 5.37941 84.3684 4.73941 82.9736 4.73941C81.5982 4.73941 80.4747 5.37941 79.6417 6.63941C78.8087 7.89941 78.3825 9.79941 78.3825 12.3594L78.3631 12.3794ZM93.6281 23.4794V1.29941H105.929V5.05941H96.9794V9.97941H105.309V13.7194H96.9794V19.7594H106.239V23.4994H93.6281V23.4794ZM109.145 1.29941H112.496V10.7394C113.252 10.6394 113.755 10.3794 114.007 9.97941C114.278 9.55941 114.685 8.41941 115.228 6.53941C115.925 4.13941 116.622 2.63941 117.32 2.05941C118.017 1.47941 119.141 1.17941 120.671 1.17941C120.749 1.17941 120.904 1.17941 121.155 1.15941V4.45941L120.671 4.43941C119.993 4.43941 119.489 4.55941 119.16 4.77941C118.85 4.99941 118.579 5.35941 118.385 5.81941C118.192 6.27941 117.901 7.23941 117.514 8.67941C117.3 9.43941 117.087 10.0794 116.855 10.5994C116.622 11.1194 116.196 11.5994 115.596 12.0594C116.351 12.3394 116.952 12.9194 117.455 13.7594C117.94 14.6194 118.482 15.8394 119.063 17.3794L121.33 23.4594H117.397L115.421 17.7194C115.383 17.6394 115.325 17.4794 115.228 17.2394C115.189 17.1594 115.053 16.8194 114.801 16.1994C114.375 15.1194 114.027 14.4194 113.736 14.1594C113.465 13.8794 113.039 13.7394 112.477 13.7394V23.4594H109.126V1.27941L109.145 1.29941ZM127.548 23.4794V5.05941H122.628V1.29941H135.82V5.05941H130.919V23.4794H127.567H127.548ZM138.009 1.29941H141.147V16.0594L147.869 1.29941H151.201V23.4794H148.063V8.99941L141.341 23.4794H137.99V1.29941H138.009ZM154.63 23.4794V1.29941H157.981V10.0194H164.548V1.29941H167.9V23.4794H164.548V13.7794H157.981V23.4794H154.63ZM181.789 1.29941V10.7394C182.351 10.6794 182.777 10.3994 183.048 9.89941C183.339 9.39941 183.726 8.27941 184.23 6.51941C184.889 4.21941 185.567 2.73941 186.264 2.09941C186.961 1.47941 188.085 1.15941 189.693 1.15941C189.77 1.15941 189.925 1.15941 190.177 1.13941V4.43941L189.693 4.41941C189.015 4.41941 188.511 4.53941 188.201 4.75941C187.891 4.97941 187.62 5.33941 187.426 5.79941C187.233 6.25941 186.942 7.21941 186.555 8.65941C186.342 9.41941 186.128 10.0594 185.896 10.5794C185.663 11.0994 185.237 11.5794 184.637 12.0394C185.392 12.3394 185.993 12.8994 186.496 13.7594C186.981 14.6194 187.523 15.8194 188.104 17.3794L190.371 23.4594H186.438L184.443 17.7194C184.424 17.6394 184.366 17.4794 184.249 17.2394C184.191 17.0994 184.056 16.7394 183.843 16.1994C183.416 15.1394 183.068 14.4594 182.796 14.1794C182.525 13.8794 182.177 13.7394 181.789 13.7394V23.4594H178.515V13.7394C178.128 13.7394 177.799 13.8794 177.527 14.1594C177.256 14.4394 176.907 15.1194 176.481 16.1994C176.249 16.7994 176.113 17.1394 176.055 17.2394C175.997 17.3794 175.919 17.5394 175.861 17.7194L173.866 23.4594H169.934L172.2 17.3794C172.762 15.8794 173.285 14.6794 173.789 13.7994C174.292 12.9194 174.912 12.3394 175.668 12.0394C175.067 11.5794 174.641 11.0994 174.408 10.5994C174.176 10.0994 173.944 9.43941 173.73 8.67941C173.343 7.25941 173.072 6.31941 172.878 5.85941C172.684 5.37941 172.433 5.03941 172.103 4.79941C171.774 4.55941 171.27 4.43941 170.534 4.43941C170.437 4.43941 170.302 4.43941 170.108 4.45941V1.15941C170.36 1.17941 170.515 1.17941 170.592 1.17941C172.219 1.17941 173.362 1.49941 174.06 2.11941C174.738 2.75941 175.396 4.23941 176.055 6.51941C176.578 8.29941 176.966 9.41941 177.256 9.91941C177.547 10.3994 177.954 10.6794 178.515 10.7394V1.29941H181.789ZM192.366 1.29941H195.504V16.0594L202.226 1.29941H205.558V23.4794H202.42V8.99941L195.698 23.4794H192.347V1.29941H192.366ZM208.987 23.4794V1.29941H212.338V10.0194H218.906V1.29941H222.257V23.4794H218.906V13.7794H212.338V23.4794H208.987ZM225.763 1.29941H228.901V16.0594L235.623 1.29941H238.955V23.4794H235.817V8.99941L229.095 23.4794H225.744V1.29941H225.763ZM242.384 23.4794V1.29941H247.75C249.784 1.29941 251.121 1.41941 251.741 1.63941C252.69 1.97941 253.484 2.69941 254.123 3.79941C254.763 4.91941 255.092 6.35941 255.092 8.11941C255.092 9.47941 254.898 10.6194 254.53 11.5594C254.162 12.4794 253.697 13.2194 253.116 13.7394C252.554 14.2594 251.973 14.6194 251.373 14.7794C250.578 14.9994 249.416 15.0994 247.905 15.0994H245.716V23.4594H242.365L242.384 23.4794ZM245.735 5.05941V11.3394H247.576C248.893 11.3394 249.784 11.2194 250.23 10.9994C250.675 10.7594 251.024 10.3994 251.276 9.91941C251.528 9.41941 251.663 8.85941 251.663 8.19941C251.663 7.39941 251.489 6.71941 251.121 6.19941C250.772 5.67941 250.327 5.33941 249.784 5.21941C249.377 5.11941 248.583 5.07941 247.382 5.07941H245.755L245.735 5.05941ZM257.882 1.29941H261.02V16.0594L267.742 1.29941H271.074V23.4794H267.936V8.99941L261.214 23.4794H257.862V1.29941H257.882ZM274.503 23.4794V1.29941H277.854V10.0194H284.421V1.29941H287.772V23.4794H284.421V13.7794H277.854V23.4794H274.503ZM291.395 1.29941H302.63V5.01941H294.746V23.4794H291.395V1.29941Z" fill="#06416A" stroke="#06416A" stroke-width="0.0762"/>
</svg>
