<svg width="42" height="42" viewBox="0 0 42 42" fill="none" xmlns="http://www.w3.org/2000/svg">
<g clip-path="url(#clip0_2_167)">
<path d="M41.5736 28.4383L38.3996 25.7002L40.4296 24.6578C41.2169 24.2534 41.33 23.1754 40.651 22.6147L15.3873 1.7518C13.9117 0.533509 11.7795 0.636369 10.4276 1.99149L1.46951 10.9726C-0.0759431 12.5219 0.0560761 15.0748 1.75342 16.4559L9.92579 23.1056V30.5182H2.46094V28.4674C2.46094 27.7881 1.91011 27.2373 1.23047 27.2373C0.550828 27.2373 0 27.7881 0 28.4674V40.0316C0 40.7109 0.550828 41.2618 1.23047 41.2618C1.91011 41.2618 2.46094 40.7109 2.46094 40.0316V37.9001H12.3867C15.1008 37.9001 17.3086 35.6923 17.3086 32.9785V29.1125L22.2741 33.1528C22.6535 33.4614 23.179 33.5159 23.6129 33.2929L25.8639 32.137L32.6033 37.7004C33.0926 38.1042 33.8088 38.0699 34.2567 37.6216L41.6396 30.2394C42.1449 29.7347 42.1151 28.9055 41.5736 28.4383ZM12.1701 3.72921C12.6197 3.27836 13.3291 3.24407 13.82 3.6491L37.6431 23.3225L29.8767 27.3107C29.7046 26.9905 31.1309 28.2152 7.23254 8.67961L12.1701 3.72921ZM14.8477 32.9788C14.8477 34.3356 13.7438 35.4394 12.3867 35.4394H2.46094V32.9788H11.1563C11.8359 32.9788 12.3867 32.428 12.3867 31.7484V25.108L14.8477 27.1104V32.9788ZM23.204 30.7371C22.4705 30.1401 4.05126 15.1534 3.30657 14.5474C2.73812 14.085 2.69261 13.2311 3.21204 12.7104L5.48617 10.4305L27.5792 28.4902L23.204 30.7371ZM33.3076 35.0908L28.247 30.9133L36.038 26.913L38.9633 29.4361L33.3076 35.0908Z" fill="#06416A"/>
<path d="M32.0739 21.9063C32.0739 22.5856 31.5231 23.1367 30.8434 23.1367C30.1641 23.1367 29.6133 22.5856 29.6133 21.9063C29.6133 21.2266 30.1641 20.6758 30.8434 20.6758C31.5231 20.6758 32.0739 21.2266 32.0739 21.9063Z" fill="#06416A"/>
</g>
<defs>
<clipPath id="clip0_2_167">
<rect width="42" height="42" fill="white"/>
</clipPath>
</defs>
</svg>
