<svg width="42" height="42" viewBox="0 0 42 42" fill="none" xmlns="http://www.w3.org/2000/svg">
<path d="M27.5898 11.1091H14.4102V37.8631H27.5898V11.1091Z" stroke="#06416A" stroke-width="2.4612" stroke-linecap="round" stroke-linejoin="round"/>
<path d="M20.9995 21.9367C26.7173 21.9367 31.3525 17.3015 31.3525 11.5837C31.3525 5.86591 26.7173 1.23071 20.9995 1.23071C15.2817 1.23071 10.6465 5.86591 10.6465 11.5837C10.6465 17.3015 15.2817 21.9367 20.9995 21.9367Z" fill="white" stroke="#06416A" stroke-width="2.4612" stroke-linecap="round" stroke-linejoin="round"/>
<path d="M14.4101 32.1553H1.23047V37.8631H14.4101V32.1553Z" stroke="#06416A" stroke-width="2.4612" stroke-linecap="round" stroke-linejoin="round"/>
<path d="M40.7694 32.1553H27.5898V37.8631H40.7694V32.1553Z" stroke="#06416A" stroke-width="2.4612" stroke-linecap="round" stroke-linejoin="round"/>
<path d="M14.4102 39.1482V30.8658" stroke="#06416A" stroke-width="2.4612" stroke-linecap="round" stroke-linejoin="round"/>
<path d="M1.23047 39.1482V30.8658" stroke="#06416A" stroke-width="2.4612" stroke-linecap="round" stroke-linejoin="round"/>
<path d="M27.5898 39.1482V30.8658" stroke="#06416A" stroke-width="2.4612" stroke-linecap="round" stroke-linejoin="round"/>
<path d="M40.7695 39.1482V30.8658" stroke="#06416A" stroke-width="2.4612" stroke-linecap="round" stroke-linejoin="round"/>
<path d="M22.5038 10.71L20.3408 13.2888" stroke="#06416A" stroke-width="2.4612" stroke-linecap="round" stroke-linejoin="round"/>
<path d="M15.3799 12.0246C15.3799 10.5342 15.9719 9.10485 17.0258 8.05097C18.0797 6.99709 19.5091 6.40503 20.9995 6.40503C22.4899 6.40503 23.9193 6.99709 24.9731 8.05097C26.027 9.10485 26.6191 10.5342 26.6191 12.0246" stroke="#06416A" stroke-width="2.4612" stroke-linecap="round" stroke-linejoin="round"/>
</svg>
