<svg width="42" height="42" viewBox="0 0 42 42" fill="none" xmlns="http://www.w3.org/2000/svg">
<path d="M25.5827 20.0928H16.4141V23.8728H25.5827V20.0928Z" stroke="#06416A" stroke-width="2.4612" stroke-linejoin="round"/>
<path d="M22.9779 16.2036H19.0215V20.0886H22.9779V16.2036Z" stroke="#06416A" stroke-width="2.4612" stroke-linejoin="round"/>
<path d="M34.6122 1.26843H7.83301V16.2036H34.6122V1.26843Z" stroke="#06416A" stroke-width="2.4612" stroke-linejoin="round"/>
<path d="M11.487 5.15747H7.83301V12.3185H11.487V5.15747Z" stroke="#06416A" stroke-width="2.4612" stroke-linejoin="round"/>
<path d="M5.75879 40.7695L21.0006 23.8687L36.2424 40.7695" stroke="#06416A" stroke-width="2.4612" stroke-linecap="round" stroke-linejoin="round"/>
<path d="M21 40.7695V23.8687" stroke="#06416A" stroke-width="2.4612" stroke-linecap="round" stroke-linejoin="round"/>
<path d="M21.223 12.6629C23.3849 12.6629 25.1374 10.9104 25.1374 8.74851C25.1374 6.58664 23.3849 4.83411 21.223 4.83411C19.0611 4.83411 17.3086 6.58664 17.3086 8.74851C17.3086 10.9104 19.0611 12.6629 21.223 12.6629Z" stroke="#06416A" stroke-width="2.4612" stroke-linejoin="round"/>
<path d="M21.2226 8.76116C21.2295 8.76116 21.2352 8.75552 21.2352 8.74856C21.2352 8.7416 21.2295 8.73596 21.2226 8.73596C21.2156 8.73596 21.21 8.7416 21.21 8.74856C21.21 8.75552 21.2156 8.76116 21.2226 8.76116Z" stroke="#06416A" stroke-width="2.4612" stroke-linejoin="round"/>
</svg>
