<svg width="42" height="42" viewBox="0 0 42 42" fill="none" xmlns="http://www.w3.org/2000/svg">
<g clip-path="url(#clip0_73_14850)">
<path d="M2.42801 1.23049C2.42233 1.22981 2.41657 1.23044 2.41117 1.23231C2.40576 1.23418 2.40086 1.23725 2.39681 1.2413C2.39277 1.24534 2.3897 1.25025 2.38783 1.25565C2.38595 1.26105 2.38533 1.26681 2.38601 1.27249V40.7399C2.38533 40.7456 2.38595 40.7513 2.38783 40.7567C2.3897 40.7621 2.39277 40.767 2.39681 40.7711C2.40086 40.7751 2.40576 40.7782 2.41117 40.7801C2.41657 40.7819 2.42233 40.7826 2.42801 40.7819H30.2404C30.2515 40.7819 30.2622 40.7775 30.2701 40.7696C30.278 40.7617 30.2824 40.751 30.2824 40.7399V8.85769L22.6468 1.23049H2.42801Z" stroke="#06416A" stroke-width="2.4612" stroke-linejoin="round"/>
<path d="M22.6801 8.85767H30.2779L22.6465 1.23047V8.81987C22.6472 8.82896 22.6509 8.83757 22.657 8.84439C22.663 8.85121 22.6711 8.85587 22.6801 8.85767V8.85767Z" stroke="#06416A" stroke-width="2.4612" stroke-linejoin="round"/>
<path d="M7.02734 7.63989H17.0989" stroke="#06416A" stroke-width="2.4612" stroke-miterlimit="10" stroke-linecap="round"/>
<path d="M7.02734 12.8101H17.0989" stroke="#06416A" stroke-width="2.4612" stroke-miterlimit="10" stroke-linecap="round"/>
<path d="M7.02734 23.1504H17.0989" stroke="#06416A" stroke-width="2.4612" stroke-miterlimit="10" stroke-linecap="round"/>
<path d="M7.02734 28.3206H17.0989" stroke="#06416A" stroke-width="2.4612" stroke-miterlimit="10" stroke-linecap="round"/>
<path d="M7.02734 33.4907H17.0989" stroke="#06416A" stroke-width="2.4612" stroke-miterlimit="10" stroke-linecap="round"/>
<path d="M7.02734 23.1504H17.0989" stroke="#06416A" stroke-width="2.4612" stroke-miterlimit="10" stroke-linecap="round"/>
<path d="M7.02734 28.3206H17.0989" stroke="#06416A" stroke-width="2.4612" stroke-miterlimit="10" stroke-linecap="round"/>
<path d="M30.2783 40.6309C21.0005 38.6401 20.9375 29.1061 20.9375 29.1061V21.7603L30.2783 18.3037L39.6149 21.7603V29.1061C39.6149 29.1061 39.5687 38.6401 30.2783 40.6309Z" fill="white" stroke="#06416A" stroke-width="2.4612" stroke-miterlimit="10"/>
<path d="M26.8164 29.4042L29.4582 32.046L35.1534 26.3508" fill="white"/>
<path d="M26.8164 29.4042L29.4582 32.046L35.1534 26.3508" stroke="#06416A" stroke-width="2.4612" stroke-linecap="round" stroke-linejoin="round"/>
</g>
<defs>
<clipPath id="clip0_73_14850">
<rect width="42" height="42" fill="white"/>
</clipPath>
</defs>
</svg>
