<svg width="42" height="42" viewBox="0 0 42 42" fill="none" xmlns="http://www.w3.org/2000/svg">
<path d="M40.7693 12.6293H1.23047V40.7693H40.7693V12.6293Z" stroke="#06416A" stroke-width="2.4612" stroke-linejoin="round"/>
<path d="M22.5245 12.6293H1.23047V5.15747H18.3245L22.5245 12.6293Z" stroke="#06416A" stroke-width="2.4612" stroke-linejoin="round"/>
<path d="M21.0002 34.5492C25.3355 34.5492 28.85 31.0347 28.85 26.6994C28.85 22.3641 25.3355 18.8496 21.0002 18.8496C16.6649 18.8496 13.1504 22.3641 13.1504 26.6994C13.1504 31.0347 16.6649 34.5492 21.0002 34.5492Z" stroke="#06416A" stroke-width="2.4612" stroke-linejoin="round"/>
<path d="M21.0002 31.2061V26.2207H20.2148" stroke="#06416A" stroke-width="2.4612" stroke-linecap="round" stroke-linejoin="round"/>
<path d="M20.9992 23.4318C21.3402 23.4318 21.6166 23.1554 21.6166 22.8144C21.6166 22.4734 21.3402 22.197 20.9992 22.197C20.6583 22.197 20.3818 22.4734 20.3818 22.8144C20.3818 23.1554 20.6583 23.4318 20.9992 23.4318Z" stroke="#06416A" stroke-width="2.4612" stroke-linecap="round" stroke-linejoin="round"/>
</svg>
