<svg width="42" height="42" viewBox="0 0 42 42" fill="none" xmlns="http://www.w3.org/2000/svg">
<path d="M40.6602 16.0229H1.33985C1.31666 16.0229 1.29785 16.0418 1.29785 16.0649V40.7274C1.29785 40.7505 1.31666 40.7694 1.33985 40.7694H40.6602C40.6834 40.7694 40.7023 40.7505 40.7023 40.7274V16.0649C40.7023 16.0418 40.6834 16.0229 40.6602 16.0229Z" stroke="#06416A" stroke-width="2.4612" stroke-miterlimit="10"/>
<path d="M1.29785 16.0231C1.29785 9.40808 10.1179 4.04468 21 4.04468C31.8822 4.04468 40.7023 9.40808 40.7023 16.0231" stroke="#06416A" stroke-width="2.4612" stroke-miterlimit="10"/>
<path d="M20.9994 22.26C20.9994 22.26 26.367 26.1156 26.367 30.366C26.3759 31.0315 26.2285 31.6897 25.9367 32.2879C25.6449 32.886 25.2169 33.4073 24.687 33.81C23.6386 34.6288 22.3465 35.0735 21.0162 35.0735C19.6859 35.0735 18.3939 34.6288 17.3454 33.81C16.8155 33.4073 16.3875 32.886 16.0957 32.2879C15.804 31.6897 15.6566 31.0315 15.6654 30.366C15.6318 26.1156 20.9994 22.26 20.9994 22.26Z" stroke="#06416A" stroke-width="2.4612" stroke-miterlimit="10"/>
<path d="M21.0006 28.0686C21.0006 28.0686 23.9406 30.1686 23.9406 32.5038C23.9447 32.8683 23.8628 33.2287 23.7015 33.5556C23.5402 33.8825 23.3041 34.1668 23.0124 34.3854C22.4402 34.8323 21.735 35.075 21.009 35.075C20.283 35.075 19.5778 34.8323 19.0056 34.3854C18.7107 34.1686 18.4714 33.8851 18.3072 33.5581C18.1429 33.231 18.0584 32.8698 18.0606 32.5038C18.0606 30.1812 21.0006 28.0686 21.0006 28.0686Z" stroke="#06416A" stroke-width="2.4612" stroke-miterlimit="10"/>
</svg>
