<svg width="42" height="42" viewBox="0 0 42 42" fill="none" xmlns="http://www.w3.org/2000/svg">
<g clip-path="url(#clip0_39_9945)">
<path d="M34.2557 16.296H29.6357C29.6126 16.296 29.5938 16.3148 29.5938 16.338V20.958C29.5938 20.9812 29.6126 21 29.6357 21H34.2557C34.2789 21 34.2978 20.9812 34.2978 20.958V16.338C34.2978 16.3148 34.2789 16.296 34.2557 16.296Z" stroke="#06416A" stroke-width="2.4612" stroke-miterlimit="10"/>
<path d="M34.2557 6.69897H29.6357C29.6126 6.69897 29.5938 6.71778 29.5938 6.74097V11.361C29.5938 11.3842 29.6126 11.403 29.6357 11.403H34.2557C34.2789 11.403 34.2978 11.3842 34.2978 11.361V6.74097C34.2978 6.71778 34.2789 6.69897 34.2557 6.69897Z" stroke="#06416A" stroke-width="2.4612" stroke-miterlimit="10"/>
<path d="M23.3104 16.296H18.6904C18.6672 16.296 18.6484 16.3148 18.6484 16.338V20.958C18.6484 20.9812 18.6672 21 18.6904 21H23.3104C23.3336 21 23.3524 20.9812 23.3524 20.958V16.338C23.3524 16.3148 23.3336 16.296 23.3104 16.296Z" stroke="#06416A" stroke-width="2.4612" stroke-miterlimit="10"/>
<path d="M23.3104 6.69897H18.6904C18.6672 6.69897 18.6484 6.71778 18.6484 6.74097V11.361C18.6484 11.3842 18.6672 11.403 18.6904 11.403H23.3104C23.3336 11.403 23.3524 11.3842 23.3524 11.361V6.74097C23.3524 6.71778 23.3336 6.69897 23.3104 6.69897Z" stroke="#06416A" stroke-width="2.4612" stroke-miterlimit="10"/>
<path d="M12.3651 16.296H7.74513C7.72193 16.296 7.70312 16.3148 7.70312 16.338V20.958C7.70312 20.9812 7.72193 21 7.74513 21H12.3651C12.3883 21 12.4071 20.9812 12.4071 20.958V16.338C12.4071 16.3148 12.3883 16.296 12.3651 16.296Z" stroke="#06416A" stroke-width="2.4612" stroke-miterlimit="10"/>
<path d="M12.3651 6.69897H7.74513C7.72193 6.69897 7.70312 6.71778 7.70312 6.74097V11.361C7.70312 11.3842 7.72193 11.403 7.74513 11.403H12.3651C12.3883 11.403 12.4071 11.3842 12.4071 11.361V6.74097C12.4071 6.71778 12.3883 6.69897 12.3651 6.69897Z" stroke="#06416A" stroke-width="2.4612" stroke-miterlimit="10"/>
<path d="M40.7273 1.24744H1.27247C1.24927 1.24744 1.23047 1.26624 1.23047 1.28944V40.7106C1.23047 40.7338 1.24927 40.7526 1.27247 40.7526H40.7273C40.7505 40.7526 40.7693 40.7338 40.7693 40.7106V1.28944C40.7693 1.26624 40.7505 1.24744 40.7273 1.24744Z" stroke="#06416A" stroke-width="2.4612" stroke-miterlimit="10"/>
<path d="M29.2739 27.426H12.7217C12.6985 27.426 12.6797 27.4448 12.6797 27.468V40.7106C12.6797 40.7338 12.6985 40.7526 12.7217 40.7526H29.2739C29.2971 40.7526 29.3159 40.7338 29.3159 40.7106V27.468C29.3159 27.4448 29.2971 27.426 29.2739 27.426Z" stroke="#06416A" stroke-width="2.4612" stroke-miterlimit="10"/>
<path d="M21 27.426V40.7526" stroke="#06416A" stroke-width="2.4612" stroke-miterlimit="10"/>
</g>
<defs>
<clipPath id="clip0_39_9945">
<rect width="42" height="42" fill="white"/>
</clipPath>
</defs>
</svg>
