<svg width="42" height="42" viewBox="0 0 42 42" fill="none" xmlns="http://www.w3.org/2000/svg">
<g clip-path="url(#clip0_73_15091)">
<path d="M20.8071 40.6559C30.9438 40.6559 39.1611 36.7597 39.1611 31.9535C39.1611 27.1473 30.9438 23.2511 20.8071 23.2511C10.6705 23.2511 2.45312 27.1473 2.45312 31.9535C2.45312 36.7597 10.6705 40.6559 20.8071 40.6559Z" fill="white" stroke="#06416A" stroke-width="2.4612" stroke-miterlimit="10"/>
<path d="M20.8073 33.4908C29.7192 33.4908 36.9437 26.2663 36.9437 17.3544C36.9437 8.44253 29.7192 1.21802 20.8073 1.21802C11.8954 1.21802 4.6709 8.44253 4.6709 17.3544C4.6709 26.2663 11.8954 33.4908 20.8073 33.4908Z" fill="white" stroke="#06416A" stroke-width="2.4612" stroke-miterlimit="10"/>
<path d="M20.8075 24.6415C24.832 24.6415 28.0945 21.379 28.0945 17.3545C28.0945 13.33 24.832 10.0675 20.8075 10.0675C16.783 10.0675 13.5205 13.33 13.5205 17.3545C13.5205 21.379 16.783 24.6415 20.8075 24.6415Z" fill="white" stroke="#06416A" stroke-width="2.4612" stroke-miterlimit="10"/>
<path d="M20.8062 20.2104C22.3835 20.2104 23.6622 18.9317 23.6622 17.3544C23.6622 15.7771 22.3835 14.4984 20.8062 14.4984C19.2289 14.4984 17.9502 15.7771 17.9502 17.3544C17.9502 18.9317 19.2289 20.2104 20.8062 20.2104Z" fill="white" stroke="#06416A" stroke-width="2.4612" stroke-miterlimit="10"/>
</g>
<defs>
<clipPath id="clip0_73_15091">
<rect width="42" height="42" fill="white"/>
</clipPath>
</defs>
</svg>
