<svg width="42" height="42" viewBox="0 0 42 42" fill="none" xmlns="http://www.w3.org/2000/svg">
<path d="M23.634 12.6168H18.3672C18.344 12.6168 18.3252 12.6356 18.3252 12.6588V17.9256C18.3252 17.9488 18.344 17.9676 18.3672 17.9676H23.634C23.6572 17.9676 23.676 17.9488 23.676 17.9256V12.6588C23.676 12.6356 23.6572 12.6168 23.634 12.6168Z" stroke="#06416A" stroke-width="2.4612" stroke-miterlimit="10"/>
<path d="M25.9816 10.4539H15.6748C15.6516 10.4539 15.6328 10.4727 15.6328 10.4959V12.5749C15.6328 12.5981 15.6516 12.6169 15.6748 12.6169H25.9816C26.0048 12.6169 26.0236 12.5981 26.0236 12.5749V10.4959C26.0236 10.4727 26.0048 10.4539 25.9816 10.4539Z" stroke="#06416A" stroke-width="2.4612" stroke-miterlimit="10"/>
<path d="M32.8229 17.9677H9.17687C4.78819 17.9677 1.23047 21.5254 1.23047 25.9141V32.8231C1.23047 37.2117 4.78819 40.7695 9.17687 40.7695H32.8229C37.2115 40.7695 40.7693 37.2117 40.7693 32.8231V25.9141C40.7693 21.5254 37.2115 17.9677 32.8229 17.9677Z" stroke="#06416A" stroke-width="2.4612" stroke-linecap="round" stroke-linejoin="round"/>
<path d="M1.23047 12.6168H40.7693" stroke="#06416A" stroke-width="2.4612" stroke-linecap="round" stroke-linejoin="round"/>
<path d="M20.9994 22.953C20.9994 22.953 26.367 26.8212 26.367 31.08C26.3762 31.7461 26.229 32.4051 25.9372 33.0039C25.6454 33.6028 25.2172 34.1249 24.687 34.5282C23.6386 35.347 22.3465 35.7917 21.0162 35.7917C19.686 35.7917 18.3939 35.347 17.3454 34.5282C16.8152 34.1249 16.387 33.6028 16.0953 33.0039C15.8035 32.4051 15.6563 31.7461 15.6654 31.08C15.6318 26.8212 20.9994 22.953 20.9994 22.953Z" stroke="#06416A" stroke-width="2.4612" stroke-miterlimit="10"/>
<path d="M20.9996 28.7784C20.9996 28.7784 23.9396 30.8784 23.9396 33.2094C23.9441 33.574 23.8623 33.9345 23.701 34.2615C23.5397 34.5885 23.3034 34.8727 23.0114 35.091C22.4392 35.5379 21.734 35.7806 21.008 35.7806C20.282 35.7806 19.5768 35.5379 19.0046 35.091C18.7095 34.8745 18.47 34.591 18.3057 34.2639C18.1415 33.9369 18.0571 33.5755 18.0596 33.2094C18.0596 30.891 20.9996 28.7784 20.9996 28.7784Z" stroke="#06416A" stroke-width="2.4612" stroke-miterlimit="10"/>
</svg>
