<svg width="42" height="42" viewBox="0 0 42 42" fill="none" xmlns="http://www.w3.org/2000/svg">
<g clip-path="url(#clip0_73_14822)">
<path d="M1.26004 1.23049C1.25436 1.22981 1.2486 1.23044 1.2432 1.23231C1.2378 1.23418 1.23289 1.23725 1.22884 1.2413C1.2248 1.24534 1.22173 1.25025 1.21986 1.25565C1.21798 1.26105 1.21736 1.26681 1.21804 1.27249V40.7399C1.21736 40.7456 1.21798 40.7513 1.21986 40.7567C1.22173 40.7621 1.2248 40.767 1.22884 40.7711C1.23289 40.7751 1.2378 40.7782 1.2432 40.7801C1.2486 40.7819 1.25436 40.7826 1.26004 40.7819H29.0808C29.092 40.7819 29.1027 40.7775 29.1105 40.7696C29.1184 40.7617 29.1228 40.751 29.1228 40.7399V8.85769L21.4914 1.23049H1.26004Z" stroke="#06416A" stroke-width="2.4612" stroke-linejoin="round"/>
<path d="M21.5342 8.85791H29.1236L21.4922 1.23071V8.82011C21.4932 8.83051 21.4981 8.84014 21.5059 8.84713C21.5136 8.85412 21.5237 8.85797 21.5342 8.85791V8.85791Z" stroke="#06416A" stroke-width="2.4612" stroke-linejoin="round"/>
<path d="M5.87109 7.63989H15.9427" stroke="#06416A" stroke-width="2.4612" stroke-miterlimit="10" stroke-linecap="round"/>
<path d="M5.87109 12.8101H15.9427" stroke="#06416A" stroke-width="2.4612" stroke-miterlimit="10" stroke-linecap="round"/>
<path d="M5.87109 23.1504H15.9427" stroke="#06416A" stroke-width="2.4612" stroke-miterlimit="10" stroke-linecap="round"/>
<path d="M5.87109 28.3206H15.9427" stroke="#06416A" stroke-width="2.4612" stroke-miterlimit="10" stroke-linecap="round"/>
<path d="M5.87109 33.4907H15.9427" stroke="#06416A" stroke-width="2.4612" stroke-miterlimit="10" stroke-linecap="round"/>
<path d="M5.87109 23.1504H15.9427" stroke="#06416A" stroke-width="2.4612" stroke-miterlimit="10" stroke-linecap="round"/>
<path d="M5.87109 28.3206H15.9427" stroke="#06416A" stroke-width="2.4612" stroke-miterlimit="10" stroke-linecap="round"/>
<path d="M32.3409 21.3695C32.645 21.0337 33.0454 20.8002 33.4874 20.7009C33.9293 20.6016 34.3912 20.6413 34.8097 20.8147C35.2282 20.9881 35.5828 21.2866 35.8251 21.6694C36.0673 22.0522 36.1853 22.5005 36.1629 22.9529C36.1471 23.2597 36.196 23.5663 36.3064 23.8529C36.4168 24.1396 36.5862 24.3999 36.8035 24.6169C37.0209 24.8339 37.2815 25.0027 37.5684 25.1126C37.8552 25.2224 38.1619 25.2708 38.4687 25.2545C38.9218 25.2305 39.3711 25.3477 39.7548 25.5898C40.1385 25.832 40.4376 26.1873 40.6109 26.6066C40.7842 27.0259 40.8231 27.4887 40.7222 27.9311C40.6214 28.3735 40.3858 28.7737 40.0479 29.0765C39.8207 29.2824 39.6392 29.5336 39.5149 29.8139C39.3907 30.0942 39.3265 30.3974 39.3265 30.704C39.3265 31.0106 39.3907 31.3138 39.5149 31.5941C39.6392 31.8744 39.8207 32.1256 40.0479 32.3315C40.3858 32.6343 40.6214 33.0345 40.7222 33.4769C40.8231 33.9193 40.7842 34.382 40.6109 34.8014C40.4376 35.2207 40.1385 35.576 39.7548 35.8182C39.3711 36.0603 38.9218 36.1775 38.4687 36.1535C38.1616 36.1372 37.8545 36.1856 37.5673 36.2957C37.2802 36.4058 37.0194 36.5751 36.8019 36.7925C36.5845 37.01 36.4152 37.2708 36.3051 37.5579C36.195 37.8451 36.1465 38.1522 36.1629 38.4593C36.1869 38.9124 36.0697 39.3618 35.8275 39.7455C35.5854 40.1292 35.2301 40.4283 34.8108 40.6015C34.3914 40.7748 33.9286 40.8137 33.4863 40.7128C33.0439 40.612 32.6437 40.3764 32.3409 40.0385C32.135 39.8113 31.8838 39.6298 31.6035 39.5055C31.3232 39.3813 31.02 39.3171 30.7134 39.3171C30.4068 39.3171 30.1036 39.3813 29.8233 39.5055C29.543 39.6298 29.2918 39.8113 29.0859 40.0385C28.7831 40.3764 28.3829 40.612 27.9405 40.7128C27.4981 40.8137 27.0353 40.7748 26.616 40.6015C26.1966 40.4283 25.8414 40.1292 25.5992 39.7455C25.357 39.3618 25.2399 38.9124 25.2639 38.4593C25.2802 38.1526 25.2318 37.8458 25.122 37.559C25.0121 37.2721 24.8432 37.0116 24.6262 36.7942C24.4092 36.5768 24.149 36.4074 23.8623 36.297C23.5757 36.1867 23.269 36.1378 22.9623 36.1535C22.511 36.1757 22.0638 36.0582 21.6817 35.817C21.2997 35.5758 21.0013 35.2226 20.8272 34.8057C20.6532 34.3887 20.6119 33.9282 20.7092 33.4869C20.8064 33.0457 21.0373 32.6451 21.3705 32.3399C21.5988 32.1347 21.7814 31.8837 21.9064 31.6033C22.0314 31.3229 22.096 31.0194 22.096 30.7124C22.096 30.4054 22.0314 30.1018 21.9064 29.8215C21.7814 29.5411 21.5988 29.2901 21.3705 29.0849C21.0347 28.7808 20.8012 28.3804 20.7019 27.9384C20.6026 27.4964 20.6423 27.0346 20.8157 26.6161C20.9891 26.1976 21.2876 25.8429 21.6704 25.6007C22.0531 25.3584 22.5014 25.2405 22.9539 25.2629C23.2603 25.2786 23.5665 25.2298 23.8529 25.1197C24.1392 25.0095 24.3993 24.8406 24.6162 24.6236C24.8331 24.4067 25.0021 24.1466 25.1122 23.8603C25.2224 23.574 25.2712 23.2677 25.2555 22.9613C25.233 22.5089 25.351 22.0606 25.5933 21.6778C25.8355 21.295 26.1902 20.9965 26.6086 20.8231C27.0271 20.6497 27.489 20.61 27.931 20.7093C28.3729 20.8086 28.7734 21.0421 29.0775 21.3779C29.2833 21.6071 29.5352 21.7902 29.8167 21.9153C30.0982 22.0404 30.403 22.1047 30.7111 22.1039C31.0191 22.1031 31.3235 22.0373 31.6044 21.9107C31.8852 21.7842 32.1362 21.5997 32.3409 21.3695Z" fill="white" stroke="#06416A" stroke-width="2.4612" stroke-linecap="round" stroke-linejoin="round"/>
<path d="M30.7065 34.9021C33.0238 34.9021 34.9023 33.0236 34.9023 30.7063C34.9023 28.389 33.0238 26.5105 30.7065 26.5105C28.3893 26.5105 26.5107 28.389 26.5107 30.7063C26.5107 33.0236 28.3893 34.9021 30.7065 34.9021Z" stroke="#06416A" stroke-width="2.4612" stroke-linecap="round" stroke-linejoin="round"/>
</g>
<defs>
<clipPath id="clip0_73_14822">
<rect width="42" height="42" fill="white"/>
</clipPath>
</defs>
</svg>
