<svg width="42" height="42" viewBox="0 0 42 42" fill="none" xmlns="http://www.w3.org/2000/svg">
<g clip-path="url(#clip0_73_15073)">
<path d="M23.4278 18.5767H8.68165C8.65845 18.5767 8.63965 18.5955 8.63965 18.6187V40.7275C8.63965 40.7507 8.65845 40.7695 8.68165 40.7695H23.4278C23.451 40.7695 23.4698 40.7507 23.4698 40.7275V18.6187C23.4698 18.5955 23.451 18.5767 23.4278 18.5767Z" stroke="#06416A" stroke-width="2.4612" stroke-miterlimit="10"/>
<path d="M16.3795 18.5766H6.37928C6.37928 18.5766 6.34988 18.5766 6.37928 18.5766L11.3395 13.713L16.3417 8.86623C16.3479 8.86208 16.3552 8.85986 16.3627 8.85986C16.3702 8.85986 16.3775 8.86208 16.3837 8.86623L21.3733 13.713L26.3671 18.5556C26.3671 18.5556 26.3671 18.5556 26.3461 18.5556L16.3795 18.5766Z" stroke="#06416A" stroke-width="2.4612" stroke-linecap="round" stroke-linejoin="round"/>
<path d="M22.7549 25.2209H41.9993" stroke="#06416A" stroke-width="2.4612" stroke-miterlimit="10"/>
<path d="M0 25.2209H8.6394" stroke="#06416A" stroke-width="2.4612" stroke-miterlimit="10"/>
<path d="M28.4131 25.662V42" stroke="#06416A" stroke-width="2.4612" stroke-miterlimit="10"/>
<path d="M33.3564 25.662V42" stroke="#06416A" stroke-width="2.4612" stroke-miterlimit="10"/>
<path d="M23.4697 25.662V42" stroke="#06416A" stroke-width="2.4612" stroke-miterlimit="10"/>
<path d="M38.2998 5.87585V42.0001" stroke="#06416A" stroke-width="2.4612" stroke-miterlimit="10"/>
<path d="M3.69629 25.662V42" stroke="#06416A" stroke-width="2.4612" stroke-miterlimit="10"/>
<path d="M8.63965 25.662V42" stroke="#06416A" stroke-width="2.4612" stroke-miterlimit="10"/>
<path d="M38.2998 6.16144C39.6567 6.16144 40.7568 5.0614 40.7568 3.70444C40.7568 2.34747 39.6567 1.24744 38.2998 1.24744C36.9428 1.24744 35.8428 2.34747 35.8428 3.70444C35.8428 5.0614 36.9428 6.16144 38.2998 6.16144Z" stroke="#06416A" stroke-width="2.4612" stroke-miterlimit="10"/>
</g>
<defs>
<clipPath id="clip0_73_15073">
<rect width="42" height="42" fill="white"/>
</clipPath>
</defs>
</svg>
