<svg width="42" height="42" viewBox="0 0 42 42" fill="none" xmlns="http://www.w3.org/2000/svg">
<g clip-path="url(#clip0_73_14877)">
<path d="M15.0907 17.9719H1.25586V24.0367H15.0907V17.9719Z" stroke="#06416A" stroke-width="2.4612" stroke-linecap="round" stroke-linejoin="round"/>
<path d="M31.202 17.9719H17.3672V24.0367H31.202V17.9719Z" stroke="#06416A" stroke-width="2.4612" stroke-linecap="round" stroke-linejoin="round"/>
<path d="M15.1112 1.23071H1.27637V7.29551H15.1112V1.23071Z" stroke="#06416A" stroke-width="2.4612" stroke-linecap="round" stroke-linejoin="round"/>
<path d="M31.2225 1.23071H17.3877V7.29551H31.2225V1.23071Z" stroke="#06416A" stroke-width="2.4612" stroke-linecap="round" stroke-linejoin="round"/>
<path d="M15.0907 34.7173H1.25586V40.7821H15.0907V34.7173Z" stroke="#06416A" stroke-width="2.4612" stroke-linecap="round" stroke-linejoin="round"/>
<path d="M31.202 34.7173H17.3672V40.7821H31.202V34.7173Z" stroke="#06416A" stroke-width="2.4612" stroke-linecap="round" stroke-linejoin="round"/>
<path d="M-1.02441 26.3467H5.89299V32.4115H-1.02441" stroke="#06416A" stroke-width="2.4612" stroke-linecap="round" stroke-linejoin="round"/>
<path d="M31.2016 26.3467H24.2842V32.4115H31.2016V26.3467Z" stroke="#06416A" stroke-width="2.4612" stroke-linecap="round" stroke-linejoin="round"/>
<path d="M31.2016 9.60107H24.2842V15.6659H31.2016V9.60107Z" stroke="#06416A" stroke-width="2.4612" stroke-linecap="round" stroke-linejoin="round"/>
<path d="M22.0086 26.3467H8.17383V32.4115H22.0086V26.3467Z" stroke="#06416A" stroke-width="2.4612" stroke-linecap="round" stroke-linejoin="round"/>
<path d="M-1.02441 9.60107H5.89299V15.6659H-1.02441" stroke="#06416A" stroke-width="2.4612" stroke-linecap="round" stroke-linejoin="round"/>
<path d="M22.0086 9.60107H8.17383V15.6659H22.0086V9.60107Z" stroke="#06416A" stroke-width="2.4612" stroke-linecap="round" stroke-linejoin="round"/>
<path d="M27.1193 13.062C24.3589 13.0627 21.6473 13.7901 19.2572 15.171C16.867 16.5519 14.8824 18.5376 13.5029 20.9286C14.8801 23.3216 16.8638 25.3093 19.2539 26.6914C21.644 28.0736 24.3562 28.8013 27.1172 28.8013C29.8782 28.8013 32.5904 28.0736 34.9806 26.6914C37.3707 25.3093 39.3543 23.3216 40.7315 20.9286C39.3534 18.5374 37.3697 16.5513 34.9801 15.1703C32.5905 13.7894 29.8793 13.0622 27.1193 13.062Z" fill="white" stroke="#06416A" stroke-width="2.4612" stroke-linecap="round" stroke-linejoin="round"/>
<path d="M27.1197 24.4901C29.0287 24.4901 30.5763 22.9425 30.5763 21.0335C30.5763 19.1245 29.0287 17.5769 27.1197 17.5769C25.2107 17.5769 23.6631 19.1245 23.6631 21.0335C23.6631 22.9425 25.2107 24.4901 27.1197 24.4901Z" stroke="#06416A" stroke-width="2.4612" stroke-linecap="round" stroke-linejoin="round"/>
</g>
<defs>
<clipPath id="clip0_73_14877">
<rect width="42" height="42" fill="white"/>
</clipPath>
</defs>
</svg>
