<svg width="42" height="42" viewBox="0 0 42 42" fill="none" xmlns="http://www.w3.org/2000/svg">
<path d="M33.7438 19.6266H25.5664V25.8846H31.5808C32.1541 25.8857 32.7037 26.1139 33.1091 26.5193C33.5145 26.9247 33.7427 27.4743 33.7438 28.0476V34.062H40.006V25.8846C40.0049 24.2245 39.3446 22.6327 38.1704 21.4593C36.9961 20.2858 35.4039 19.6266 33.7438 19.6266Z" stroke="#06416A" stroke-width="2.4612" stroke-linecap="round" stroke-linejoin="round"/>
<path d="M8.25214 19.6266H16.4337V25.8846H10.4193C9.84529 25.8846 9.29469 26.1123 8.88838 26.5179C8.48207 26.9234 8.25325 27.4735 8.25214 28.0476V34.062H1.99414V25.8846C1.99414 24.2249 2.65346 22.6331 3.82707 21.4595C5.00067 20.2859 6.59242 19.6266 8.25214 19.6266V19.6266Z" stroke="#06416A" stroke-width="2.4612" stroke-linecap="round" stroke-linejoin="round"/>
<path d="M25.5231 18.1691H16.4385C16.4153 18.1691 16.3965 18.1879 16.3965 18.2111V27.2957C16.3965 27.3189 16.4153 27.3377 16.4385 27.3377H25.5231C25.5463 27.3377 25.5651 27.3189 25.5651 27.2957V18.2111C25.5651 18.1879 25.5463 18.1691 25.5231 18.1691Z" fill="white" stroke="#06416A" stroke-width="2.4612" stroke-miterlimit="10"/>
<path d="M9.17013 31.4958H1.27833C1.25513 31.4958 1.23633 31.5147 1.23633 31.5378V34.9063C1.23633 34.9294 1.25513 34.9483 1.27833 34.9483H9.17013C9.19332 34.9483 9.21213 34.9294 9.21213 34.9063V31.5378C9.21213 31.5147 9.19332 31.4958 9.17013 31.4958Z" fill="white" stroke="#06416A" stroke-width="2.4612" stroke-miterlimit="10"/>
<path d="M8.41594 34.9482H2.03614C2.01294 34.9482 1.99414 34.967 1.99414 34.9902V40.5678C1.99414 40.591 2.01294 40.6098 2.03614 40.6098H8.41594C8.43914 40.6098 8.45794 40.591 8.45794 40.5678V34.9902C8.45794 34.967 8.43914 34.9482 8.41594 34.9482Z" fill="white" stroke="#06416A" stroke-width="2.4612" stroke-miterlimit="10"/>
<path d="M39.9628 34.9482H33.583C33.5598 34.9482 33.541 34.967 33.541 34.9902V40.5678C33.541 40.591 33.5598 40.6098 33.583 40.6098H39.9628C39.986 40.6098 40.0048 40.591 40.0048 40.5678V34.9902C40.0048 34.967 39.986 34.9482 39.9628 34.9482Z" fill="white" stroke="#06416A" stroke-width="2.4612" stroke-miterlimit="10"/>
<path d="M40.719 31.4958H32.8272C32.804 31.4958 32.7852 31.5147 32.7852 31.5378V34.9063C32.7852 34.9294 32.804 34.9483 32.8272 34.9483H40.719C40.7422 34.9483 40.761 34.9294 40.761 34.9063V31.5378C40.761 31.5147 40.7422 31.4958 40.719 31.4958Z" fill="white" stroke="#06416A" stroke-width="2.4612" stroke-miterlimit="10"/>
<path d="M23.8402 14.9059H18.124C18.1008 14.9059 18.082 14.9247 18.082 14.9479V18.1273C18.082 18.1505 18.1008 18.1693 18.124 18.1693H23.8402C23.8634 18.1693 23.8822 18.1505 23.8822 18.1273V14.9479C23.8822 14.9247 23.8634 14.9059 23.8402 14.9059Z" fill="white" stroke="#06416A" stroke-width="2.4612" stroke-miterlimit="10"/>
<path d="M29.4083 7.03503H12.5537C12.5305 7.03503 12.5117 7.05384 12.5117 7.07703V10.4454C12.5117 10.4686 12.5305 10.4874 12.5537 10.4874H29.4083C29.4315 10.4874 29.4503 10.4686 29.4503 10.4454V7.07703C29.4503 7.05384 29.4315 7.03503 29.4083 7.03503Z" fill="white" stroke="#06416A" stroke-width="2.4612" stroke-miterlimit="10"/>
<path d="M19.252 10.5294V14.6748C19.252 14.698 19.2708 14.7168 19.294 14.7168H22.6624C22.6855 14.7168 22.7044 14.698 22.7044 14.6748V10.5294C22.7044 10.5062 22.6855 10.4874 22.6624 10.4874H19.294C19.2708 10.4874 19.252 10.5062 19.252 10.5294Z" fill="white" stroke="#06416A" stroke-width="2.4612" stroke-miterlimit="10"/>
</svg>
