<svg width="42" height="42" viewBox="0 0 42 42" fill="none" xmlns="http://www.w3.org/2000/svg">
<g clip-path="url(#clip0_73_15055)">
<path d="M3.03641 1.23061C3.03073 1.22994 3.02497 1.23056 3.01957 1.23243C3.01416 1.2343 3.00926 1.23737 3.00521 1.24142C3.00117 1.24546 2.9981 1.25037 2.99622 1.25577C2.99435 1.26118 2.99373 1.26693 2.99441 1.27261V40.74C2.99373 40.7457 2.99435 40.7514 2.99622 40.7569C2.9981 40.7623 3.00117 40.7672 3.00521 40.7712C3.00926 40.7752 3.01416 40.7783 3.01957 40.7802C3.02497 40.7821 3.03073 40.7827 3.03641 40.782H30.8404C30.8463 40.7826 30.8522 40.7819 30.8578 40.7801C30.8634 40.7783 30.8685 40.7753 30.8729 40.7713C30.8772 40.7673 30.8807 40.7625 30.8831 40.7571C30.8854 40.7517 30.8866 40.7459 30.8866 40.74V8.85781L23.2552 1.23061H3.03641Z" stroke="#06416A" stroke-width="2.4612" stroke-linejoin="round"/>
<path d="M23.2969 8.85779H30.8863L23.2549 1.23059V8.81999C23.2559 8.83039 23.2608 8.84002 23.2686 8.84701C23.2763 8.854 23.2864 8.85784 23.2969 8.85779V8.85779Z" stroke="#06416A" stroke-width="2.4612" stroke-linejoin="round"/>
<path d="M30.8821 35.3892C23.2927 33.747 23.2549 25.9728 23.2549 25.9728V19.971L30.8821 17.1528L38.5135 19.971V25.9728C38.5135 25.9728 38.4757 33.747 30.8821 35.3892Z" fill="white" stroke="#06416A" stroke-width="2.4612" stroke-miterlimit="10"/>
<path d="M7.63574 7.63977H17.7073" stroke="#06416A" stroke-width="2.4612" stroke-miterlimit="10" stroke-linecap="round"/>
<path d="M7.63574 12.8101H17.7073" stroke="#06416A" stroke-width="2.4612" stroke-miterlimit="10" stroke-linecap="round"/>
<path d="M7.63574 23.1504H17.7073" stroke="#06416A" stroke-width="2.4612" stroke-miterlimit="10" stroke-linecap="round"/>
<path d="M7.63574 28.3206H17.7073" stroke="#06416A" stroke-width="2.4612" stroke-miterlimit="10" stroke-linecap="round"/>
<path d="M7.63574 33.4908H17.7073" stroke="#06416A" stroke-width="2.4612" stroke-miterlimit="10" stroke-linecap="round"/>
<path d="M7.63574 23.1504H17.7073" stroke="#06416A" stroke-width="2.4612" stroke-miterlimit="10" stroke-linecap="round"/>
<path d="M7.63574 28.3206H17.7073" stroke="#06416A" stroke-width="2.4612" stroke-miterlimit="10" stroke-linecap="round"/>
</g>
<defs>
<clipPath id="clip0_73_15055">
<rect width="42" height="42" fill="white"/>
</clipPath>
</defs>
</svg>
