<svg width="42" height="42" viewBox="0 0 42 42" fill="none" xmlns="http://www.w3.org/2000/svg">
<g clip-path="url(#clip0_73_14840)">
<path d="M21.1937 5.06094C21.7119 4.48472 22.396 4.08336 23.1518 3.91215C23.9076 3.74095 24.6978 3.80833 25.4137 4.10501C26.1296 4.40168 26.7359 4.91306 27.1491 5.56868C27.5622 6.22431 27.7619 6.99191 27.7205 7.76574C27.6946 8.2892 27.7787 8.81228 27.9674 9.30125C28.156 9.79022 28.4451 10.2342 28.8159 10.6046C29.1867 10.975 29.631 11.2636 30.1202 11.4517C30.6093 11.6399 31.1325 11.7234 31.6559 11.6969C32.4285 11.6576 33.1942 11.8584 33.8481 12.2717C34.5019 12.6851 35.0118 13.2906 35.3077 14.0053C35.6036 14.72 35.6711 15.5088 35.5008 16.2634C35.3304 17.0179 34.9307 17.7012 34.3565 18.2195C33.9676 18.5708 33.6567 18.9998 33.4439 19.4787C33.231 19.9576 33.1211 20.4759 33.1211 20.9999C33.1211 21.524 33.231 22.0423 33.4439 22.5212C33.6567 23.0001 33.9676 23.4291 34.3565 23.7803C34.9307 24.2986 35.3304 24.982 35.5008 25.7365C35.6711 26.4911 35.6036 27.2798 35.3077 27.9945C35.0118 28.7092 34.5019 29.3148 33.8481 29.7281C33.1942 30.1415 32.4285 30.3422 31.6559 30.3029C31.1325 30.2765 30.6093 30.36 30.1202 30.5482C29.631 30.7363 29.1867 31.0249 28.8159 31.3953C28.4451 31.7657 28.156 32.2097 27.9674 32.6986C27.7787 33.1876 27.6946 33.7107 27.7205 34.2341C27.7666 35.0098 27.5704 35.7806 27.159 36.4397C26.7476 37.0989 26.1415 37.6139 25.4245 37.9133C24.7075 38.2128 23.9151 38.2819 23.1571 38.1111C22.3991 37.9402 21.713 37.538 21.1937 36.9599C20.8428 36.5704 20.414 36.259 19.935 36.0458C19.456 35.8326 18.9376 35.7224 18.4133 35.7224C17.8891 35.7224 17.3706 35.8326 16.8916 36.0458C16.4127 36.259 15.9838 36.5704 15.6329 36.9599C15.1144 37.5345 14.4307 37.9344 13.6757 38.1046C12.9207 38.2748 12.1315 38.2071 11.4166 37.9106C10.7017 37.6141 10.0961 37.1035 9.68317 36.449C9.2702 35.7944 9.07009 35.028 9.11033 34.2551C9.13685 33.7319 9.05332 33.2089 8.86514 32.7199C8.67696 32.231 8.38831 31.7869 8.01784 31.4164C7.64737 31.046 7.20331 30.7573 6.71435 30.5691C6.22538 30.381 5.70239 30.2974 5.17913 30.3239C4.40153 30.3696 3.62901 30.1718 2.96907 29.758C2.30912 29.3442 1.79457 28.735 1.49701 28.0151C1.19945 27.2953 1.13368 26.5005 1.30884 25.7415C1.48401 24.9825 1.8914 24.297 2.47433 23.7803C2.86386 23.4294 3.17531 23.0006 3.3885 22.5216C3.60169 22.0426 3.71185 21.5242 3.71185 20.9999C3.71185 20.4757 3.60169 19.9572 3.3885 19.4783C3.17531 18.9993 2.86386 18.5704 2.47433 18.2195C1.89977 17.701 1.4999 17.0173 1.32967 16.2623C1.15944 15.5073 1.22721 14.7181 1.52367 14.0032C1.82013 13.2883 2.33073 12.6827 2.98529 12.2698C3.63985 11.8568 4.40624 11.6567 5.17913 11.6969C5.70239 11.7235 6.22538 11.6399 6.71435 11.4517C7.20331 11.2636 7.64737 10.9749 8.01784 10.6044C8.38831 10.234 8.67696 9.78992 8.86514 9.30096C9.05332 8.81199 9.13685 8.289 9.11033 7.76574C9.07009 6.99285 9.2702 6.22646 9.68317 5.5719C10.0961 4.91734 10.7017 4.40674 11.4166 4.11028C12.1315 3.81382 12.9207 3.74605 13.6757 3.91628C14.4307 4.08651 15.1144 4.48638 15.6329 5.06094C15.9838 5.45047 16.4127 5.76192 16.8916 5.97511C17.3706 6.1883 17.8891 6.29846 18.4133 6.29846C18.9376 6.29846 19.456 6.1883 19.935 5.97511C20.414 5.76192 20.8428 5.45047 21.1937 5.06094Z" fill="white" stroke="#06416A" stroke-width="2.4612" stroke-linecap="round" stroke-linejoin="round"/>
<path d="M18.413 28.1611C22.3679 28.1611 25.574 24.955 25.574 21.0001C25.574 17.0452 22.3679 13.8391 18.413 13.8391C14.458 13.8391 11.252 17.0452 11.252 21.0001C11.252 24.955 14.458 28.1611 18.413 28.1611Z" stroke="#06416A" stroke-width="2.4612" stroke-linecap="round" stroke-linejoin="round"/>
<path d="M31.3737 40.6309C22.0833 38.6401 22.0371 29.1061 22.0371 29.1061V21.7603L31.3737 18.3037L40.7145 21.7603V29.1061C40.7145 29.1061 40.6683 38.6401 31.3737 40.6309Z" fill="white" stroke="#06416A" stroke-width="2.4612" stroke-miterlimit="10"/>
<path d="M27.917 29.4042L30.5588 32.046L36.254 26.3508" fill="white"/>
<path d="M27.917 29.4042L30.5588 32.046L36.254 26.3508" stroke="#06416A" stroke-width="2.4612" stroke-linecap="round" stroke-linejoin="round"/>
</g>
<defs>
<clipPath id="clip0_73_14840">
<rect width="42" height="42" fill="white"/>
</clipPath>
</defs>
</svg>
