<svg width="42" height="42" viewBox="0 0 42 42" fill="none" xmlns="http://www.w3.org/2000/svg">
<g clip-path="url(#clip0_73_15147)">
<path d="M22.5121 1.25159H14.6035V17.0352H22.5121V9.16019H40.7695V1.25159H22.5121Z" stroke="#06416A" stroke-width="2.4612" stroke-linecap="round" stroke-linejoin="round"/>
<path d="M22.5121 40.7274H14.6035V24.9438H22.5121V32.823H40.7695V40.7274H22.5121Z" stroke="#06416A" stroke-width="2.4612" stroke-linecap="round" stroke-linejoin="round"/>
<path d="M1.23073 24.9438L40.7695 24.9438V17.0352L1.23073 17.0352V24.9438Z" stroke="#06416A" stroke-width="2.4612" stroke-linecap="round" stroke-linejoin="round"/>
<path d="M25.3341 15.4895H10.7979C10.7747 15.4895 10.7559 15.5083 10.7559 15.5315V26.4725C10.7559 26.4957 10.7747 26.5145 10.7979 26.5145H25.3341C25.3573 26.5145 25.3761 26.4957 25.3761 26.4725V15.5315C25.3761 15.5083 25.3573 15.4895 25.3341 15.4895Z" fill="white" stroke="#06416A" stroke-width="2.4612" stroke-miterlimit="10"/>
</g>
<defs>
<clipPath id="clip0_73_15147">
<rect width="42" height="42" fill="white"/>
</clipPath>
</defs>
</svg>
