<svg width="42" height="42" viewBox="0 0 42 42" fill="none" xmlns="http://www.w3.org/2000/svg">
<g clip-path="url(#clip0_73_14986)">
<path d="M17.3634 21.2227H1.19337C1.17017 21.2227 1.15137 21.2415 1.15137 21.2647V37.4347C1.15137 37.4579 1.17017 37.4767 1.19337 37.4767H17.3634C17.3866 37.4767 17.4054 37.4579 17.4054 37.4347V21.2647C17.4054 21.2415 17.3866 21.2227 17.3634 21.2227Z" stroke="#06416A" stroke-width="2.4612" stroke-miterlimit="10"/>
<path d="M11.0924 21.2227H7.46778C7.44459 21.2227 7.42578 21.2415 7.42578 21.2647V24.8893C7.42578 24.9125 7.44459 24.9313 7.46778 24.9313H11.0924C11.1156 24.9313 11.1344 24.9125 11.1344 24.8893V21.2647C11.1344 21.2415 11.1156 21.2227 11.0924 21.2227Z" stroke="#06416A" stroke-width="2.4612" stroke-miterlimit="10"/>
<path d="M40.8067 21.2227H24.6367C24.6135 21.2227 24.5947 21.2415 24.5947 21.2647V37.4347C24.5947 37.4579 24.6135 37.4767 24.6367 37.4767H40.8067C40.8299 37.4767 40.8487 37.4579 40.8487 37.4347V21.2647C40.8487 21.2415 40.8299 21.2227 40.8067 21.2227Z" stroke="#06416A" stroke-width="2.4612" stroke-miterlimit="10"/>
<path d="M34.5318 21.2227H30.9072C30.884 21.2227 30.8652 21.2415 30.8652 21.2647V24.8893C30.8652 24.9125 30.884 24.9313 30.9072 24.9313H34.5318C34.555 24.9313 34.5738 24.9125 34.5738 24.8893V21.2647C34.5738 21.2415 34.555 21.2227 34.5318 21.2227Z" stroke="#06416A" stroke-width="2.4612" stroke-miterlimit="10"/>
<path d="M6.74512 4.67456V15.1746" stroke="#06416A" stroke-width="2.4612" stroke-linecap="round" stroke-linejoin="round"/>
<path d="M11.5215 4.67456V15.1746" stroke="#06416A" stroke-width="2.4612" stroke-linecap="round" stroke-linejoin="round"/>
<path d="M16.2998 4.67456V15.1746" stroke="#06416A" stroke-width="2.4612" stroke-linecap="round" stroke-linejoin="round"/>
<path d="M21.0801 4.67456V15.1746" stroke="#06416A" stroke-width="2.4612" stroke-linecap="round" stroke-linejoin="round"/>
<path d="M25.8545 4.67456V15.1746" stroke="#06416A" stroke-width="2.4612" stroke-linecap="round" stroke-linejoin="round"/>
<path d="M30.6348 4.67456V15.1746" stroke="#06416A" stroke-width="2.4612" stroke-linecap="round" stroke-linejoin="round"/>
<path d="M35.415 4.67456V15.1746" stroke="#06416A" stroke-width="2.4612" stroke-linecap="round" stroke-linejoin="round"/>
<path d="M1.31055 4.52759H40.8493" stroke="#06416A" stroke-width="2.4612" stroke-linecap="round" stroke-linejoin="round"/>
<path d="M1.31055 15.1746H40.8493" stroke="#06416A" stroke-width="2.4612" stroke-linecap="round" stroke-linejoin="round"/>
</g>
<defs>
<clipPath id="clip0_73_14986">
<rect width="42" height="42" fill="white"/>
</clipPath>
</defs>
</svg>
