<svg width="42" height="42" viewBox="0 0 42 42" fill="none" xmlns="http://www.w3.org/2000/svg">
<g clip-path="url(#clip0_73_15030)">
<path d="M27.7448 14.0868H1.27637C1.25318 14.0868 1.23438 14.1056 1.23438 14.1288V34.9734C1.23438 34.9966 1.25318 35.0154 1.27637 35.0154H27.7448C27.768 35.0154 27.7868 34.9966 27.7868 34.9734V14.1288C27.7868 14.1056 27.768 14.0868 27.7448 14.0868Z" stroke="#06416A" stroke-width="2.4612" stroke-miterlimit="10"/>
<path d="M18.8036 20.7438H10.2188C10.1956 20.7438 10.1768 20.7626 10.1768 20.7858V34.9692C10.1768 34.9924 10.1956 35.0112 10.2188 35.0112H18.8036C18.8268 35.0112 18.8456 34.9924 18.8456 34.9692V20.7858C18.8456 20.7626 18.8268 20.7438 18.8036 20.7438Z" stroke="#06416A" stroke-width="2.4612" stroke-miterlimit="10"/>
<path d="M14.5102 14.0868H1.25922C1.25922 14.0868 1.22142 14.0868 1.23402 14.0616L7.86162 7.63139L14.485 1.20119C14.4929 1.19539 14.5025 1.19226 14.5123 1.19226C14.5221 1.19226 14.5317 1.19539 14.5396 1.20119L21.1588 7.63139L27.7822 14.0616C27.7822 14.0616 27.7822 14.0868 27.757 14.0868H14.5102Z" stroke="#06416A" stroke-width="2.4612" stroke-miterlimit="10"/>
<path d="M24.3214 26.2668C30.4219 26.2668 35.3674 21.3213 35.3674 15.2208C35.3674 9.12027 30.4219 4.1748 24.3214 4.1748C18.2209 4.1748 13.2754 9.12027 13.2754 15.2208C13.2754 21.3213 18.2209 26.2668 24.3214 26.2668Z" fill="white" stroke="#06416A" stroke-width="2.4612" stroke-miterlimit="10"/>
<path d="M30.4717 24.9564L32.8951 29.1522" stroke="#06416A" stroke-width="2.4612" stroke-miterlimit="10"/>
<path d="M34.62 28.1541L31.1682 30.147C31.1481 30.1586 31.1412 30.1843 31.1528 30.2043L37.2407 40.7489C37.2523 40.769 37.278 40.7759 37.2981 40.7643L40.7499 38.7714C40.77 38.7598 40.7769 38.7341 40.7653 38.714L34.6774 28.1694C34.6658 28.1494 34.6401 28.1425 34.62 28.1541Z" stroke="#06416A" stroke-width="2.4612" stroke-miterlimit="10"/>
</g>
<defs>
<clipPath id="clip0_73_15030">
<rect width="42" height="42" fill="white"/>
</clipPath>
</defs>
</svg>
