<svg width="42" height="42" viewBox="0 0 42 42" fill="none" xmlns="http://www.w3.org/2000/svg">
<g clip-path="url(#clip0_39_9963)">
<path d="M37.2871 34.0914H4.71192C4.68873 34.0914 4.66992 34.1102 4.66992 34.1334V40.7274C4.66992 40.7506 4.68873 40.7694 4.71192 40.7694H37.2871C37.3103 40.7694 37.3291 40.7506 37.3291 40.7274V34.1334C37.3291 34.1102 37.3103 34.0914 37.2871 34.0914Z" stroke="#06416A" stroke-width="2.4612" stroke-miterlimit="10"/>
<path d="M37.2871 11.3988H4.71192C4.68873 11.3988 4.66992 11.4176 4.66992 11.4408V18.0348C4.66992 18.058 4.68873 18.0768 4.71192 18.0768H37.2871C37.3103 18.0768 37.3291 18.058 37.3291 18.0348V11.4408C37.3291 11.4176 37.3103 11.3988 37.2871 11.3988Z" stroke="#06416A" stroke-width="2.4612" stroke-miterlimit="10"/>
<path d="M7.86719 18.081L7.86719 34.0452C7.86719 34.0684 7.88599 34.0872 7.90919 34.0872H15.927C15.9502 34.0872 15.969 34.0684 15.969 34.0452L15.969 18.081C15.969 18.0578 15.9502 18.039 15.927 18.039H7.90919C7.88599 18.039 7.86719 18.0578 7.86719 18.081Z" stroke="#06416A" stroke-width="2.4612" stroke-miterlimit="10"/>
<path d="M26.0352 18.081V34.0452C26.0352 34.0684 26.054 34.0872 26.0772 34.0872H34.095C34.1182 34.0872 34.137 34.0684 34.137 34.0452V18.081C34.137 18.0578 34.1182 18.039 34.095 18.039H26.0772C26.054 18.039 26.0352 18.0578 26.0352 18.081Z" stroke="#06416A" stroke-width="2.4612" stroke-miterlimit="10"/>
<path d="M21.0002 11.3988H1.26024C1.22664 11.3988 1.20144 11.3988 1.21824 11.3778L11.1008 6.30002L20.9624 1.26002C20.987 1.2517 21.0135 1.2517 21.038 1.26002L30.8996 6.30002L40.7654 11.3778C40.7654 11.3778 40.7654 11.3988 40.7234 11.3988H21.0002Z" stroke="#06416A" stroke-width="2.4612" stroke-miterlimit="10"/>
</g>
<defs>
<clipPath id="clip0_39_9963">
<rect width="42" height="42" fill="white"/>
</clipPath>
</defs>
</svg>
