<svg width="42" height="42" viewBox="0 0 42 42" fill="none" xmlns="http://www.w3.org/2000/svg">
<g clip-path="url(#clip0_73_15134)">
<path d="M24.1298 30.4752H17.834V35.4648H24.1298V30.4752Z" stroke="#06416A" stroke-width="2.4612" stroke-miterlimit="10"/>
<path d="M1.23047 40.7694H40.7693" stroke="#06416A" stroke-width="2.4612" stroke-miterlimit="10" stroke-linecap="round"/>
<path d="M20.9996 1.52466C20.9996 1.52466 33.0956 10.2523 33.0956 19.8451C33.1119 21.3522 32.7732 22.842 32.1071 24.194C31.4409 25.546 30.466 26.7222 29.261 27.6277C26.8945 29.4729 23.9795 30.4751 20.9786 30.4751C17.9777 30.4751 15.0627 29.4729 12.6962 27.6277C11.4921 26.7218 10.5179 25.5453 9.8525 24.1934C9.18709 22.8414 8.84909 21.3518 8.86583 19.8451C8.86583 10.2523 20.9996 1.52466 20.9996 1.52466Z" stroke="#06416A" stroke-width="2.4612" stroke-miterlimit="10"/>
<path d="M21.001 12.8058C21.001 12.8058 28.3762 18.1314 28.3762 23.9862C28.3854 24.9054 28.1789 25.814 27.7733 26.6389C27.3678 27.4639 26.7745 28.1823 26.041 28.7364C24.5971 29.8634 22.818 30.4755 20.9863 30.4755C19.1546 30.4755 17.3755 29.8634 15.9316 28.7364C15.1959 28.1841 14.6007 27.4662 14.1942 26.6409C13.7878 25.8156 13.5815 24.9061 13.5922 23.9862C13.588 18.1314 21.001 12.8058 21.001 12.8058Z" stroke="#06416A" stroke-width="2.4612" stroke-miterlimit="10"/>
<path d="M12.0243 35.4648H29.9751C31.2839 35.4648 32.5392 35.9848 33.4646 36.9103C34.3901 37.8358 34.9101 39.091 34.9101 40.3998V40.74C34.9101 40.7512 34.9056 40.7619 34.8978 40.7697C34.8899 40.7776 34.8792 40.782 34.8681 40.782H7.13967C7.12853 40.782 7.11785 40.7776 7.10997 40.7697C7.1021 40.7619 7.09767 40.7512 7.09767 40.74V40.4124C7.09602 39.764 7.22216 39.1216 7.4689 38.522C7.71564 37.9223 8.07814 37.3772 8.53567 36.9177C8.9932 36.4582 9.5368 36.0934 10.1354 35.8441C10.734 35.5948 11.3758 35.4659 12.0243 35.4648V35.4648Z" stroke="#06416A" stroke-width="2.4612" stroke-miterlimit="10"/>
<path d="M3.93945 40.7695V34.7887L8.19405 30.5341" stroke="#06416A" stroke-width="2.4612" stroke-miterlimit="10" stroke-linecap="round"/>
<path d="M38.0612 40.7695V34.7887L33.8066 30.5341" stroke="#06416A" stroke-width="2.4612" stroke-miterlimit="10" stroke-linecap="round"/>
</g>
<defs>
<clipPath id="clip0_73_15134">
<rect width="42" height="42" fill="white"/>
</clipPath>
</defs>
</svg>
