<svg width="42" height="42" viewBox="0 0 42 42" fill="none" xmlns="http://www.w3.org/2000/svg">
<g clip-path="url(#clip0_39_9939)">
<path d="M38.8112 30.4919H9.32716C9.30396 30.4919 9.28516 30.5107 9.28516 30.5339V40.7357C9.28516 40.7589 9.30396 40.7777 9.32716 40.7777H38.8112C38.8344 40.7777 38.8532 40.7589 38.8532 40.7357V30.5339C38.8532 30.5107 38.8344 30.4919 38.8112 30.4919Z" stroke="#06416A" stroke-width="2.4612" stroke-miterlimit="10"/>
<path d="M9.24908 25.8846H3.18848C3.16529 25.8846 3.14648 25.9034 3.14648 25.9266V40.7358C3.14648 40.759 3.16529 40.7778 3.18848 40.7778H9.24908C9.27228 40.7778 9.29108 40.759 9.29108 40.7358V25.9266C9.29108 25.9034 9.27228 25.8846 9.24908 25.8846Z" stroke="#06416A" stroke-width="2.4612" stroke-miterlimit="10"/>
<path d="M13.8555 6.11934L13.8555 30.4499C13.8555 30.4731 13.8743 30.4919 13.8975 30.4919H33.7215C33.7447 30.4919 33.7635 30.4731 33.7635 30.4499V6.11934C33.7635 6.09614 33.7447 6.07734 33.7215 6.07734H13.8975C13.8743 6.07734 13.8555 6.09614 13.8555 6.11934Z" stroke="#06416A" stroke-width="2.4612" stroke-miterlimit="10"/>
<path d="M35.8513 1.26005V30.45C35.8503 30.4627 35.8445 30.4744 35.8352 30.483C35.8258 30.4916 35.8136 30.4963 35.8009 30.4962H18.4801C18.4737 30.4968 18.4672 30.4961 18.4611 30.494C18.455 30.492 18.4494 30.4886 18.4447 30.4843C18.44 30.4799 18.4362 30.4747 18.4336 30.4688C18.431 30.4629 18.4297 30.4565 18.4297 30.45V14.007C18.4271 14.0018 18.4258 13.9961 18.4258 13.9902C18.4258 13.9844 18.4271 13.9787 18.4297 13.9734L35.7673 1.23065C35.774 1.22445 35.7823 1.22019 35.7913 1.21833C35.8002 1.21648 35.8095 1.21709 35.8182 1.22011C35.8268 1.22314 35.8344 1.22845 35.8403 1.23548C35.8461 1.24252 35.8499 1.25101 35.8513 1.26005Z" fill="white" stroke="#06416A" stroke-width="2.4612" stroke-miterlimit="10"/>
<path d="M31.0547 13.1838V25.746" stroke="#06416A" stroke-width="2.4612" stroke-miterlimit="10" stroke-linecap="round"/>
</g>
<defs>
<clipPath id="clip0_39_9939">
<rect width="42" height="42" fill="white"/>
</clipPath>
</defs>
</svg>
