<svg width="42" height="42" viewBox="0 0 42 42" fill="none" xmlns="http://www.w3.org/2000/svg">
<path d="M20.9999 3.05334L40.7693 14.0027V38.9465H35.4143V17.5307H20.9999H6.58547V38.9465H1.23047V14.0027L20.9999 3.05334Z" stroke="#06416A" stroke-width="2.4612" stroke-linecap="round" stroke-linejoin="round"/>
<path d="M6.58496 21H35.4138" stroke="#06416A" stroke-width="2.4612" stroke-linecap="round" stroke-linejoin="round"/>
<path d="M6.58496 24.444H35.4138" stroke="#06416A" stroke-width="2.4612" stroke-linecap="round" stroke-linejoin="round"/>
<path d="M31.9118 28.6608H21.71C21.6868 28.6608 21.668 28.6796 21.668 28.7028V38.9046C21.668 38.9278 21.6868 38.9466 21.71 38.9466H31.9118C31.935 38.9466 31.9538 38.9278 31.9538 38.9046V28.7028C31.9538 28.6796 31.935 28.6608 31.9118 28.6608Z" stroke="#06416A" stroke-width="2.4612" stroke-miterlimit="10"/>
<path d="M27.9435 28.6608H25.6797C25.6565 28.6608 25.6377 28.6796 25.6377 28.7028V30.9666C25.6377 30.9898 25.6565 31.0086 25.6797 31.0086H27.9435C27.9667 31.0086 27.9855 30.9898 27.9855 30.9666V28.7028C27.9855 28.6796 27.9667 28.6608 27.9435 28.6608Z" stroke="#06416A" stroke-width="2.4612" stroke-miterlimit="10"/>
</svg>
