<svg width="42" height="42" viewBox="0 0 42 42" fill="none" xmlns="http://www.w3.org/2000/svg">
<path d="M40.7529 15.5022V29.064H34.7889V35.9016L27.9513 29.064H17.9385" stroke="#06416A" stroke-width="2.4612" stroke-linecap="round" stroke-linejoin="round"/>
<path d="M1.23047 1.23071V23.3353H7.19447V30.1687L14.0321 23.3353H34.6499V1.23071H1.23047Z" fill="white" stroke="#06416A" stroke-width="2.4612" stroke-linecap="round" stroke-linejoin="round"/>
<path d="M10.5755 13.4484C11.218 13.4484 11.7389 12.9275 11.7389 12.285C11.7389 11.6425 11.218 11.1216 10.5755 11.1216C9.93298 11.1216 9.41211 11.6425 9.41211 12.285C9.41211 12.9275 9.93298 13.4484 10.5755 13.4484Z" stroke="#06416A" stroke-width="2.4612" stroke-linecap="round" stroke-linejoin="round"/>
<path d="M17.9378 13.4484C18.5803 13.4484 19.1012 12.9275 19.1012 12.285C19.1012 11.6425 18.5803 11.1216 17.9378 11.1216C17.2953 11.1216 16.7744 11.6425 16.7744 12.285C16.7744 12.9275 17.2953 13.4484 17.9378 13.4484Z" stroke="#06416A" stroke-width="2.4612" stroke-linecap="round" stroke-linejoin="round"/>
<path d="M25.3011 13.4484C25.9436 13.4484 26.4645 12.9275 26.4645 12.285C26.4645 11.6425 25.9436 11.1216 25.3011 11.1216C24.6586 11.1216 24.1377 11.6425 24.1377 12.285C24.1377 12.9275 24.6586 13.4484 25.3011 13.4484Z" stroke="#06416A" stroke-width="2.4612" stroke-linecap="round" stroke-linejoin="round"/>
</svg>
