<svg width="42" height="42" viewBox="0 0 42 42" fill="none" xmlns="http://www.w3.org/2000/svg">
<path d="M40.7273 30.4668H1.27247C1.24927 30.4668 1.23047 30.4856 1.23047 30.5088V40.7106C1.23047 40.7338 1.24927 40.7526 1.27247 40.7526H40.7273C40.7505 40.7526 40.7693 40.7338 40.7693 40.7106V30.5088C40.7693 30.4856 40.7505 30.4668 40.7273 30.4668Z" stroke="#06416A" stroke-width="2.4612" stroke-miterlimit="10"/>
<path d="M12.0628 2.89808L14.1628 29.9251C14.1628 29.9362 14.1583 29.9469 14.1505 29.9548C14.1426 29.9627 14.1319 29.9671 14.1208 29.9671H3.91895C3.90781 29.9671 3.89713 29.9627 3.88926 29.9548C3.88138 29.9469 3.87695 29.9362 3.87695 29.9251L5.97695 2.89808C5.97695 2.88694 5.98138 2.87626 5.98926 2.86838C5.99713 2.8605 6.00781 2.85608 6.01895 2.85608H12.0208C12.0319 2.85608 12.0426 2.8605 12.0505 2.86838C12.0583 2.87626 12.0628 2.88694 12.0628 2.89808V2.89808Z" stroke="#06416A" stroke-width="2.4612" stroke-miterlimit="10"/>
<path d="M18.791 30.4248V19.9248C18.791 18.9602 19.1742 18.035 19.8563 17.3529C20.5384 16.6708 21.4636 16.2876 22.4282 16.2876V16.2876C23.3929 16.2876 24.318 16.6708 25.0001 17.3529C25.6822 18.035 26.0654 18.9602 26.0654 19.9248V30.4248C26.0654 30.436 26.061 30.4467 26.0531 30.4545C26.0452 30.4624 26.0346 30.4668 26.0234 30.4668H18.8372C18.8314 30.4674 18.8254 30.4668 18.8199 30.4649C18.8143 30.4631 18.8091 30.4601 18.8048 30.4561C18.8004 30.4522 18.7969 30.4473 18.7946 30.4419C18.7922 30.4365 18.791 30.4307 18.791 30.4248Z" stroke="#06416A" stroke-width="2.4612" stroke-miterlimit="10"/>
<path d="M30.6133 30.4206V19.9206C30.6133 18.956 30.9965 18.0309 31.6786 17.3488C32.3607 16.6666 33.2858 16.2834 34.2505 16.2834V16.2834C35.2151 16.2834 36.1403 16.6666 36.8224 17.3488C37.5045 18.0309 37.8877 18.956 37.8877 19.9206V30.4206C37.8877 30.4318 37.8833 30.4425 37.8754 30.4503C37.8675 30.4582 37.8568 30.4626 37.8457 30.4626H30.6595C30.6483 30.4626 30.6377 30.4582 30.6298 30.4503C30.6219 30.4425 30.6175 30.4318 30.6175 30.4206H30.6133Z" stroke="#06416A" stroke-width="2.4612" stroke-miterlimit="10"/>
<path d="M22.4319 16.296V12.3858C22.4312 12.3801 22.4319 12.3743 22.4337 12.3689C22.4356 12.3635 22.4387 12.3586 22.4427 12.3546C22.4468 12.3505 22.4517 12.3475 22.4571 12.3456C22.4625 12.3437 22.4682 12.3431 22.4739 12.3438H34.2129C34.2186 12.3431 34.2243 12.3437 34.2297 12.3456C34.2351 12.3475 34.2401 12.3505 34.2441 12.3546C34.2481 12.3586 34.2512 12.3635 34.2531 12.3689C34.255 12.3743 34.2556 12.3801 34.2549 12.3858V16.296" stroke="#06416A" stroke-width="2.4612" stroke-miterlimit="10"/>
<path d="M18.7949 25.746H26.0693" stroke="#06416A" stroke-width="2.4612" stroke-miterlimit="10"/>
<path d="M30.6172 25.746H37.8916" stroke="#06416A" stroke-width="2.4612" stroke-miterlimit="10"/>
<path d="M5.55273 8.76538H12.4869" stroke="#06416A" stroke-width="2.4612" stroke-miterlimit="10"/>
<path d="M5.24219 13.1838H12.798" stroke="#06416A" stroke-width="2.4612" stroke-miterlimit="10"/>
<path d="M1.23047 36.8424H40.7693" stroke="#06416A" stroke-width="2.4612" stroke-miterlimit="10"/>
</svg>
