<svg width="42" height="42" viewBox="0 0 42 42" xmlns="http://www.w3.org/2000/svg">
    <g clip-path="url(#clip0_206_1017)">
        <path d="M24.898 14.1755C24.5445 13.9707 24.1123 13.9548 23.7448 14.1328C23.3772 14.3109 23.1218 14.6599 23.0634 15.0642L22.3955 19.6871H19.6046L18.9366 15.0642C18.8782 14.6599 18.6229 14.3109 18.2552 14.1328C17.8877 13.9548 17.4556 13.9707 17.102 14.1755C14.6994 15.5672 13.207 18.1506 13.207 20.9176C13.207 23.6516 14.6032 26.1228 16.8984 27.5375V40.7691C16.8984 41.4487 17.4494 41.9996 18.1289 41.9996H23.8711C24.5506 41.9996 25.1016 41.4487 25.1016 40.7691V27.5375C27.3968 26.1228 28.793 23.6516 28.793 20.9176C28.793 18.1506 27.3006 15.5672 24.898 14.1755ZM23.3314 25.706C22.9088 25.9124 22.6406 26.3415 22.6406 26.8118V39.5386H19.3594V26.8118C19.3594 26.3415 19.0912 25.9124 18.6686 25.706C16.8178 24.8026 15.668 22.9678 15.668 20.9176C15.668 19.7068 16.0866 18.547 16.8192 17.619L17.3212 21.0935C17.4088 21.6988 17.9274 22.148 18.5391 22.148H23.4609C24.0726 22.148 24.5912 21.6988 24.6788 21.0935L25.1808 17.619C25.9134 18.547 26.332 19.7068 26.332 20.9176C26.332 22.9678 25.1822 24.8026 23.3314 25.706Z" fill=""/>
        <path d="M40.9288 16.4301L37.8666 15.8178C37.5297 14.7011 37.0832 13.6228 36.5332 12.5975L38.2651 9.99961C38.5905 9.51152 38.5262 8.86167 38.1114 8.447L33.471 3.80658C33.0563 3.39183 32.4064 3.32752 31.9184 3.65277L29.3204 5.3847C28.2951 4.83476 27.2169 4.38834 26.1001 4.05136L25.4878 0.989133C25.3728 0.414012 24.8678 0 24.2812 0H17.7188C17.1322 0 16.6272 0.414012 16.5122 0.989133L15.8998 4.05136C14.783 4.38834 13.7048 4.83484 12.6795 5.3847L10.0815 3.65277C9.59355 3.32752 8.94362 3.39183 8.52887 3.80658L3.88853 8.447C3.4737 8.86175 3.40938 9.51161 3.7348 9.99961L5.46673 12.5975C4.91671 13.6228 4.47029 14.7011 4.13331 15.8178L1.07116 16.4301C0.496043 16.5451 0.0820312 17.0502 0.0820312 17.6367V24.1992C0.0820312 24.7857 0.496043 25.2908 1.07125 25.4057L4.13339 26.0182C4.47029 27.1348 4.91679 28.213 5.46681 29.2384L3.73488 31.8363C3.40946 32.3243 3.47386 32.9742 3.88861 33.3889L8.52895 38.0293C8.94378 38.4441 9.59355 38.5084 10.0816 38.1831L13.3089 36.0317C13.6512 35.8034 13.8569 35.4193 13.8569 35.0078V28.7622C13.8569 28.4492 13.7375 28.1479 13.5233 27.9197C11.7323 26.0135 10.7461 23.5269 10.7461 20.918C10.7461 15.264 15.346 10.6641 21 10.6641C26.654 10.6641 31.2539 15.264 31.2539 20.918C31.2539 23.5269 30.2677 26.0135 28.4768 27.9197C28.2626 28.1478 28.1432 28.4491 28.1432 28.7622V35.0078C28.1432 35.4193 28.3489 35.8034 28.6912 36.0317L31.9185 38.1831C32.1267 38.3219 32.3644 38.3898 32.6006 38.3898C32.9182 38.3898 33.2333 38.2672 33.471 38.0294L38.1114 33.389C38.5261 32.9743 38.5905 32.3244 38.2651 31.8364L36.5332 29.2385C37.0832 28.2131 37.5296 27.1349 37.8666 26.0183L40.9288 25.4058C41.504 25.2908 41.918 24.7857 41.918 24.1992V17.6367C41.918 17.0502 41.504 16.5451 40.9288 16.4301ZM39.457 23.1905L36.6425 23.7534C36.1777 23.8463 35.8077 24.1978 35.6911 24.6572C35.3328 26.0685 34.7749 27.4159 34.0326 28.6619C33.79 29.0692 33.8029 29.5796 34.0659 29.9741L35.6579 32.3621L32.4441 35.5759L30.604 34.3493V29.2355C32.6137 26.9238 33.7148 23.9895 33.7148 20.918C33.7148 13.907 28.011 8.20312 21 8.20312C13.989 8.20312 8.28516 13.907 8.28516 20.918C8.28516 23.9895 9.38626 26.9238 11.3959 29.2355V34.3493L9.55574 35.5759L6.342 32.3621L7.93398 29.9741C8.19697 29.5796 8.20993 29.0692 7.96729 28.6619C7.22507 27.4159 6.66709 26.0685 6.30886 24.6572C6.19221 24.1978 5.82217 23.8463 5.35746 23.7534L2.54297 23.1905V18.6455L5.35754 18.0826C5.82225 17.9897 6.19229 17.6381 6.30894 17.1787C6.66717 15.7672 7.22523 14.4199 7.96737 13.174C8.21002 12.7667 8.19705 12.2562 7.93406 11.8617L6.34208 9.47379L9.5559 6.25997L11.9439 7.85195C12.3384 8.11494 12.8488 8.1279 13.2561 7.88525C14.502 7.1432 15.8493 6.58514 17.2609 6.22683C17.7202 6.11026 18.0718 5.74022 18.1648 5.27551L18.7275 2.46094H23.2725L23.8353 5.27551C23.9283 5.74022 24.2799 6.11026 24.7391 6.22683C26.1507 6.58522 27.4982 7.1432 28.744 7.88525C29.1513 8.1279 29.6618 8.11478 30.0562 7.85195L32.4442 6.25997L35.658 9.47379L34.066 11.8617C33.803 12.2562 33.7901 12.7667 34.0327 13.174C34.7749 14.4199 35.3329 15.7673 35.6911 17.1787C35.8078 17.6381 36.1778 17.9896 36.6425 18.0826L39.457 18.6455V23.1905Z" fill=""/>
    </g>
    <defs>
        <clipPath id="clip0_206_1017">
            <rect width="42" height="42" fill="white"/>
        </clipPath>
    </defs>
</svg>