<svg width="42" height="42" viewBox="0 0 42 42" xmlns="http://www.w3.org/2000/svg">
    <path d="M35.8477 5.08594C35.1681 5.08594 34.6172 5.63686 34.6172 6.31641V10.0078H28.793V2.87109C28.793 1.28797 27.505 0 25.9219 0H24.2812C22.6981 0 21.4102 1.28797 21.4102 2.87109V10.0078H7.38281V6.31641C7.38281 5.63686 6.83189 5.08594 6.15234 5.08594C2.75994 5.08594 0 7.84588 0 11.2383V35.8477C0 39.2401 2.75994 42 6.15234 42H35.8477C39.2401 42 42 39.2401 42 35.8477V11.2383C42 7.84588 39.2401 5.08594 35.8477 5.08594ZM23.8711 2.87109C23.8711 2.64493 24.0551 2.46094 24.2812 2.46094H25.9219C26.148 2.46094 26.332 2.64493 26.332 2.87109V21.3281H23.8711V2.87109ZM23.8711 23.7891H26.332V25.5494L25.1016 28.0103L23.8711 25.5494V23.7891ZM21.54 26.3901L23.8711 31.0522V32.1562H14.8477V19.8516H21.4102V25.8398C21.4102 26.0309 21.4546 26.2192 21.54 26.3901ZM2.46094 11.2383C2.46094 9.634 3.48953 8.26555 4.92188 7.7577V29.8189C4.01338 30.0042 3.17658 30.3904 2.46094 30.9287V11.2383ZM35.8477 39.5391H6.15234C4.1169 39.5391 2.46094 37.8831 2.46094 35.8477C2.46094 33.8122 4.1169 32.1562 6.15234 32.1562C6.83189 32.1562 7.38281 31.6053 7.38281 30.9258V12.4688H21.4102V17.3906H14.8477V16.1602C14.8477 15.4806 14.2967 14.9297 13.6172 14.9297C12.9376 14.9297 12.3867 15.4806 12.3867 16.1602V17.3906H11.1562C10.4767 17.3906 9.92578 17.9415 9.92578 18.6211C9.92578 19.3006 10.4767 19.8516 11.1562 19.8516H12.3867V32.1562H11.1562C10.4767 32.1562 9.92578 32.7072 9.92578 33.3867C9.92578 34.0663 10.4767 34.6172 11.1562 34.6172H12.3867V35.8477C12.3867 36.5272 12.9376 37.0781 13.6172 37.0781C14.2967 37.0781 14.8477 36.5272 14.8477 35.8477V34.6172H25.1016C25.7811 34.6172 26.332 34.0663 26.332 33.3867V31.0522L28.6631 26.3901C28.7486 26.2192 28.793 26.0309 28.793 25.8398V19.8516H30.8438C31.5233 19.8516 32.0742 19.3006 32.0742 18.6211C32.0742 17.9415 31.5233 17.3906 30.8438 17.3906H28.793V12.4688H34.6172V30.9258C34.6172 31.6053 35.1681 32.1562 35.8477 32.1562C37.8831 32.1562 39.5391 33.8122 39.5391 35.8477C39.5391 37.8831 37.8831 39.5391 35.8477 39.5391ZM39.5391 30.9287C38.8234 30.3904 37.9866 30.0041 37.0781 29.8189V7.7577C38.5105 8.26547 39.5391 9.634 39.5391 11.2383V30.9287Z" fill=""/>
</svg>