<svg width="20" height="20" viewBox="0 0 20 20" xmlns="http://www.w3.org/2000/svg">
<g clip-path="url(#clip0_685_2782)">
<path d="M19.7552 18.5778L14.781 13.6036C16.1365 11.9458 16.803 9.83038 16.6425 7.69494C16.4821 5.5595 15.507 3.56742 13.919 2.13074C12.331 0.694065 10.2515 -0.0772832 8.1107 -0.0237567C5.96991 0.0297698 3.93158 0.904076 2.41734 2.41832C0.903099 3.93256 0.0287933 5.97088 -0.0247333 8.11167C-0.0782598 10.2525 0.693089 12.3319 2.12976 13.92C3.56644 15.508 5.55852 16.4831 7.69396 16.6435C9.82941 16.804 11.9448 16.1375 13.6027 14.782L18.5768 19.7561C18.734 19.9079 18.9445 19.9919 19.163 19.99C19.3815 19.9881 19.5905 19.9005 19.745 19.746C19.8995 19.5915 19.9872 19.3825 19.9891 19.164C19.991 18.9455 19.907 18.735 19.7552 18.5778ZM8.33266 15.0003C7.01412 15.0003 5.72519 14.6093 4.62886 13.8768C3.53253 13.1442 2.67805 12.103 2.17347 10.8849C1.66888 9.66669 1.53686 8.32624 1.79409 7.03304C2.05133 5.73983 2.68627 4.55194 3.61862 3.61959C4.55097 2.68724 5.73885 2.05231 7.03206 1.79507C8.32527 1.53784 9.66571 1.66986 10.8839 2.17444C12.1021 2.67903 13.1433 3.53351 13.8758 4.62984C14.6083 5.72617 14.9993 7.0151 14.9993 8.33364C14.9973 10.1011 14.2943 11.7957 13.0445 13.0455C11.7947 14.2953 10.1002 14.9983 8.33266 15.0003Z"/>
<path d="M10.8333 7.5H9.16667V5.83333C9.16667 5.61232 9.07887 5.40036 8.92259 5.24408C8.76631 5.0878 8.55435 5 8.33333 5C8.11232 5 7.90036 5.0878 7.74408 5.24408C7.5878 5.40036 7.5 5.61232 7.5 5.83333V7.5H5.83333C5.61232 7.5 5.40036 7.5878 5.24408 7.74408C5.0878 7.90036 5 8.11232 5 8.33333C5 8.55435 5.0878 8.76631 5.24408 8.92259C5.40036 9.07887 5.61232 9.16667 5.83333 9.16667H7.5V10.8333C7.5 11.0543 7.5878 11.2663 7.74408 11.4226C7.90036 11.5789 8.11232 11.6667 8.33333 11.6667C8.55435 11.6667 8.76631 11.5789 8.92259 11.4226C9.07887 11.2663 9.16667 11.0543 9.16667 10.8333V9.16667H10.8333C11.0543 9.16667 11.2663 9.07887 11.4226 8.92259C11.5789 8.76631 11.6667 8.55435 11.6667 8.33333C11.6667 8.11232 11.5789 7.90036 11.4226 7.74408C11.2663 7.5878 11.0543 7.5 10.8333 7.5Z"/>
</g>
<defs>
<clipPath id="clip0_685_2782">
<rect width="20" height="20"/>
</clipPath>
</defs>
</svg>
