<?xml version="1.0" standalone="no"?>
<!DOCTYPE svg PUBLIC "-//W3C//DTD SVG 20010904//EN"
 "http://www.w3.org/TR/2001/REC-SVG-20010904/DTD/svg10.dtd">
<svg version="1.0" xmlns="http://www.w3.org/2000/svg"
 width="1312.000000pt" height="1312.000000pt" viewBox="0 0 1312.000000 1312.000000"
 preserveAspectRatio="xMidYMid meet">
<metadata>
Created by potrace 1.14, written by Peter Selinger 2001-2017
</metadata>
<g transform="translate(0.000000,1312.000000) scale(0.100000,-0.100000)"
fill="#000000" stroke="none">
<path d="M6660 13012 c0 -5 -15 -17 -32 -26 -18 -9 -45 -25 -60 -34 -102 -64
-372 -229 -388 -237 -11 -5 -20 -13 -20 -17 0 -5 -6 -8 -14 -8 -8 0 -21 -6
-28 -12 -16 -15 -47 -35 -68 -45 -8 -4 -67 -39 -130 -78 -63 -40 -182 -113
-265 -163 -82 -50 -154 -95 -160 -100 -5 -4 -32 -21 -60 -37 -27 -16 -59 -35
-70 -42 -11 -7 -27 -15 -35 -19 -8 -4 -17 -10 -20 -13 -3 -4 -45 -31 -95 -60
-49 -30 -119 -73 -155 -95 -36 -23 -74 -46 -85 -53 -11 -7 -54 -33 -95 -58
-41 -25 -84 -51 -95 -58 -11 -7 -39 -24 -62 -39 -23 -16 -46 -28 -52 -28 -6 0
-11 -4 -11 -10 0 -5 -11 -12 -25 -16 -14 -3 -25 -10 -25 -14 0 -4 -13 -13 -30
-20 -16 -7 -30 -17 -30 -22 0 -5 -4 -7 -9 -4 -5 3 -14 -1 -21 -9 -7 -8 -17
-15 -22 -15 -5 0 -24 -11 -42 -25 -18 -14 -36 -25 -40 -25 -3 0 -40 -22 -81
-50 -41 -27 -75 -47 -75 -44 0 3 -6 0 -12 -6 -24 -20 -148 -98 -148 -92 0 3
-8 -1 -17 -9 -10 -8 -30 -21 -45 -29 -16 -7 -28 -17 -28 -22 0 -4 -4 -8 -10
-8 -12 0 -324 -192 -328 -202 -2 -5 -12 -8 -23 -8 -10 0 -19 -4 -19 -8 0 -5
-24 -22 -52 -37 -54 -30 -114 -67 -135 -85 -7 -5 -14 -10 -17 -10 -2 0 -60
-34 -128 -76 -67 -42 -132 -82 -143 -88 -11 -6 -31 -19 -45 -27 -97 -63 -272
-169 -276 -169 -3 0 -20 -10 -37 -22 -18 -13 -48 -31 -67 -42 -19 -10 -37 -21
-40 -25 -3 -3 -16 -12 -30 -20 -14 -8 -72 -44 -130 -79 -58 -36 -115 -70 -127
-76 -13 -6 -23 -14 -23 -18 0 -5 -4 -8 -9 -8 -5 0 -45 -22 -88 -50 -43 -27
-92 -57 -110 -66 -18 -9 -37 -22 -44 -30 -6 -8 -17 -14 -25 -14 -7 0 -19 -6
-26 -13 -7 -7 -47 -32 -88 -56 -41 -25 -77 -47 -80 -51 -3 -4 -15 -10 -27 -14
-13 -4 -23 -12 -23 -17 0 -5 -7 -9 -15 -9 -9 0 -28 -11 -42 -24 l-27 -25 -2
-3485 -2 -3486 28 -20 c15 -11 33 -20 39 -20 6 0 11 -4 11 -9 0 -5 8 -12 18
-15 9 -3 26 -12 37 -19 11 -6 43 -25 70 -42 28 -16 58 -34 67 -40 51 -31 154
-91 163 -94 5 -2 14 -8 20 -13 12 -10 277 -168 282 -168 2 0 22 -12 46 -27 23
-15 51 -32 62 -38 46 -26 70 -40 75 -46 3 -3 36 -23 74 -45 89 -50 112 -64
163 -97 24 -15 45 -27 47 -27 2 0 53 -30 113 -66 59 -37 115 -69 123 -72 8 -3
20 -10 25 -14 20 -17 208 -128 216 -128 5 0 9 -4 9 -10 0 -5 9 -10 19 -10 11
0 21 -4 23 -8 2 -5 37 -28 78 -53 101 -59 97 -57 201 -119 107 -64 127 -76
194 -114 52 -30 126 -77 135 -86 3 -3 11 -6 17 -7 7 -2 34 -18 60 -37 27 -19
64 -43 83 -54 19 -11 65 -38 102 -61 37 -22 72 -41 78 -41 5 0 10 -4 10 -10 0
-5 11 -12 25 -16 14 -3 25 -10 25 -16 0 -5 4 -6 10 -3 5 3 10 1 10 -4 0 -6 7
-11 15 -11 8 0 15 -4 15 -9 0 -5 8 -11 18 -14 9 -4 40 -20 67 -37 28 -17 57
-34 65 -37 8 -4 20 -11 25 -16 13 -11 81 -52 125 -74 19 -10 38 -22 42 -28 4
-5 11 -10 15 -10 4 0 19 -8 33 -16 33 -22 445 -267 490 -292 19 -11 46 -28 59
-38 13 -11 30 -19 37 -19 8 0 14 -5 14 -12 0 -6 3 -9 6 -6 5 6 60 -26 91 -52
7 -5 15 -10 19 -10 3 0 39 -20 78 -45 40 -25 78 -45 84 -45 5 0 12 -4 14 -8 2
-5 28 -23 58 -40 71 -42 81 -48 171 -103 42 -26 86 -50 98 -54 11 -3 21 -11
21 -16 0 -5 4 -9 9 -9 6 0 77 -40 159 -90 83 -50 153 -90 156 -90 4 0 16 -9
28 -20 12 -10 25 -17 30 -14 4 3 8 1 8 -5 0 -5 10 -13 23 -17 12 -4 25 -11 28
-16 6 -10 75 24 131 63 14 11 29 19 32 19 3 0 25 14 49 30 25 17 47 30 50 30
3 0 34 18 68 40 35 23 76 46 92 53 15 6 27 15 27 19 0 4 4 8 8 8 11 0 220 124
252 150 14 11 29 20 33 20 11 0 248 141 265 157 7 7 22 13 33 13 10 0 19 4 19
10 0 5 21 21 48 35 26 14 61 34 77 45 17 11 37 23 45 27 8 4 72 42 143 85 70
43 129 78 131 78 2 0 33 18 67 40 35 22 83 50 107 62 23 12 42 26 42 30 0 4 5
8 10 8 6 0 78 40 160 90 82 49 154 90 160 90 5 0 10 3 10 8 0 4 21 18 48 32
26 14 53 30 60 37 7 7 20 13 28 13 8 0 14 5 14 10 0 6 7 10 15 10 8 0 15 5 15
11 0 5 5 7 10 4 6 -3 10 -2 10 2 0 5 19 19 43 31 23 12 60 33 82 47 22 14 47
28 55 32 8 3 17 9 20 13 3 3 32 21 65 40 33 18 71 42 84 52 13 10 27 15 32 12
5 -3 9 -1 9 4 0 5 10 14 23 20 12 6 40 23 62 36 22 14 59 35 83 47 23 13 42
26 42 31 0 4 4 8 9 8 5 0 77 41 160 90 83 50 154 90 160 90 5 0 12 7 15 16 4
9 9 14 13 11 3 -3 24 6 47 22 22 15 48 31 56 34 8 4 27 15 42 25 26 17 125 76
163 97 24 14 154 91 175 105 20 13 146 87 185 108 17 9 32 20 35 23 9 10 182
109 191 109 5 0 9 4 9 8 0 5 18 17 40 27 22 10 40 22 40 27 0 4 6 8 14 8 7 0
25 9 40 21 14 11 26 17 26 12 0 -4 4 -3 8 2 4 6 108 71 232 145 224 134 251
150 301 177 55 28 52 -34 51 1091 0 576 -1 1053 -1 1060 -1 6 -8 12 -16 12 -8
0 -15 4 -15 9 0 5 -8 11 -17 15 -21 6 -49 23 -155 89 -41 26 -81 47 -87 47 -6
0 -11 4 -11 9 0 5 -8 11 -17 14 -18 6 -73 37 -83 47 -7 7 -43 29 -60 37 -8 3
-39 21 -68 40 -29 18 -57 33 -62 33 -6 0 -10 4 -10 9 0 5 -11 12 -25 15 -14 4
-25 11 -25 16 0 6 -5 10 -10 10 -6 0 -36 16 -66 35 -30 19 -57 35 -60 35 -3 0
-25 14 -49 30 -24 17 -48 30 -54 30 -6 0 -11 5 -11 10 0 6 -4 10 -10 10 -13 0
-233 131 -242 145 -4 5 -8 6 -8 1 0 -5 -6 -4 -12 2 -25 20 -280 172 -289 172
-5 0 -9 5 -9 10 0 6 -5 10 -10 10 -6 0 -36 16 -66 35 -30 19 -59 35 -64 35 -6
0 -10 5 -10 11 0 5 -4 7 -10 4 -5 -3 -10 -1 -10 4 0 6 -4 11 -10 11 -5 0 -33
15 -63 33 -29 17 -61 37 -72 44 -73 45 -182 109 -190 112 -5 2 -18 10 -27 19
-10 8 -18 11 -18 6 0 -5 -4 -3 -9 5 -5 7 -38 30 -74 50 -126 70 -286 166 -287
172 0 7 114 79 124 79 4 0 12 5 19 10 31 26 86 58 91 52 3 -3 6 0 6 6 0 7 7
12 15 12 9 0 18 7 21 15 4 8 9 13 13 10 4 -2 24 7 44 20 20 14 40 25 46 25 5
0 14 6 18 13 8 11 37 29 108 65 17 9 32 18 35 22 3 4 30 20 60 37 30 16 92 53
138 81 46 29 86 52 88 52 3 0 25 14 49 30 24 17 47 30 50 30 4 0 38 20 76 45
38 25 71 45 73 45 5 0 170 99 182 109 6 5 31 19 54 31 24 12 50 29 58 36 7 8
18 14 23 14 5 0 40 20 79 45 39 25 72 45 74 45 2 0 33 18 67 39 113 70 201
121 210 121 5 0 9 5 9 10 0 6 6 10 14 10 8 0 21 6 28 13 16 14 39 28 93 58 22
11 59 34 82 49 22 15 51 31 62 35 12 3 21 11 21 16 0 5 5 9 10 9 6 0 36 16 66
35 30 19 56 35 59 35 4 0 113 67 124 76 3 3 4 1978 2 2096 -1 23 -12 33 -67
65 -79 46 -53 30 -307 183 -247 148 -277 167 -297 177 -52 28 -216 129 -218
135 -2 5 -7 6 -12 3 -4 -3 -13 2 -20 10 -7 8 -19 15 -26 15 -8 0 -14 3 -14 8
0 7 -14 15 -75 45 -16 7 -36 21 -44 30 -7 10 -19 17 -25 17 -6 0 -39 18 -74
40 -34 22 -67 40 -72 40 -6 0 -10 5 -10 10 0 6 -5 10 -10 10 -6 0 -41 19 -78
41 -110 68 -145 89 -179 106 -18 9 -33 20 -33 25 0 4 -4 8 -10 8 -5 0 -62 32
-126 70 -65 39 -120 70 -124 70 -3 0 -15 8 -26 18 -10 9 -30 23 -44 29 -14 7
-43 24 -65 37 -69 43 -169 101 -195 113 -14 6 -20 12 -15 12 6 1 -10 11 -35
24 -25 13 -110 62 -188 110 -79 48 -147 87 -150 87 -4 0 -25 14 -46 30 -22 17
-46 30 -53 30 -7 0 -13 5 -13 10 0 6 -5 10 -10 10 -6 0 -29 12 -53 27 -23 14
-42 25 -42 23 0 -3 -20 9 -45 26 -25 17 -112 71 -195 120 -82 49 -151 92 -153
96 -2 5 -8 8 -13 8 -8 0 -381 219 -404 237 -6 4 -30 19 -55 32 -25 13 -52 30
-61 37 -8 8 -18 14 -21 14 -5 0 -222 127 -288 169 -48 30 -179 109 -192 115
-7 3 -31 17 -53 31 -22 14 -47 28 -55 32 -8 4 -17 9 -20 12 -3 3 -25 17 -50
30 -25 14 -47 28 -50 31 -3 4 -27 20 -55 35 -64 34 -327 191 -340 202 -21 18
-35 24 -35 15z m2406 -2507 l-1 -1035 -25 -17 c-14 -10 -99 -62 -190 -115 -91
-54 -169 -101 -175 -105 -5 -5 -57 -35 -114 -68 -57 -33 -115 -68 -130 -77
-14 -10 -33 -21 -41 -25 -8 -4 -50 -29 -93 -55 -43 -26 -83 -48 -88 -48 -5 0
-9 -3 -9 -7 0 -5 -23 -19 -50 -32 -28 -14 -50 -29 -50 -34 0 -4 -4 -5 -10 -2
-5 3 -10 1 -10 -4 0 -6 -4 -11 -10 -11 -5 0 -38 -18 -72 -40 -35 -22 -68 -40
-75 -40 -6 0 -13 -4 -15 -8 -2 -6 -190 -120 -273 -166 -68 -38 -171 -102 -173
-108 -2 -5 -8 -8 -14 -8 -6 0 -30 -13 -55 -30 -24 -16 -50 -30 -58 -30 -7 0
-15 -4 -17 -8 -4 -10 -105 -72 -118 -72 -6 0 -10 -4 -10 -8 0 -4 -27 -21 -60
-37 -33 -17 -60 -33 -60 -37 0 -5 -4 -8 -9 -8 -5 0 -38 -18 -72 -40 -35 -22
-71 -43 -79 -47 -8 -4 -61 -35 -117 -69 -57 -34 -103 -60 -103 -58 0 3 -10 -4
-22 -16 -12 -11 -28 -20 -35 -20 -7 0 -13 -4 -13 -10 0 -5 -3 -9 -7 -8 -5 1
-19 -5 -33 -13 -103 -65 -128 -79 -138 -79 -7 0 -12 -4 -12 -8 0 -5 -18 -17
-40 -27 -22 -10 -40 -22 -40 -27 0 -4 -5 -8 -10 -8 -6 0 -36 -16 -66 -35 -30
-19 -57 -35 -60 -35 -3 0 -28 -15 -57 -33 -29 -18 -59 -36 -67 -40 -8 -4 -55
-32 -104 -62 -49 -30 -90 -55 -92 -55 -1 0 -98 -58 -216 -128 -117 -71 -220
-131 -228 -135 -8 -4 -27 -15 -42 -25 -77 -49 -271 -162 -279 -162 -5 0 -9 -5
-9 -11 0 -5 -4 -7 -10 -4 -5 3 -10 1 -10 -5 0 -6 -11 -15 -23 -19 -13 -5 -54
-28 -91 -50 -36 -23 -71 -41 -76 -41 -5 0 -13 -6 -17 -12 -4 -7 -26 -22 -48
-33 -22 -11 -42 -22 -45 -25 -7 -7 -42 -28 -65 -40 -11 -5 -36 -20 -57 -32
-101 -63 -232 -138 -239 -138 -5 0 -9 -4 -9 -8 0 -5 -18 -17 -40 -27 -22 -10
-40 -22 -40 -27 0 -4 -5 -8 -11 -8 -7 0 -34 -13 -61 -30 -26 -16 -54 -30 -61
-29 -6 0 -7 2 -2 5 6 2 9 28 8 56 -1 29 -2 86 -4 126 -1 39 1 75 4 78 3 4 2
15 -4 25 -5 11 -6 19 -2 19 4 0 6 61 3 136 -3 75 -2 138 3 141 4 2 2 13 -3 24
-6 10 -7 19 -3 19 4 0 6 36 3 80 -3 44 -1 80 3 80 4 0 3 9 -3 19 -7 14 -7 22
0 26 8 5 7 11 -1 21 -9 11 -9 14 0 14 8 0 9 5 1 19 -7 14 -7 22 0 26 8 5 7 11
-1 21 -9 11 -9 14 0 14 8 0 9 5 1 19 -7 14 -7 22 0 26 8 5 7 11 -1 21 -9 11
-9 14 1 14 9 0 9 4 2 13 -6 7 -7 19 -3 26 5 7 5 28 1 47 -5 20 -4 34 1 34 6 0
5 8 -1 19 -5 11 -6 22 -1 25 4 3 5 24 1 46 -4 22 -3 43 1 46 5 3 6 10 3 16 -6
9 -9 128 -4 153 1 6 2 12 1 15 -5 13 -4 138 2 146 3 6 2 16 -3 23 -4 8 -4 27
0 42 5 16 6 29 2 29 -4 0 -7 27 -7 60 0 33 4 60 8 60 5 0 5 5 1 12 -10 17 -11
68 0 68 5 0 4 6 -2 13 -17 20 7 57 58 88 25 15 83 51 130 79 47 28 105 65 130
81 25 16 54 33 65 39 11 6 36 20 55 33 19 12 50 31 68 42 18 11 90 55 158 98
69 42 137 84 152 92 15 9 39 23 54 33 15 9 60 37 100 61 165 101 654 401 663
408 23 17 71 45 88 50 9 3 17 9 17 14 0 5 7 9 15 9 8 0 15 5 15 10 0 6 5 10
10 10 6 0 36 16 66 35 30 19 57 35 60 35 2 0 14 9 26 20 12 11 30 20 40 20 10
0 18 4 18 9 0 10 27 27 88 56 17 8 32 19 32 23 0 4 12 13 28 19 15 7 36 18 46
25 27 18 127 80 148 93 96 56 185 112 196 122 7 7 18 13 24 13 6 0 26 11 44
25 18 14 37 25 43 25 5 0 16 6 23 13 7 7 87 58 178 112 91 55 170 105 177 111
6 6 25 17 42 24 17 7 31 17 31 22 0 5 5 6 10 3 6 -3 10 -1 10 4 0 6 7 11 15
11 7 0 18 7 23 16 5 9 13 15 18 15 5 0 106 59 224 132 118 72 219 134 225 136
5 2 12 7 15 10 4 5 166 105 334 206 133 80 181 111 184 117 2 5 8 8 12 8 9 0
530 318 540 329 3 3 12 7 20 9 8 2 17 8 18 13 2 5 10 9 18 9 8 0 14 5 14 10 0
6 6 10 13 10 6 0 23 9 37 20 14 11 25 20 26 20 0 0 0 -466 0 -1035z m-4711
-4035 c3 0 11 -5 18 -10 18 -16 480 -290 488 -290 3 0 12 -7 19 -15 7 -8 16
-12 21 -9 5 3 9 0 9 -5 0 -6 7 -11 15 -11 8 0 15 -4 15 -10 0 -5 4 -10 10 -10
5 0 25 -10 43 -22 48 -31 101 -62 109 -62 4 -1 17 -9 28 -18 11 -10 22 -18 25
-18 2 0 56 -31 120 -70 64 -38 120 -70 124 -70 4 0 16 -9 26 -20 10 -11 22
-20 28 -20 10 0 98 -51 184 -106 28 -19 56 -34 62 -34 6 0 11 -5 11 -10 0 -6
3 -9 8 -8 4 1 18 -5 32 -13 101 -64 178 -109 188 -109 7 0 12 -4 12 -8 0 -5
18 -17 40 -27 22 -10 40 -22 40 -27 0 -4 4 -8 10 -8 5 0 73 -38 151 -85 77
-47 142 -85 144 -85 2 0 23 -12 47 -27 69 -45 82 -52 103 -63 11 -6 34 -19 50
-29 86 -55 107 -63 134 -49 14 7 31 17 36 21 6 4 84 51 175 105 91 53 167 100
168 104 2 5 12 8 23 8 10 0 19 4 19 8 0 5 12 15 28 23 15 7 50 28 79 46 29 18
54 33 56 33 4 0 234 138 294 176 13 8 26 14 29 13 4 0 10 3 13 8 7 9 85 57
144 88 20 11 37 23 37 27 0 5 5 8 11 8 10 0 44 19 154 87 11 7 47 28 80 48 33
19 78 46 100 60 22 14 46 28 54 32 8 3 72 41 143 85 71 43 133 78 139 78 5 0
9 3 9 8 0 8 26 23 73 42 15 7 27 16 27 21 0 5 4 9 10 9 5 0 38 18 72 40 35 22
68 40 75 40 6 0 13 4 15 8 2 5 32 25 68 46 36 20 83 48 105 62 22 13 47 27 55
31 8 4 17 9 20 12 3 3 23 16 46 28 l40 22 0 -1036 -1 -1036 -22 -8 c-13 -5
-23 -13 -23 -19 0 -6 -4 -9 -9 -5 -5 3 -13 0 -16 -5 -4 -6 -17 -15 -28 -20
-12 -6 -40 -21 -62 -35 -22 -14 -48 -28 -57 -31 -10 -4 -18 -9 -18 -13 0 -3
-21 -17 -47 -31 -27 -13 -50 -27 -53 -30 -3 -3 -25 -16 -50 -29 -25 -14 -56
-32 -70 -41 -56 -38 -539 -322 -542 -318 -2 1 -14 -7 -28 -19 -13 -13 -27 -23
-31 -23 -6 0 -125 -71 -199 -118 -14 -9 -27 -17 -30 -17 -3 0 -39 -21 -80 -46
-142 -87 -283 -169 -291 -169 -5 0 -9 -4 -9 -10 0 -5 -4 -10 -9 -10 -4 0 -73
-39 -152 -86 -79 -48 -157 -94 -174 -104 -117 -67 -161 -95 -166 -103 -3 -5
-10 -9 -15 -8 -5 0 -22 -8 -39 -18 -163 -100 -265 -158 -269 -153 -3 3 -6 0
-6 -6 0 -6 -12 -17 -27 -25 -39 -20 -72 -39 -303 -177 -204 -122 -257 -153
-295 -174 -11 -6 -34 -21 -52 -33 -17 -13 -34 -23 -37 -23 -6 0 -136 -76 -196
-115 -19 -13 -55 -33 -80 -46 -25 -13 -49 -30 -53 -36 -4 -7 -17 -13 -27 -13
-11 0 -20 -4 -20 -8 0 -5 -19 -18 -42 -31 -24 -12 -55 -30 -70 -39 -33 -21
-140 -85 -153 -92 -32 -16 -113 -66 -127 -78 -10 -8 -18 -11 -18 -7 0 5 -10
-1 -23 -13 -13 -12 -27 -19 -30 -15 -4 3 -7 1 -7 -5 0 -7 -7 -12 -15 -12 -8 0
-15 -4 -15 -10 0 -5 -4 -10 -9 -10 -10 0 -197 -109 -242 -140 -15 -11 -34 -20
-43 -20 -9 0 -16 -4 -16 -8 0 -5 -17 -17 -37 -28 -21 -10 -40 -22 -43 -25 -4
-4 -90 -55 -175 -103 -11 -6 -39 -24 -62 -39 -24 -15 -46 -27 -50 -27 -5 0
-19 -9 -33 -20 -14 -11 -29 -20 -35 -20 -7 0 -10 490 -10 1451 0 798 -3 1453
-8 1456 -4 2 -5 9 -1 14 11 19 14 58 4 64 -6 4 -7 13 -1 23 5 9 7 31 4 47 -2
17 -4 36 -3 43 1 26 2 48 0 67 0 11 0 37 2 58 2 20 -1 37 -7 37 -7 0 -7 3 0 8
11 8 14 352 3 352 -4 0 -5 7 -1 16 9 24 9 284 0 284 -5 0 -5 5 -1 12 6 10 10
187 4 213 -1 6 -1 13 0 18 7 21 4 53 -5 59 -6 5 -6 8 0 8 10 0 12 288 2 314
-3 8 -3 17 0 20 9 9 9 136 0 136 -5 0 -6 4 -2 9 8 15 10 175 2 189 -5 6 -4 12
2 12 6 0 8 7 5 15 -4 9 21 -1 60 -25 36 -22 68 -40 71 -40z"/>
</g>
</svg>
